<?xml version="1.0" encoding="utf-8"?>
<!-- Generator: Adobe Illustrator 16.2.0, SVG Export Plug-In . SVG Version: 6.00 Build 0)  -->
<!DOCTYPE svg PUBLIC "-//W3C//DTD SVG 1.1//EN" "http://www.w3.org/Graphics/SVG/1.1/DTD/svg11.dtd" [
	<!ENTITY st0 "clip-path:url(#SVGID_6_);fill:#FFFFFF;">
	<!ENTITY st1 "clip-path:url(#SVGID_41_);fill:#D1ECE8;">
	<!ENTITY st2 "clip-path:url(#SVGID_4_);fill:#D3987A;">
	<!ENTITY st3 "clip-path:url(#SVGID_4_);fill:#3A3A44;">
	<!ENTITY st4 "opacity:0.3;clip-path:url(#SVGID_4_);">
	<!ENTITY st5 "filter:url(#Adobe_OpacityMaskFilter);">
	<!ENTITY st6 "clip-path:url(#SVGID_8_);fill:#FFFFFF;">
	<!ENTITY st7 "clip-path:url(#SVGID_4_);fill:#A94A3C;">
	<!ENTITY st8 "enable-background:new    ;">
	<!ENTITY st9 "clip-path:url(#SVGID_37_);fill:none;stroke:#000000;stroke-width:0.5;stroke-miterlimit:10;">
	<!ENTITY st10 "clip-path:url(#SVGID_4_);fill:#AA4A3C;">
	<!ENTITY st11 "clip-path:url(#SVGID_4_);fill:#AD4F40;">
	<!ENTITY st12 "clip-path:url(#SVGID_4_);fill-rule:evenodd;clip-rule:evenodd;fill:#4B555C;">
	<!ENTITY st13 "clip-path:url(#SVGID_20_);fill:#FFFFFF;">
	<!ENTITY st14 "clip-path:url(#SVGID_39_);fill:none;stroke:#000000;stroke-width:0.5;stroke-miterlimit:10;">
	<!ENTITY st15 "clip-path:url(#SVGID_12_);fill:none;stroke:#000000;stroke-width:2;stroke-miterlimit:10;">
	<!ENTITY st16 "clip-path:url(#SVGID_27_);fill:#FFFFFF;">
	<!ENTITY st17 "clip-path:url(#SVGID_4_);fill:#E8AA85;">
	<!ENTITY st18 "clip-path:url(#SVGID_2_);">
	<!ENTITY st19 "clip-path:url(#SVGID_4_);">
	<!ENTITY st20 "opacity:0.15;clip-path:url(#SVGID_4_);">
	<!ENTITY st21 "clip-path:url(#SVGID_4_);mask:url(#SVGID_21_);">
	<!ENTITY st22 "clip-path:url(#SVGID_4_);fill:#B3C2C4;">
	<!ENTITY st23 "clip-path:url(#SVGID_4_);fill:none;stroke:#FFFFFF;stroke-width:1.036;stroke-miterlimit:10;">
	<!ENTITY st24 "clip-path:url(#SVGID_4_);fill:#893931;">
	<!ENTITY st25 "clip-path:url(#SVGID_4_);fill:#EFF6F6;">
	<!ENTITY st26 "clip-path:url(#SVGID_4_);fill:#525D66;">
	<!ENTITY st27 "clip-path:url(#SVGID_29_);fill:#FFFFFF;">
	<!ENTITY st28 "clip-path:url(#SVGID_4_);fill:#575667;">
	<!ENTITY st29 "clip-path:url(#SVGID_4_);fill:#231F20;">
	<!ENTITY st30 "clip-path:url(#SVGID_4_);fill:#F2D3A5;">
	<!ENTITY st31 "clip-path:url(#SVGID_4_);fill:#F3E764;">
	<!ENTITY st32 "clip-path:url(#SVGID_4_);fill:#F4F4F4;">
	<!ENTITY st33 "clip-path:url(#SVGID_25_);fill:#E8AA85;">
	<!ENTITY st34 "clip-path:url(#SVGID_4_);fill:#FF4775;">
	<!ENTITY st35 "clip-path:url(#SVGID_4_);fill:#FFECD3;">
	<!ENTITY st36 "clip-path:url(#SVGID_4_);fill:#FFFFFF;">
	<!ENTITY st37 "clip-path:url(#SVGID_10_);">
	<!ENTITY st38 "clip-path:url(#SVGID_14_);">
	<!ENTITY st39 "clip-path:url(#SVGID_16_);">
	<!ENTITY st40 "clip-path:url(#SVGID_18_);">
	<!ENTITY st41 "clip-path:url(#SVGID_23_);">
	<!ENTITY st42 "clip-path:url(#SVGID_31_);">
	<!ENTITY st43 "clip-path:url(#SVGID_33_);">
	<!ENTITY st44 "clip-path:url(#SVGID_35_);">
	<!ENTITY st45 "clip-path:url(#SVGID_4_);fill:#313E3F;">
	<!ENTITY st46 "opacity:0.1;clip-path:url(#SVGID_4_);">
]>
<svg version="1.1" id="Слой_1" xmlns="http://www.w3.org/2000/svg" xmlns:xlink="http://www.w3.org/1999/xlink" x="0px" y="0px"
	 width="537.3px" height="428.4px" viewBox="0 0 537.3 428.4" style="enable-background:new 0 0 537.3 428.4;" xml:space="preserve"
	>
<g>
	<defs>
		<rect id="SVGID_1_" width="537.3" height="428.4"/>
	</defs>
	<clipPath id="SVGID_2_">
		<use xlink:href="#SVGID_1_"  style="overflow:visible;"/>
	</clipPath>
	<g style="&st18;">
		<defs>
			<rect id="SVGID_3_" width="537.3" height="428.4"/>
		</defs>
		<clipPath id="SVGID_4_">
			<use xlink:href="#SVGID_3_"  style="overflow:visible;"/>
		</clipPath>
		<path style="&st12;" d="M537.3,424.7c0-1.9-32.2-3.5-59.5-3.7v0h-222c-0.1,0-0.2,0-0.2,0c-28.6,0-60.7,1.7-60.7,3.7
			c0,2.1,32.1,3.7,60.7,3.7c0.1,0,0.2,0,0.2,0h222v0C505.1,428.2,537.3,426.6,537.3,424.7"/>
		<path style="&st2;" d="M403.5,291c-0.3-0.5-0.9-0.6-1.4-0.5c0.6-0.3,1.1-0.6,1.3-1.2c0.2-0.6,0.3-1.4-0.4-1.7
			c-1.1-0.6-2.1,0.1-3.2,0.6c0.2-0.3,0.6-0.6,0.8-0.9c0.1-0.1,0.2-0.3,0.2-0.4c0.3-0.1,0.5-0.3,0.7-0.5c0.7-0.9-0.2-2.3-1.4-2.5
			c-1.2-0.2-2.4,0.4-3.4,1c-1.8,1.1-3.6,2.3-5.3,3.6c-0.2,0.1-0.4,0.3-0.6,0.5c-1.1-0.6-2.5-0.7-3.8,0.2c-1.4,1-2.3,1.3-3,2.9
			c-0.7,1.6-1.8,3.4-2.1,5.1c-0.5,2.9-0.8,5.9,0.3,8.7c1.1,3,5,4.1,7.9,2.8c1.4-0.6,2.4-1.7,3.3-2.8c0.3-0.4,0.8-1.4,1.4-1.9
			c0.4-0.1,0.7-0.2,1.1-0.4c0.2-0.1,0.3-0.1,0.5-0.2c1.5-0.6,3-1.3,4.3-2.2c0.9-0.6,1.8-1.2,2.2-2.1c1-0.8,1.6-2.4,0.7-3.3
			c-0.3-0.5-1-0.7-1.5-0.4c-0.7,0.3-1.1,1.1-1.7,1.5c-0.1,0-0.2,0.1-0.4,0.1c-1,0.2-1.6-1-1.3-1.9C400.3,294.4,405,293.2,403.5,291"
			/>
		<path style="&st24;" d="M393.1,291.3c-0.1-1.2-0.6-2.5-1.2-3.9c-1-2.2-2.4-4-4-5.8c-1.6-1.8-2.8-4-4.2-6c-0.1-0.7-0.5-1.2-0.9-1.8
			c-4.1-5.5-8.3-10.9-12.6-16.2c-2.6-3.2-5.6-6.6-9.5-7.5c-1.6-0.4-3.2-0.3-4.8,0c-0.9,0.1-1.8,0.3-2.7,0.5
			c-4.9-0.5-10,0.6-14.7,1.7c-3.6,0.8-9.7,1.6-10.6,6.3c-0.4,2.3,0.3,3.9,1.6,5c-2.5,3.8-3.3,8.9-6.1,12.5c0.5-0.8,1.7-0.2,2.3,0.5
			c2,2.2,3.3,5.2,3.6,8.2c0.1,1.2,0.1,2.4,0.5,3.5c0.3,0.8,0.8,1.5,1.3,2.2c1.2,1.6,2.5,3.3,4.2,4.4c1.5,0.9,3.1,1.4,4.8,1.6
			c5.4,0.8,10.9,0,16-1.9c2.2-0.8,4.3-1.7,6.3-2.8c0.2,1.8,1.2,3.3,3.4,3.8c4,0.8,7.6,3.1,11.5,4.4c2.2,0.7,4.3,0.7,6.3,0.3
			c0-0.1-0.1-0.2-0.1-0.3c-0.7-1.8-1.5-3.7-2.7-5.2c1.5,1.6,3,3,4.7,4.3c0-2.1-0.7-4.2-2-5.8c1.1,0.1,1.8,1.2,2.4,2.2
			s1.6,1.9,2.7,1.6c0.2-0.6,0.3-1.3,0.3-2c-0.3-0.4-0.5-1-0.4-1.6c0.2,0.5,0.3,1,0.4,1.6c0.2,0.2,0.4,0.4,0.6,0.5
			c0.1-1.5-0.3-3-1.1-4.3c-0.3-0.3-0.7-0.7-0.9-1.1c0.4,0.3,0.7,0.7,0.9,1.1c0.7,0.7,1.6,1.3,2.5,1.6c-0.7-1.9-1.7-3.7-2.9-5.4
			c1.5,1.2,3,2.4,4.5,3.6C393,291.2,393,291.2,393.1,291.3"/>
		<path style="&st24;" d="M414.2,219c-2.6-10.8-11.3-13.7-20.5-13c-10.2,0.7-22.8,8.4-33.1,8.6c-0.8,0-3.3,0.1-5-0.3
			c0-0.1,0.1-0.1,0.1-0.2c2.3-8,0.5-30.3-15-29.7c-2.5,0.1-4,1.8-4.5,3.7c-0.5,0.7-0.8,1.6-0.8,2.8c-0.1,5.3,11.7,11,12.6,16.5
			c-0.3,2.8-1.1,5.4-0.6,8.5c1.2,7.3,10.3,8.1,16,8.4c9.2,0.4,18.2-7,27.3-8.2c0.4,1.3,1.4,2.5,3.2,2.9c7.5,2,7.9,6.3,15.8,6.2
			C412.7,225,414.9,222,414.2,219"/>
		<path style="&st2;" d="M414.2,219c-2.6-10.8-11.3-13.7-20.5-13c-4.3,0.3-9.1,1.9-13.9,3.6c0.1,3.4-0.2,6.8-0.7,10.2
			c3.9-1.7,7.7-3.3,11.5-3.8c0.4,1.3,1.4,2.5,3.2,2.9c7.5,2,7.9,6.3,15.8,6.2C412.7,225,414.9,222,414.2,219"/>
		<path style="&st2;" d="M403,308.3c-0.9,0.6-0.7,1.9-1,2.9c-0.3,1.2-1.3,2.1-2.4,2.6s-2.3,0.7-3.6,0.8c-1.9,0.1-3.9,0.1-5.8-0.2
			c-0.4-0.7-0.6-1.5-0.4-2.3c1.1-0.1,2-0.8,2.7-1.7c0.7-0.9,1.1-1.9,1.8-2.8c1.2-1.7,3-2.9,5-3.3s4.2-0.1,6,0.8
			c0.2,1.1-0.4,2.2-1.4,2.7C403.6,308,403.2,308.1,403,308.3"/>
		<path style="&st17;" d="M370.6,341.2c0.6,0.1,1.2,0.1,1.9,0.1c3.9-0.2,8.1-0.9,10.8-3.7c0.9-1,1.6-2.1,2.4-3.2
			c5.1-7.2,14.1-11,22.9-11.6c1.6-0.1,3.3-0.2,4.6-1.1c1.1-0.8,1.6-2.4,1.1-3.5c-0.1-0.1-0.2-0.2-0.3-0.3c-0.2-0.1-0.5-0.2-0.6-0.4
			c-0.3-0.3-0.1-0.9,0.2-1.2c0.3-0.3,0.7-0.5,1.1-0.8c0.7-0.6,1-1.6,0.8-2.5c-0.3-0.9-1.1-1.6-2-1.7c0.3-0.4,0.7-0.9,0.7-1.4
			c0-0.7-0.7-1.2-1.4-1.5c0,0,0,0,0,0c-5.7-1.7-12.9,5.3-18.5,2.3c-0.1-0.6-1.3-0.8-0.8-1.2c-1.5-0.6-3.5,0.3-5.4,1.6
			c-0.8-0.1-1.9-1.6-2.3-2.1c-2.8-3.6-8-0.3-8.2,3.4c-0.1,2.4-3.2,3.9-5.1,4.5c-1.7,0.5-3.2,1-4.7,1.7c-2.6-1.4-6.5-0.4-7.2,2.5
			c-1.1,2.1-1,4.9,1.4,6.6l-0.3,0.2C361.8,333.4,365.5,338.7,370.6,341.2"/>
		<path style="&st31;" d="M135.4,291.4c0,4.1,3.2,8.1,7.2,9.1l71,16.9c3.9,0.9,10.3,0.6,14.1-0.8l42.6-15.3c3.8-1.4,6.9-5.8,6.9-9.9
			V254c0-4.1-3.3-7.4-7.4-7.4H142.8c-4.1,0-7.4,3.3-7.4,7.4V291.4z"/>
		<rect x="177.6" y="377.5" style="&st26;" width="23.6" height="16"/>
		<path style="&st25;" d="M161.7,385.1l-53.9-10.4c0.1-0.7,0.1-1.4,0.1-2.2c0-14.5-11.8-26.3-26.3-26.3c-1.5,0-3,0.2-4.4,0.4
			c-4.9-10-15.1-16.9-27-16.9c-15,0-27.5,11.1-29.6,25.5C9.1,355.5,0,364.7,0,376.2c0,11.6,9.4,21,21,21c3.7,0,7.2-1,10.2-2.6
			c2.5,5.8,8.2,9.9,14.9,9.9c6.3,0,11.7-3.6,14.4-8.8c3.7,6.1,10.4,10.2,18,10.2c8.3,0,15.5-4.9,18.9-11.9L161.7,385.1z"/>
		<polygon style="&st32;" points="79.9,256.7 212.7,246 206.1,224.9 73.3,235.6 		"/>
		<polygon style="&st32;" points="46.2,228.7 179.4,224.9 173.9,203.5 40.7,207.3 		"/>
		<polygon style="&st32;" points="50.6,204.2 183.6,197.8 177.7,176.5 44.7,183 		"/>
		<path style="&st45;" d="M452,386.8c0,21.3,17.2,38.5,38.5,38.5c21.3,0,38.5-17.2,38.5-38.5c0-21.3-17.3-38.5-38.5-38.5
			C469.3,348.3,452,365.6,452,386.8 M468.9,386.8c0-12,9.7-21.7,21.7-21.7c12,0,21.7,9.7,21.7,21.7c0,12-9.7,21.7-21.7,21.7
			C478.6,408.5,468.9,398.8,468.9,386.8"/>
		<path style="&st45;" d="M209.6,386.8c0,21.3,17.3,38.5,38.5,38.5c21.3,0,38.5-17.2,38.5-38.5c0-21.3-17.2-38.5-38.5-38.5
			C226.8,348.3,209.6,365.6,209.6,386.8 M226.4,386.8c0-12,9.7-21.7,21.7-21.7c12,0,21.7,9.7,21.7,21.7c0,12-9.7,21.7-21.7,21.7
			C236.1,408.5,226.4,398.8,226.4,386.8"/>
		<path style="&st22;" d="M490.5,408.5c12,0,21.7-9.7,21.7-21.7s-9.7-21.7-21.7-21.7c-12,0-21.7,9.7-21.7,21.7
			S478.6,408.5,490.5,408.5"/>
		<path style="&st22;" d="M248.1,408.5c12,0,21.7-9.7,21.7-21.7s-9.7-21.7-21.7-21.7c-12,0-21.7,9.7-21.7,21.7
			S236.1,408.5,248.1,408.5"/>
		<path style="&st31;" d="M453.1,393.7h-23.5c0-19.5,12-28.6,26.5-38.6c8.2-5.6,15.2-17.3,26.2-17.4c22.8-0.2,38.4,7.2,47.6,18.8
			L453.1,393.7z"/>
		<path style="&st31;" d="M451.9,248.5c-10.5-23.6-25.7-3.4-25.7-3.4s22.2,93.1,19.9,103.8c-5.9,27.6-45.7,34-62.3,34
			c-19.6,0-39.6-5.5-46.3-32.5c-5.1-20.4,9.1-30.4,16.3-34.1c2.3-1.2,0.8-2.4,0.8-2.4s-23.2-16.9-49.5-19.6
			c-26.3-2.7-74.3-3.4-96.6,26.3c-22.9,30.6-10.1,72.9-10.1,72.9h249.1c0,0-1.4-4.1,15.7-13.4c28.9-15.8,49.4-33.5,49.4-33.5
			S490.1,334.2,451.9,248.5"/>
		<g style="&st19;">
			<g>
				<defs>
					<rect id="SVGID_5_" x="474.8" y="346.9" width="48.5" height="14.8"/>
				</defs>
				<clipPath id="SVGID_6_">
					<use xlink:href="#SVGID_5_"  style="overflow:visible;"/>
				</clipPath>
				<path style="&st0;" d="M519.3,361.7c-2.1-2.3-4.7-4.6-7.7-6.7c-16.7-11.6-36.8-1.2-36.8-1.2s21.4-14.5,40.3-1.5
					c3.4,2.3,6.1,4.8,8.3,7.4L519.3,361.7z"/>
			</g>
		</g>
		<path style="&st35;" d="M479.2,235.6c0-10.1-8.2-18.2-18.2-18.2c-10.1,0-18.2,8.2-18.2,18.2c0,10.1,8.2,18.2,18.2,18.2
			C471,253.8,479.2,245.6,479.2,235.6"/>
		<g style="&st19;">
			<g>
				<defs>
					<rect id="SVGID_7_" x="242.5" y="319.9" width="72.3" height="70"/>
				</defs>
				<clipPath id="SVGID_8_">
					<use xlink:href="#SVGID_7_"  style="overflow:visible;"/>
				</clipPath>
				<path style="&st6;" d="M242.5,330.7c0,0,33.2-22.7,61.9-2.2c12.7,9.1,12.5,29.6,6,43.4c-5.1,10.8-12.5,18-12.5,18
					s24-39.4-2.2-57.4C269.9,314.8,242.5,330.7,242.5,330.7"/>
			</g>
		</g>
		<path style="&st26;" d="M350.7,317.8c0,0-5.1-4.1-22.6-11.7c-13.3-5.8-28.6-8.5-40.9-9.7c-17.8-1.8-24.4,0.6-25.8-1.3
			c-1.1-1.5-4.8-9.4,7.8-17.1c15.6-9.6,31.3-3.2,49.5,5.6c14.6,7.1,18.8,8.6,29.8,15.1c7.3,4.4,10.2,6.8,9.6,11.6
			C357.5,314.2,355.6,317,350.7,317.8"/>
		<path style="&st31;" d="M402.4,221.2c0,0,6.4,6.6,10.3,7.5c6.1,1.4,8.9-2.8,8.9-2.8l-2.4,13.7c0,0-3.3-4.9-7-5.5
			c-3.7-0.6-10.7,5-9.7,3.4C406.9,229.6,402.4,221.2,402.4,221.2"/>
		<g style="&st46;">
			<g>
				<defs>
					<rect id="SVGID_9_" x="426.2" y="237" width="32" height="25.3"/>
				</defs>
				<clipPath id="SVGID_10_">
					<use xlink:href="#SVGID_9_"  style="overflow:visible;"/>
				</clipPath>
				<path style="&st37;" d="M456.7,259.2c-1.6-3.4-3.2-7-4.9-10.7c-3.9-8.7-8.4-11.4-12.5-11.4c-7.1,0-13.2,8.1-13.2,8.1
					s0.8,3.4,2.1,8.9c5.5,2.7,13,4.2,21.6,4.9c0,0,0.1,0,0.1,0v2.8c0,0,5.6,0.9,8.2,0.5L456.7,259.2z"/>
			</g>
		</g>
		<rect x="451.1" y="213.5" style="&st31;" width="12.9" height="44.1"/>
		<path style="&st31;" d="M463.6,255.3c-25.1,0-45.4-4.3-45.4-19.7c0-16.3,20.3-19.7,45.4-19.7V255.3z"/>
		<g style="&st46;">
			<g>
				<defs>
					<rect id="SVGID_11_" x="210.8" y="294.1" width="50.6" height="23.4"/>
				</defs>
				<clipPath id="SVGID_12_">
					<use xlink:href="#SVGID_11_"  style="overflow:visible;"/>
				</clipPath>
				<path style="&st15;" d="M211.6,316.9c0,0,14.9-20.8,49.8-21.8"/>
			</g>
		</g>
		<g style="&st20;">
			<g>
				<defs>
					<rect id="SVGID_13_" x="210.2" y="393.7" width="75.8" height="6.9"/>
				</defs>
				<clipPath id="SVGID_14_">
					<use xlink:href="#SVGID_13_"  style="overflow:visible;"/>
				</clipPath>
				<path style="&st38;" d="M212.1,400.7H284c0.9-2.2,1.5-4.5,1.9-6.9h-75.8C210.6,396.1,211.3,398.4,212.1,400.7"/>
			</g>
		</g>
		<g style="&st20;">
			<g>
				<defs>
					<rect id="SVGID_15_" x="453.1" y="361.7" width="74.5" height="32.6"/>
				</defs>
				<clipPath id="SVGID_16_">
					<use xlink:href="#SVGID_15_"  style="overflow:visible;"/>
				</clipPath>
				<path style="&st39;" d="M453.1,393.7l74.5-17.1c0,0-3-10.9-8.4-14.9l-66.1,32.6"/>
			</g>
		</g>
		<path style="&st7;" d="M333.2,57.5c-6.6-10.4-16.7-15.2-28.4-17.4c-4.6-0.2-9,0.6-13.4,1.9c-12.9,3.8-23.1,11.4-30.9,22.3
			c-0.8,0.2-1.4,0.7-1.9,1.4c-4.1,6.6-7.1,13.5-7.6,21.4c0.3,0.8,0.8,1.5,1.5,1.8c3.9,1.6,3.6,4.5,2.8,8c-1,4.1-1.7,8.4-1.6,12.7
			c0.1,4.2,0.8,8.4-4,10.7c0,0,0,0.3,0,0.4c2.4,7,5.8,13.4,10.7,19c0.7,0.8,1.7,1.4,1.4,2.6c1.3,0.1,2.1,1.1,3,1.7
			c3.2,2.1,6.1,4.8,10,5.6c-0.2-0.8-0.2-1.6-0.5-2.3c-4-11.8-5.3-24-5.1-36.3c0-2-0.4-4.5,1.7-5.4c4.2-1.8,7.9-4.7,12.6-5.1
			c0.3-1,0-1.8-0.4-2.6c1-1.5,1.5-3,1.2-4.5c0.8-0.2,1.6-0.6,2.3-1.5c2.6-3.1,5.7-9.6,9.6-12.5c-0.1,1.1-0.2,2.2-0.1,3.1
			c0.4,3.9,5.9,6.8,8.4,3.3c1.1,0.3,2.3,0.2,3.4-0.2c2.4,2.2,7.5,1.9,8.2-2c0-0.3,0.1-0.5,0.1-0.8c2.5,1.8,6.5,1.5,7.4-2.4
			c1-4.9,2.4-9.3,5-13.7c0.3-0.6,0.5-1.2,0.6-1.8c0.4-0.1,0.9-0.1,1.3-0.2c1.4-0.2,3-0.1,4-1.5C335.5,60.9,334.3,59.2,333.2,57.5"/>
		<path style="&st10;" d="M330.8,255.6c12.2-8.5,25.8-19.6,40-18.6c0.6-3.9,1.2-7.8,1.8-11.8c0.6-3.8,2.4-8.5,2.7-12.7
			c-6.4-2-13.4-2.7-20-2.5c-0.3,0-0.5,0-0.7,0c-0.1,0-0.3,0.1-0.4,0.1c-2.6,0.5-5.8,0.8-7.4-1.3c-1.3-1.7-0.8-4.1-0.5-6.3
			c1.7-11.7-4.7-23.3-13.3-31.3s-19.4-13.3-29.7-19.1c-9-5.1-17.9-10.8-28-13.3c-10-2.5-21.8-1.3-29.1,6c-8.4,8.3-8.7,22.2-4.5,33.3
			c4.1,10.8,11.7,19.8,19.1,28.6c11.8,14,23.8,28.1,38.3,39.4c6.4,5,13.5,9.5,21.5,10.2C324,256.7,327.4,256.4,330.8,255.6"/>
		<path style="&st17;" d="M386.3,228.3c-2.8-0.1-5.6-0.2-8.4-0.2c-1.1,0-2.2-0.1-3-0.8c-0.5-0.5-0.8-1.3-1-2c-0.5-1.8-1.1-3.7-1-5.6
			c0-1.9,0.7-3.9,2.2-5.1c1.3-1,3-1.3,4.7-1.6c5.9-0.9,12.1-1.9,17.7,0.3c2.1,0.8,4,2,5.7,3.3c1.2,0.9,2.4,2,3,3.4
			c0.5,1.3,0.6,2.7,0.6,4c0,2.7,0,5.4-0.7,8c-1.2,4.3-4.3,8-8.3,9.8c-4,1.8-8.9,1.8-12.9-0.2c-2.6-1.3-4.9-3.6-5.5-6.5
			c0.6-1,2-1.2,3.2-1s2.2,0.8,3.4,1c1.6,0.2,3.4-0.8,4-2.3c0.6-1.5-0.1-3.5-1.6-4.2C387.7,228.4,387,228.4,386.3,228.3"/>
		<path style="&st10;" d="M361.3,228.5c-0.3-1.3,0.3-2.6,1.1-3.6c0.8-1,1.8-1.9,2.6-3c1.2-1.8,1.5-4,0.9-6.1
			c1.4-2.2,4.2-2.9,6.8-3.3c2.5-0.3,5.1-0.5,7.6-0.4c-1.2,1.6-2.8,2.7-4.7,3.3c1.4,0.4,2.8,0.5,4.2,0.4c0.3,0.1,0.4,0.5,0.3,0.8
			c-0.2,0.3-0.5,0.5-0.8,0.6c-1.4,0.6-2.8,1.3-4.2,1.9c1.9,0.8,4,1,6.1,0.7c-2.1,2.1-4.4,4-6.8,5.8c2,0.7,4.2,0.7,6.2-0.1
			c-2.8,0.5-5.1,3.3-4.9,6.1c0.4-0.3,0.9,0.3,1,0.8c0.6,2.1,0.6,4.3,0.2,6.4c-0.5-1.5-2.4-2-4-2.1s-3.3,0.2-4.7-0.6
			c-1.4-0.8-2-2.4-3.1-3.5C363.9,231.3,361.8,230.4,361.3,228.5"/>
		<path style="&st30;" d="M334.1,208.4c-1.3,1.5-1.8,3.6-1.3,5.5c2.8,0.6,5.7,1,8.6,1.3c1.2,0.1,2.6,0.1,3.3-0.9
			c0.3-0.4,0.2-2,0.7-2.3c3.5-2.6,5.9-5.3,1.7-19.7c-0.4-1.4,0-0.4-0.6-1.7c-0.8-1.6-2.7-2.5-4.5-3c-5.1-1.5-10.9-1-15.4,2
			c-4.4,3-7.2,8.6-6.1,13.8c3.6-0.4,7.3-0.7,10.9-1.1c-1.9,1.4-3.1,3.7-3.3,6.1C330.1,208.4,332.1,208.4,334.1,208.4"/>
		<path style="&st10;" d="M337.8,253.2c0.3,0,0.4,0.4,0.3,0.7c-0.1,0.3-0.4,0.4-0.7,0.5c-4.6,1.8-9.8,0.3-14.8-0.1
			c-4.6-0.4-9.2,0.1-13.5,1.6l0.5,2.8c0.1,0.3,0.1,0.7,0.4,0.9c0.5,0.4,1.3,0,1.8-0.4c2.3-1.7,5.1-2.9,7.9-3.4
			c-1,2.4-4.8,3.3-4.6,5.9c3.3-2.2,6.7-4.3,10.3-6c-0.4,2-3.6,2.8-3.3,4.8c1.9-2,4.4-3.3,7.1-3.8c3.1-0.6,3.1,2.1,5.4,2.4
			c0.6,0.1,4.2-1.8,4.7-2.3c2-2.1,2.3-7.6,2.7-10.4c1.1-9.3-3.7-19.1-10.8-24.9c-6.8-5.5-13.7-11-21.1-15.7
			c-8.6-5.4-18.1-9.8-25-17.2c-4.5-4.8-7.7-10.6-10.9-16.4c-5.1-9.3-10.2-18.6-15.3-27.9c-1.2-2.1-2.9-4.5-5.3-4.2
			c-0.8,0.1-1.5,0.6-2.2,1c-9.2,6.2-15.3,16.2-18.6,26.8c-3.3,10.6-4.1,21.7-4.7,32.8c-0.4,8.5-0.7,17.1-0.8,25.6
			c-0.1,7.2-0.1,14.5,1.5,21.5c2.5,11,8.7,20.7,14.9,30.2c3.2,4.9,6.8,10.1,12.3,12c6,2,12.6-0.7,17.7-4.3
			c5.1-3.7,9.5-8.4,14.9-11.6c8.3-4.8,18.2-5.4,27.6-6.7c6.9-1,3.5-8.5,9.5-4.9c3.8,2.3,9.9-3.1,13.5-9"/>
		<path style="&st30;" d="M340.3,252c-0.9,0.7-2.1,0.7-3.4,0.7c-2.8,0.6-5.5,1.4-8.2,2.3c0.6-0.3,1.2-0.6,1.8-1
			c-0.9,0.5-1.8,0.8-2.8,1.1c-1.6,0.9-1.6,2-2.5,3.7c-0.2,0.5-0.7,0.9-1.3,1.2c4.3,0.3,8.6,0.3,12.5-1.2c0.8-0.3,1.6-0.7,2.2-1.3
			c0.5-0.5,0.8-1.1,1.1-1.7c0.8-1.5,1.9-2.9,3.3-4.2C341.9,251.7,341.1,251.8,340.3,252"/>
		<path style="&st10;" d="M367.4,331c-0.7-2.5-1.3-5-2-7.5c2.9,2.9,6.3,5.3,10.1,7c-0.1-3.2-1-6.4-2.8-9.1c2.9,2.2,5.9,4.3,9,6.4
			c0.3-0.2,0.5-0.4,0.8-0.6c0-3.4-1.2-6.8-3.3-9.5c2.7,1.7,5.3,3.4,8,5.1c0.1-0.1,0.1-0.2,0.2-0.3c-1.3-2.7-2.6-5.3-3.9-8
			c1.7,2,3.8,3.7,6.1,5c0.1-0.1,0.2-0.3,0.3-0.4c-2-2.9-4-5.8-6-8.6c2.9,1.5,5.9,2.6,9,3.4c0,0,0,0,0-0.1c-0.6-0.8-1.2-1.7-1.8-2.4
			c-0.7-0.6-1.3-1.3-1.8-2c0.7,0.6,1.3,1.3,1.8,2c0.6,0.5,1.2,0.9,1.8,1.3c-1.8-2.9-3.1-6.1-3.8-9.5c-1-0.8-1.8-1.7-2-2.7
			c-0.6-3-2.5-5.5-4.4-7.9c-11.6-14.9-21.9-32.8-40.7-35c-8.8-1-11.4,1.8-20,4c-6,1.5-12.1,3.1-18.1,4.6c-2.7,0.7-5.7,1.5-7.3,3.8
			c-3.5,4.9,1.5,11.2,6.1,15c17,14.2,34.6,27.8,52.7,40.7c3.1,2.2,6.3,4.4,10,5.4c0.7,0.2,1.5,0.3,2.2,0.4
			C367.5,331.5,367.4,331.2,367.4,331"/>
		<path style="&st10;" d="M256.2,268c0,0,7.5,22,8.5,21s11.7-27.9,48.3,3.9c36.6,31.8,8-31.1,7.3-31.1c-0.7,0-62.9,6.2-62.9,6.2"/>
		<path style="&st10;" d="M268.5,274.6l-4.3,16c0,0-55.6,3.7-36.4-74.1"/>
		<path style="&st10;" d="M249.2,145.1c-9.8,3.1-17.9,10.9-21.4,20.6l9.1-5.2c-8.2,10.1-12.9,23-12.9,36c1.8-4.5,5.9-8,10.5-9.2
			c-9.8,9.1-15.2,22.8-14.4,36.1c3.2-3.6,6.8-6.9,10.6-9.7c-8.2,9.3-12.3,22.1-11.2,34.4c3-2.5,6.1-4.9,9.1-7.4
			c-2.1,6.7-1.8,14.2,0.8,20.7c4.8-6.4,9.7-12.9,14.5-19.3c2.2-2.9,4.4-5.9,5.4-9.3c1.1-3.8,0.7-7.9,0.3-11.8
			c-1.5-18.1-0.4-36.4,3.1-54.2c1-5.1,2.2-10.7,0.1-15.5C250.8,146.5,252.7,141.1,249.2,145.1"/>
		<g style="&st20;">
			<g>
				<defs>
					<rect id="SVGID_17_" x="252.9" y="188.3" width="88.2" height="76.9"/>
				</defs>
				<clipPath id="SVGID_18_">
					<use xlink:href="#SVGID_17_"  style="overflow:visible;"/>
				</clipPath>
				<path style="&st40;" d="M325.5,257.6c2.8-3.4,7.4-5.2,11.7-4.6c1.7,0.2,4.5-0.2,3.9-1.9c-5.1,2.1-10.8-2.7-16.1-1.6
					c-1.9,0.4-3.6,1.6-5.4,2.2c-5.2,1.9-11-0.1-15.6-3c-4.7-2.9-8.8-6.7-13.9-8.9c-1.8-0.8-3.8-1.4-4.9-3c-2.2-3.3,0.6-8.8-2.5-11.3
					c-0.9-0.7-2-1-3.1-1.3c-5.8-2-9.4-7.6-12.6-12.8c-4.7-7.7-9.3-15.4-14-23.1c0.4,8.8,4.6,17.4,11.3,23.2
					c-0.4-1.6,0.1-3.4,1.3-4.6c-1.1,5.4,0.5,11,3.3,15.7c2.7,4.7,6.6,8.7,10.4,12.7c-0.6-1-0.5-2.2,0.1-3.2
					c0.7,8.6,4.8,16.8,11.3,22.5c1-1.6,2-3.1,3-4.7c0.9,2.8,3.1,5.1,5.8,6.1c0.2-1.4,0.5-2.7,0.7-4.1c4.6,6.5,11.6,11.3,19.3,13.3
					c-0.7-2.6-0.4-5.3,0.6-7.7c0.6,2,2.6,3.5,4.6,3.5C324.3,259.8,324.7,258.5,325.5,257.6"/>
			</g>
		</g>
		<path style="&st29;" d="M399.5,230.1c0-4.7-3.8-8.6-8.6-8.6c-4.7,0-8.6,3.8-8.6,8.6c0,4.7,3.8,8.6,8.6,8.6
			C395.6,238.7,399.5,234.8,399.5,230.1"/>
		<path style="&st7;" d="M230.7,73.8c0.2,1.2,0.4,2.2,1.7,2.9c6.5,3.3,12.6,7.3,19.4,10.2c6.1,4.2,5.9,4.2,4.6,11.7
			c-1,5.5-1.9,11-0.8,16.6c0.4,2,0,3.3-2.3,3.8c-1.1,0.3-2.4,0.3-3.2,1.4c-3.6-0.1-7.2,0.2-10.7-0.4c-12-1.9-18.2-10.1-21.1-21
			c-2.3-8.8-1.3-17.5,1.9-26c0.8-2.2,1.7-2.3,3.5-1.2c1.5,0.9,3.1,1.6,4.5,2.6C229.3,75.3,230,74.8,230.7,73.8"/>
		<path style="&st28;" d="M350.6,77.8c0-10.1-6.3-18.2-14.2-18.2c-7.8,0-14.2,8.2-14.2,18.2s6.3,18.2,14.2,18.2
			C344.3,96.1,350.6,87.9,350.6,77.8"/>
		<path style="&st3;" d="M336.5,97.4c-8.6,0-15.5-8.8-15.5-19.6c0-10.8,7-19.6,15.5-19.6c8.6,0,15.5,8.8,15.5,19.6
			C352,88.6,345,97.4,336.5,97.4 M336.5,61c-7.1,0-12.8,7.6-12.8,16.9s5.7,16.9,12.8,16.9c7.1,0,12.8-7.6,12.8-16.9
			S343.5,61,336.5,61"/>
		<g style="&st4;">
			<g>
				<defs>
					<rect id="SVGID_19_" x="326.8" y="60.8" width="22.1" height="28.6"/>
				</defs>
				<clipPath id="SVGID_20_">
					<use xlink:href="#SVGID_19_"  style="overflow:visible;"/>
				</clipPath>
				<path style="&st13;" d="M336.9,60.8c-0.1,0-0.3,0.8-0.4,0.8l-9.7,21.5c1.8,3.1,4.5,5.4,7.8,6.1l10.7-23.6
					C343.1,63.1,340.1,60.8,336.9,60.8"/>
				<path style="&st13;" d="M347.1,68.3l-9.6,21.1c1.9-0.1,3.7-0.8,5.2-1.8l6-13.4C348.7,72.1,348.1,70.1,347.1,68.3"/>
			</g>
		</g>
		<defs>
			<filter id="Adobe_OpacityMaskFilter" filterUnits="userSpaceOnUse" x="268.2" y="77.3" width="152" height="114.4">
				<feFlood  style="flood-color:white;flood-opacity:1" result="back"/>
				<feBlend  in="SourceGraphic" in2="back" mode="normal"/>
			</filter>
		</defs>
		<mask maskUnits="userSpaceOnUse" x="268.2" y="77.3" width="152" height="114.4" id="SVGID_21_">
			<g style="&st5;">
				<g>
					<defs>
						<rect id="SVGID_22_" x="250.1" y="77.7" width="176.2" height="119.2"/>
					</defs>
					<clipPath id="SVGID_23_" style="&st19;">
						<use xlink:href="#SVGID_22_"  style="overflow:visible;"/>
					</clipPath>
					<g style="&st8;">
						<path style="&st41;" d="M418.7,118.5c-0.1-0.2-0.3-0.3-0.4-0.5c0.7-3.1,0.9-6.3,0.4-9.3c-0.6-3.7-5.2-4.3-7.7-2.4
							c1-1.9,0.5-4.8-1.3-6.4c-0.3-1.2-0.8-2.5-1.3-3.7c-1-2.3-4.6-3.1-6.6-1.7c-1.9,1.2-3,2.6-3.5,4c-0.1,0-0.1,0.1-0.2,0.2
							c0-0.2-0.1-0.5-0.1-0.7c-0.5-4.2-5.2-5.5-7.8-4c0-0.1-0.1-0.2-0.1-0.3c-1.4-3.1-4.5-3-6.6-1.4c-1.2-1.3-3-1.8-4.7-1.7
							c-0.3-1.8-0.6-3.6-1-5.4c-1-5.1-7.7-4.1-9.1-0.1c-0.6-0.5-1.1-1.1-1.7-1.6c-1.5-1.2-3.4-1.7-5-1.1c-0.7-0.5-1.6-0.8-2.5-0.9
							c-0.1-2.3-1.6-4.3-4.5-3.9c-1.1,0.1-2.2,0.4-3.2,0.9c-2.5-0.1-5,1.5-5.1,4.6c-0.2,6.7-2.4,13.1-0.7,19.8
							c0.7,2.7,3,3.7,5.1,3.4c0.2,0.1,0.4,0.2,0.6,0.3c3.3,1.3,6.5,0.2,9.2-1.8c0.5,0.1,0.9,0.1,1.4,0.1c1.4-0.1,2.8-0.5,4.1-1.1
							c1.7,0.8,3.4,1.3,5.2,1.6c1.5,10.5,2.8,21,5.2,31.3c2.1,8.8-0.8,16.9-2.5,25.1c-1,1.3-1.9,2.7-3.1,4
							c-3.1,3.4-6.6,6.8-10.5,9.4c-8.9,6.1-20.5,9.3-31.1,10.7c-25.1,3.2-49.4-7.4-72-17c-5.6-2.4-10.5,5.9-4.8,8.3
							c23.8,10.1,48,20.3,74.4,18.5c7.8-0.5,15.4-2.3,22.8-4.9c-0.1,0.5-0.2,0.9-0.2,1.4c-0.7,6.2,8.9,6.1,9.6,0
							c0.4-3.7,12.9-5.8,15.6-6.6c4.6-1.4,9.3-3,12.8-6.1c1.6,0.8,3.7,0.7,5.4-0.9c0.6-0.5,1.1-1,1.6-1.5c2.1,0.3,4.2-0.7,4.7-3.4
							c0.1-0.4,0.1-0.8,0.2-1.3c3.7-3.8,6.7-7.6,8.2-12.4c3.3-0.6,6.1-3.8,8.5-8.1c1.5-0.4,2.8-1.5,3.5-3.3c3-8.2,5.1-16.7,6.5-25.3
							C427,118.4,421.9,116.1,418.7,118.5"/>
					</g>
				</g>
			</g>
		</mask>
		<g style="&st21;">
			<g>
				<defs>
					<rect id="SVGID_24_" x="268.2" y="77.3" width="152" height="114.4"/>
				</defs>
				<clipPath id="SVGID_25_">
					<use xlink:href="#SVGID_24_"  style="overflow:visible;"/>
				</clipPath>
				<path style="&st33;" d="M359.4,86c0.1,0.1,0.2,0.3,0.3,0.3c11.2,1.4,19.7,8.3,28.9,13.8c7.7,4.6,15.2,9.5,22.9,14
					c2.2,1.3,2.8,2.6,1.6,4.8c-1.7,3-0.9,4.9,2.1,6.7c6.3,3.9,6.1,4.1,2.9,10.9c-6,12.6-15.1,22.6-25.5,31.6
					c-0.8,0.7-1.6,1.4-2.3,2.2c-2.9,4.3-7.6,6.1-11.7,8.9c-1.9,1.2-4,2.1-6,3.2c-1.2,0.6-2.4,1.2-3.6,1.9
					c-7.5,3.5-15.5,5.4-23.6,6.9c-1.7,0.2-3.3,0.4-5,0.6c-3.5,0.1-7.1,0.1-10.6,0c-23.4-0.3-39.4-12.4-50.6-32
					c-1.9-3.4-3.7-6.9-4.9-10.6c-4.4-11.8-5.6-24.1-5.9-36.6c-0.1-5,1.3-8.6,6.5-10.1c2.8-0.8,5.1-3.1,8.2-2.8c3.6,4,7.2,2.8,10.9,0
					c1.4-1,2.9-1.8,4.5-2.6c6.5-2.5,10.6-6.9,12-13.8c0.7-3.5,3.1-4.4,6.3-3.7c1.6,0.4,3.2,0.4,4.7,0.8c4.5,1.2,8.6,1,12.6-1.8
					c3.1-2.2,5.9-1.7,8.5,1.2c1.8,2,3.6,4,6.6,4.2C352.6,84.6,356.1,84.6,359.4,86"/>
			</g>
		</g>
		<path style="&st36;" d="M377.4,113.1l1.6,14.1l-47.1,13.6l-5.5-9.6c0,0,21.5-14.6,22.5-14.6C349.9,116.6,377.4,113.1,377.4,113.1"
			/>
		<path style="&st17;" d="M269.8,126.2c1.3-5.6,3.1-10.6,5.5-14.9c2-3.7,4.4-6.7,7.1-9.1c0.1-0.1,0.2-0.1,0.2-0.2
			c0.1-0.1,0.2-0.1,0.3-0.2c1.1-0.8,2.3-1.3,3.6-1.3c0.3,0,0.9,0.1,1.5,0.2c0.3,0.2,0.6,0.5,1,0.8c0.1,0.1,0.1,0.2,0.2,0.2
			c0.3,0.3,0.5,0.6,0.8,0.9c0,0.1,0.1,0.1,0.2,0.1c1.7,5.3-0.6,14.4-0.9,18.1c-0.3,4.7,0.6,9.4,1.9,13.8c2.1,7.2,7.3,13.3,14.4,15.8
			c0.1,0,0.2,0.1,0.4,0.1c1,0.5,2.1,0.8,3.2,0.1c1-0.6,1.2-1.9,0.7-2.9c-0.9-1.5-2.7-2.3-3.7-3.7c-1-1.4-0.8-3.3-0.7-5.1
			c1.4-4.7,5.8-9.6,8-11.8c4.3-4.4,8.7-8,12.9-10.7c0.5-0.4,1.1-0.7,1.6-1c6.7-4,14.5-6,22-8c1.4-0.4,2.7-0.7,4.1-1.1
			c0.1,0,0.1,0,0.2-0.1c0.1-0.1,0.3-0.2,0.5-0.2c0.3,0,0.5-0.1,0.8-0.1c0,0,0.2,0,0.2,0l1.5-0.4c0.2-0.1,0.4-0.1,0.6,0
			c0.1,0,0.2,0,0.2,0l1-0.2c2-0.4,4.1-0.9,6.2-1.2c5-1.7,8.7-1.4,11.6,0.6c1.6,1.2,2.6,2.8,3.2,5.5c0.3,1.5-0.2,2.7-0.8,4
			c-0.2,0.5-0.5,1-0.6,1.6c-0.8,2.5-4.7,3-4.7,3c-0.1,0-0.1,0-0.2,0c-1.1,0.3-2.5,0.4-4.1,0.5c-0.7,0-1.4,0.1-2.1,0.1l-0.6,0.1
			c-5.9,0.7-12.3,2.5-20.1,5.9c-1.6,0.7-3.3,1.4-4.9,2.2c-1.5,0.7-3.2,1.5-4.9,2.4c-0.8,0.6-0.7,1.2-0.6,1.4
			c0.2,0.6,0.9,0.8,1.7,0.5c2.1-1.1,4.2-1.9,6.3-2.7l0.6-0.2c1.2-0.4,2.4-0.9,3.5-1.3c3.1-1.1,5.5-1.9,7.9-2.5
			c2.7-0.8,4.6-1.3,7.2-1.7c3.8-0.7,7.6-0.9,10.5-0.5c0.1,0,0.2,0,0.2,0c0,0,0.2,0,0.2,0c0.1,0,0.2,0,0.3-0.1l0-0.7l0.1,0.7
			c3-0.2,5.4,0.6,7.1,2.5c2.4,2.8,3.2,7.8,2.1,12.8c-0.6,8.9-4,17.2-10.9,27c-5,7-9.5,11.9-14.6,15.8c-0.5,0.6-1,1-1.4,1.3
			c-1.2,1-2.6,1.8-4.5,2.6c-0.8,0.4-1.5,0.8-2.2,1.2c-0.5,0.3-1.1,0.5-1.6,0.8c-6.7,3.1-14.5,5.1-23.8,6.2c-3.9,1.3-7.7,1.5-12,0.8
			c-20.5-0.5-32.9-18.6-39.7-33.6C268.3,148.8,267.2,137.7,269.8,126.2"/>
		<path style="&st11;" d="M336.4,89.5c0.7-2.1,0.8-3.6,2-4.9C341.6,87.3,339.4,88.2,336.4,89.5"/>
		<path style="&st31;" d="M340,51.4l-16.3,8.5l-60,2.7c0,0,5.2,35.4-13.5,43.1c-19,7.8-36-8.5-40.3-37.6
			c-4.7-31.6,14.3-64.7,59.7-67.9C329.9-4.1,340,51.4,340,51.4"/>
		<path style="&st3;" d="M263.6,62.7c0,0,145.5,2.6,76.3-11.3C340,51.4,322.6,58.7,263.6,62.7"/>
		<path style="&st28;" d="M314,84.7c0-11.8-8.3-21.3-18.6-21.3s-18.7,9.6-18.7,21.3c0,11.8,8.4,21.3,18.7,21.3S314,96.5,314,84.7"/>
		<path style="&st3;" d="M295.3,107.4c-11,0-20-10.2-20-22.7c0-12.5,9-22.7,20-22.7c11,0,20,10.2,20,22.7
			C315.3,97.2,306.3,107.4,295.3,107.4 M295.3,64.7c-9.5,0-17.3,9-17.3,20c0,11,7.8,20,17.3,20c9.5,0,17.3-9,17.3-20
			C312.6,73.7,304.8,64.7,295.3,64.7"/>
		<g style="&st19;">
			<g>
				<defs>
					<rect id="SVGID_26_" x="285.5" y="7.2" width="47.4" height="43.5"/>
				</defs>
				<clipPath id="SVGID_27_">
					<use xlink:href="#SVGID_26_"  style="overflow:visible;"/>
				</clipPath>
				<path style="&st16;" d="M326.9,50.7c0,0-0.1-0.2-0.2-0.6c-0.1-0.4-0.3-1.1-0.6-1.9c-0.5-1.6-1.4-4-2.6-6.7
					c-0.6-1.4-1.3-2.8-2-4.4c-0.8-1.5-1.6-3.1-2.5-4.7c-0.9-1.6-1.9-3.2-3-4.9c-1.1-1.6-2.3-3.2-3.5-4.7c-1.3-1.5-2.6-3-4-4.3
					c-1.4-1.3-2.9-2.6-4.4-3.7c-0.8-0.5-1.5-1.1-2.3-1.5c-0.8-0.5-1.5-0.9-2.3-1.3c-0.7-0.4-1.5-0.8-2.2-1.1
					c-0.7-0.3-1.4-0.6-2.2-0.9c-0.7-0.2-1.4-0.5-2-0.7c-0.7-0.2-1.3-0.3-1.9-0.5c-1.2-0.3-2.2-0.4-3.1-0.5c-1.8-0.1-2.8-0.2-2.8-0.2
					l0-1c0,0,1,0,2.8,0c0.9,0.1,2,0.1,3.3,0.3c0.6,0.1,1.3,0.2,2,0.3c0.7,0.1,1.4,0.3,2.2,0.5c0.8,0.2,1.5,0.5,2.3,0.7
					c0.8,0.3,1.6,0.6,2.4,1c0.8,0.3,1.7,0.8,2.5,1.2c0.9,0.4,1.7,0.9,2.5,1.4c1.7,1,3.3,2.2,5,3.5c1.6,1.3,3.2,2.7,4.6,4.3
					c1.5,1.5,2.8,3.1,4.2,4.7c1.3,1.6,2.5,3.2,3.6,4.9c1.1,1.6,2.1,3.2,3,4.8c0.9,1.5,1.8,3,2.5,4.4c1.5,2.8,2.6,5.2,3.3,6.9
					c0.4,0.9,0.6,1.5,0.8,2c0.2,0.5,0.3,0.7,0.3,0.7L326.9,50.7z"/>
			</g>
		</g>
		<polygon style="&st3;" points="279.1,98.1 218,92.2 214.1,84.7 279.1,74.2 276.7,84.7 		"/>
		<path style="&st3;" d="M308.7,68.5c0,0,7.9-4.5,15.4-1.5c-0.2,1.2-1.9,13-1.8,12.4c0.7-3-7.9-1-9.1-0.7L308.7,68.5z"/>
		<g style="&st4;">
			<g>
				<defs>
					<rect id="SVGID_28_" x="280.8" y="64.7" width="31.7" height="39.9"/>
				</defs>
				<clipPath id="SVGID_29_">
					<use xlink:href="#SVGID_28_"  style="overflow:visible;"/>
				</clipPath>
				<path style="&st27;" d="M295.3,64.7c-0.2,0-0.4,0-0.6,0l-13.9,30.8c2.5,4.5,6.5,7.7,11.2,8.7l15.3-33.9
					C304.2,66.9,300,64.7,295.3,64.7"/>
				<path style="&st27;" d="M310,74.3l-13.7,30.3c2.7-0.2,5.3-1.1,7.5-2.6l8.7-19.2C312.3,79.7,311.4,76.8,310,74.3"/>
			</g>
		</g>
		<path style="&st3;" d="M263.7,62.7c0,0,145.5,2.6,76.3-11.3C340,51.4,322.7,58.7,263.7,62.7"/>
		<path style="&st17;" d="M339.8,77.7c0,0,12.2,0.3,10.2,18.3c0,0,1.4,10.6,15.1,7.9l3.9,3.7l-24.7,7.7L336,106L332.4,91L339.8,77.7
			z"/>
		<path style="&st17;" d="M324.1,80.9c0,0-21-9.1-19.7,12.1c0,0,3.8,13.9-20.2,10.5l-5.1,5.7c0,0,7.2,8.4,8,8.4
			c0.9,0,36.2-13.6,36.2-13.6L324.1,80.9z"/>
		<path style="&st7;" d="M321.3,85.4c0.3-0.3-0.2-0.6-0.6-0.7c-1.2-0.3-2.5-0.5-3.7-0.6c-1.5-0.1-3,0-4.2,0.7
			c-0.9,0.6-1.6,1.5-2.1,2.4c-0.6,1.1-1.1,2.2-1.3,3.4c-0.2,1.2,0.1,2.5,0.9,3.4c0.8,0.9,2.1,1.3,3.3,1.6c3,0.8,6.1,1.5,9.2,1.9
			c0.7,0.1,1.6,0.2,2.1-0.4c0.6-0.7,0.1-1.7-0.3-2.5c-1-1.9-1.7-4-2.1-6.2c-0.1-0.6-0.2-1.1-0.4-1.7
			C321.6,85.5,322.8,85.2,321.3,85.4"/>
		<path style="&st7;" d="M331.9,94.4c0.2-1.5-0.1-3.1-0.8-4.5c-0.3-0.5-0.6-1-0.7-1.6c-0.5-1.6,0.3-3.3,1.6-4.3c1.3-1,3-1.4,4.6-1.4
			c1.8-0.1,3.7,0.2,5.1,1.4c0.8,0.7,1.3,1.8,1.8,2.8c0.6,1.4,1.1,3,0.6,4.4c-0.3,0.9-1.1,1.7-1.8,2.3c-2.5,2.1-5.9,3.2-9.2,3
			c-0.2,0-0.4,0-0.5-0.1C331.7,96.3,331.8,95.2,331.9,94.4"/>
		<path style="&st17;" d="M349.1,93.4c0,0,35.3-0.3,32.3,29.8c0,0,34.3,72.1-59,70.7l-38.1-22.6l47.7-61.4L349.1,93.4z"/>
		<path style="&st17;" d="M307.7,139.7c0,0,46.7-38.9,83.7-24.2c0,0,9.6,7.8-2.7,14.2c0,0,13.7,55.4-34.8,60.8L293,165.3
			L307.7,139.7z"/>
		<g style="&st46;">
			<g>
				<defs>
					<rect id="SVGID_30_" x="318.1" y="129.6" width="70.6" height="22"/>
				</defs>
				<clipPath id="SVGID_31_">
					<use xlink:href="#SVGID_30_"  style="overflow:visible;"/>
				</clipPath>
				<path style="&st42;" d="M388.6,129.6c0,0-47.2-2.2-70.6,19.6l2.6,2.4C320.7,151.6,335,131.8,388.6,129.6"/>
			</g>
		</g>
		<path style="&st17;" d="M376,117.6l4.7-4.9c0,0,13.8-2.7,14.2,8.1c0,0-9.9,2.3-10.1,2.3C384.6,123.2,376,117.6,376,117.6"/>
		<path style="&st36;" d="M286.4,121.7c6.6,9.4,10.8,7.6,18,8.2c5.3,0.4,13.3-5.3,18.4-7.3c3.9-1.5,7.9-2.5,12-3.4
			c14.1-3.2,31.1-5.5,45.4-7.1c-14.3,1.2-31.2,4-45,8.3c-7.6,2.4-15.3,5.3-21.1,11.1c-2.6,2.6-4.7,5.8-7.6,7.9
			c-4,3-9.4,3.8-14.1,2.1c-4.7-1.7-8.5-5.8-10-10.9c-0.7-2.3-0.8-5,0.5-6.9C283.8,122.8,285.6,120.6,286.4,121.7"/>
		<path style="&st23;" d="M286.4,121.7c6.6,9.4,10.8,7.6,18,8.2c5.3,0.4,13.3-5.3,18.4-7.3c3.9-1.5,7.9-2.5,12-3.4
			c14.1-3.2,31.1-5.5,45.4-7.1c-14.3,1.2-31.2,4-45,8.3c-7.6,2.4-15.3,5.3-21.1,11.1c-2.6,2.6-4.7,5.8-7.6,7.9
			c-4,3-9.4,3.8-14.1,2.1c-4.7-1.7-8.5-5.8-10-10.9c-0.7-2.3-0.8-5,0.5-6.9C283.8,122.8,285.6,120.6,286.4,121.7z"/>
		<g style="&st46;">
			<g>
				<defs>
					<rect id="SVGID_32_" x="73.3" y="227.7" width="106.1" height="13"/>
				</defs>
				<clipPath id="SVGID_33_">
					<use xlink:href="#SVGID_32_"  style="overflow:visible;"/>
				</clipPath>
				<path style="&st43;" d="M179,227.7l-52.3,3.8c0,0-51.1,3.8-51.1,3.8c-0.3,0.8-1.8-0.6-2.3,0.3l1.5,5.1
					c1.5-0.1,69-9.1,104.6-11.7L179,227.7z"/>
			</g>
		</g>
		<g style="&st46;">
			<g>
				<defs>
					<rect id="SVGID_34_" x="51.4" y="203.5" width="123.5" height="4.9"/>
				</defs>
				<clipPath id="SVGID_35_">
					<use xlink:href="#SVGID_34_"  style="overflow:visible;"/>
				</clipPath>
				<polygon style="&st44;" points="51.4,206.9 173.9,203.5 173.9,204.9 174.9,208.5 51.4,208.1 				"/>
			</g>
		</g>
		<polygon style="&st34;" points="110.9,203.2 106.3,178.7 121.2,178 126.3,202.2 		"/>
		<polygon style="&st34;" points="97.9,228.6 93.4,204.1 108.2,203.4 113.4,227.6 		"/>
		<polygon style="&st34;" points="142,253.2 137.4,228.6 152.3,228 157.4,252.2 		"/>
		<g style="&st20;">
			<g>
				<defs>
					<rect id="SVGID_36_" x="403.3" y="311" width="10" height="2.9"/>
				</defs>
				<clipPath id="SVGID_37_">
					<use xlink:href="#SVGID_36_"  style="overflow:visible;"/>
				</clipPath>
				<path style="&st9;" d="M413.3,311.3c0,0-4.5-0.3-9.9,2.5"/>
			</g>
		</g>
		<g style="&st20;">
			<g>
				<defs>
					<rect id="SVGID_38_" x="404.3" y="316.3" width="8.9" height="1.3"/>
				</defs>
				<clipPath id="SVGID_39_">
					<use xlink:href="#SVGID_38_"  style="overflow:visible;"/>
				</clipPath>
				<path style="&st14;" d="M413.1,316.9c0,0-3-1-8.7,0.5"/>
			</g>
		</g>
		<g style="&st46;">
			<g>
				<defs>
					<rect id="SVGID_40_" width="529.9" height="425.4"/>
				</defs>
				<clipPath id="SVGID_41_">
					<use xlink:href="#SVGID_40_"  style="overflow:visible;"/>
				</clipPath>
				<path style="&st1;" d="M403.5,291c-0.3-0.5-0.9-0.6-1.4-0.5c0.6-0.3,1.1-0.6,1.3-1.2c0.2-0.6,0.3-1.4-0.4-1.7
					c-1.1-0.6-2.1,0.1-3.2,0.6c0.2-0.3,0.6-0.6,0.8-0.9c0.1-0.1,0.2-0.3,0.2-0.4c0.3-0.1,0.5-0.3,0.7-0.5c0.7-0.9-0.2-2.3-1.4-2.5
					c-1.2-0.2-2.4,0.4-3.4,1c-1.8,1.1-3.6,2.3-5.3,3.6c-0.2,0.1-0.4,0.3-0.6,0.5c-1.1-0.6-2.5-0.7-3.8,0.2c-1.4,1-2.3,1.3-3,2.9
					c-0.7,1.6-1.8,3.4-2.1,5.1c-0.5,2.9-0.8,5.9,0.3,8.7c1.1,3,5,4.1,7.9,2.8c1.4-0.6,2.4-1.7,3.3-2.8c0.3-0.4,0.8-1.4,1.4-1.9
					c0.4-0.1,0.7-0.2,1.1-0.4c0.2-0.1,0.3-0.1,0.5-0.2c1.5-0.6,3-1.3,4.3-2.2c0.9-0.6,1.8-1.2,2.2-2.1c1-0.8,1.6-2.4,0.7-3.3
					c-0.3-0.5-1-0.7-1.5-0.4c-0.7,0.3-1.1,1.1-1.7,1.5c-0.1,0-0.2,0.1-0.4,0.1c-1,0.2-1.6-1-1.3-1.9
					C400.3,294.4,405,293.2,403.5,291"/>
				<path style="&st1;" d="M393.1,291.3c-0.1-1.2-0.6-2.5-1.2-3.9c-1-2.2-2.4-4-4-5.8c-1.6-1.8-2.8-4-4.2-6
					c-0.1-0.7-0.5-1.2-0.9-1.8c-4.1-5.5-8.3-10.9-12.6-16.2c-2.6-3.2-5.6-6.6-9.5-7.5c-1.6-0.4-3.2-0.3-4.8,0
					c-0.9,0.1-1.8,0.3-2.7,0.5c-4.9-0.5-10,0.6-14.7,1.7c-3.6,0.8-9.7,1.6-10.6,6.3c-0.4,2.3,0.3,3.9,1.6,5
					c-2.5,3.8-3.3,8.9-6.1,12.5c0.5-0.8,1.7-0.2,2.3,0.5c2,2.2,3.3,5.2,3.6,8.2c0.1,1.2,0.1,2.4,0.5,3.5c0.3,0.8,0.8,1.5,1.3,2.2
					c1.2,1.6,2.5,3.3,4.2,4.4c1.5,0.9,3.1,1.4,4.8,1.6c5.4,0.8,10.9,0,16-1.9c2.2-0.8,4.3-1.7,6.3-2.8c0.2,1.8,1.2,3.3,3.4,3.8
					c4,0.8,7.6,3.1,11.5,4.4c2.2,0.7,4.3,0.7,6.3,0.3c0-0.1-0.1-0.2-0.1-0.3c-0.7-1.8-1.5-3.7-2.7-5.2c1.5,1.6,3,3,4.7,4.3
					c0-2.1-0.7-4.2-2-5.8c1.1,0.1,1.8,1.2,2.4,2.2s1.6,1.9,2.7,1.6c0.2-0.6,0.3-1.3,0.3-2c-0.3-0.4-0.5-1-0.4-1.6
					c0.2,0.5,0.3,1,0.4,1.6c0.2,0.2,0.4,0.4,0.6,0.5c0.1-1.5-0.3-3-1.1-4.3c-0.3-0.3-0.7-0.7-0.9-1.1c0.4,0.3,0.7,0.7,0.9,1.1
					c0.7,0.7,1.6,1.3,2.5,1.6c-0.7-1.9-1.7-3.7-2.9-5.4c1.5,1.2,3,2.4,4.5,3.6C393,291.2,393,291.2,393.1,291.3"/>
				<path style="&st1;" d="M414.2,219c-2.6-10.8-11.3-13.7-20.5-13c-10.2,0.7-22.8,8.4-33.1,8.6c-0.8,0-3.3,0.1-5-0.3
					c0-0.1,0.1-0.1,0.1-0.2c2.3-8,0.5-30.3-15-29.7c-2.5,0.1-4,1.8-4.5,3.7c-0.5,0.7-0.8,1.6-0.8,2.8c-0.1,5.3,11.7,11,12.6,16.5
					c-0.3,2.8-1.1,5.4-0.6,8.5c1.2,7.3,10.3,8.1,16,8.4c9.2,0.4,18.2-7,27.3-8.2c0.4,1.3,1.4,2.5,3.2,2.9c7.5,2,7.9,6.3,15.8,6.2
					C412.7,225,414.9,222,414.2,219"/>
				<path style="&st1;" d="M414.2,219c-2.6-10.8-11.3-13.7-20.5-13c-4.3,0.3-9.1,1.9-13.9,3.6c0.1,3.4-0.2,6.8-0.7,10.2
					c3.9-1.7,7.7-3.3,11.5-3.8c0.4,1.3,1.4,2.5,3.2,2.9c7.5,2,7.9,6.3,15.8,6.2C412.7,225,414.9,222,414.2,219"/>
				<path style="&st1;" d="M403,308.3c-0.9,0.6-0.7,1.9-1,2.9c-0.3,1.2-1.3,2.1-2.4,2.6s-2.3,0.7-3.6,0.8c-1.9,0.1-3.9,0.1-5.8-0.2
					c-0.4-0.7-0.6-1.5-0.4-2.3c1.1-0.1,2-0.8,2.7-1.7c0.7-0.9,1.1-1.9,1.8-2.8c1.2-1.7,3-2.9,5-3.3s4.2-0.1,6,0.8
					c0.2,1.1-0.4,2.2-1.4,2.7C403.6,308,403.2,308.1,403,308.3"/>
				<path style="&st1;" d="M370.6,341.2c0.6,0.1,1.2,0.1,1.9,0.1c3.9-0.2,8.1-0.9,10.8-3.7c0.9-1,1.6-2.1,2.4-3.2
					c5.1-7.2,14.1-11,22.9-11.6c1.6-0.1,3.3-0.2,4.6-1.1c1.1-0.8,1.6-2.4,1.1-3.5c-0.1-0.1-0.2-0.2-0.3-0.3
					c-0.2-0.1-0.5-0.2-0.6-0.4c-0.3-0.3-0.1-0.9,0.2-1.2c0.3-0.3,0.7-0.5,1.1-0.8c0.7-0.6,1-1.6,0.8-2.5c-0.3-0.9-1.1-1.6-2-1.7
					c0.3-0.4,0.7-0.9,0.7-1.4c0-0.7-0.7-1.2-1.4-1.5c0,0,0,0,0,0c-5.7-1.7-12.9,5.3-18.5,2.3c-0.1-0.6-1.3-0.8-0.8-1.2
					c-1.5-0.6-3.5,0.3-5.4,1.6c-0.8-0.1-1.9-1.6-2.3-2.1c-2.8-3.6-8-0.3-8.2,3.4c-0.1,2.4-3.2,3.9-5.1,4.5c-1.7,0.5-3.2,1-4.7,1.7
					c-2.6-1.4-6.5-0.4-7.2,2.5c-1.1,2.1-1,4.9,1.4,6.6l-0.3,0.2C361.8,333.4,365.5,338.7,370.6,341.2"/>
				<path style="&st1;" d="M135.4,291.4c0,4.1,3.2,8.1,7.2,9.1l71,16.9c3.9,0.9,10.3,0.6,14.1-0.8l42.6-15.3
					c3.8-1.4,6.9-5.8,6.9-9.9V254c0-4.1-3.3-7.4-7.4-7.4H142.8c-4.1,0-7.4,3.3-7.4,7.4V291.4z"/>
				<rect x="177.6" y="377.5" style="&st1;" width="23.6" height="16"/>
				<path style="&st1;" d="M161.7,385.1l-53.9-10.4c0.1-0.7,0.1-1.4,0.1-2.2c0-14.5-11.8-26.3-26.3-26.3c-1.5,0-3,0.2-4.4,0.4
					c-4.9-10-15.1-16.9-27-16.9c-15,0-27.5,11.1-29.6,25.5C9.1,355.5,0,364.7,0,376.2c0,11.6,9.4,21,21,21c3.7,0,7.2-1,10.2-2.6
					c2.5,5.8,8.2,9.9,14.9,9.9c6.3,0,11.7-3.6,14.4-8.8c3.7,6.1,10.4,10.2,18,10.2c8.3,0,15.5-4.9,18.9-11.9L161.7,385.1z"/>
				<polygon style="&st1;" points="79.9,256.7 212.7,246 206.1,224.9 73.3,235.6 				"/>
				<polygon style="&st1;" points="46.2,228.7 179.4,224.9 173.9,203.5 40.7,207.3 				"/>
				<polygon style="&st1;" points="50.6,204.2 183.6,197.8 177.7,176.5 44.7,183 				"/>
				<path style="&st1;" d="M452,386.8c0,21.3,17.2,38.5,38.5,38.5c21.3,0,38.5-17.2,38.5-38.5c0-21.3-17.3-38.5-38.5-38.5
					C469.3,348.3,452,365.6,452,386.8 M468.9,386.8c0-12,9.7-21.7,21.7-21.7c12,0,21.7,9.7,21.7,21.7c0,12-9.7,21.7-21.7,21.7
					C478.6,408.5,468.9,398.8,468.9,386.8"/>
				<path style="&st1;" d="M209.6,386.8c0,21.3,17.3,38.5,38.5,38.5c21.3,0,38.5-17.2,38.5-38.5c0-21.3-17.2-38.5-38.5-38.5
					C226.8,348.3,209.6,365.6,209.6,386.8 M226.4,386.8c0-12,9.7-21.7,21.7-21.7c12,0,21.7,9.7,21.7,21.7c0,12-9.7,21.7-21.7,21.7
					C236.1,408.5,226.4,398.8,226.4,386.8"/>
				<path style="&st1;" d="M490.5,408.5c12,0,21.7-9.7,21.7-21.7s-9.7-21.7-21.7-21.7c-12,0-21.7,9.7-21.7,21.7
					S478.6,408.5,490.5,408.5"/>
				<path style="&st1;" d="M248.1,408.5c12,0,21.7-9.7,21.7-21.7s-9.7-21.7-21.7-21.7c-12,0-21.7,9.7-21.7,21.7
					S236.1,408.5,248.1,408.5"/>
				<path style="&st1;" d="M453.1,393.7h-23.5c0-19.5,12-28.6,26.5-38.6c8.2-5.6,15.2-17.3,26.2-17.4c22.8-0.2,38.4,7.2,47.6,18.8
					L453.1,393.7z"/>
				<path style="&st1;" d="M451.9,248.5c-10.5-23.6-25.7-3.4-25.7-3.4s22.2,93.1,19.9,103.8c-5.9,27.6-45.7,34-62.3,34
					c-19.6,0-39.6-5.5-46.3-32.5c-5.1-20.4,9.1-30.4,16.3-34.1c2.3-1.2,0.8-2.4,0.8-2.4s-23.2-16.9-49.5-19.6
					c-26.3-2.7-74.3-3.4-96.6,26.3c-22.9,30.6-10.1,72.9-10.1,72.9h249.1c0,0-1.4-4.1,15.7-13.4c28.9-15.8,49.4-33.5,49.4-33.5
					S490.1,334.2,451.9,248.5"/>
				<path style="&st1;" d="M519.3,361.7c-2.1-2.3-4.7-4.6-7.7-6.7c-16.7-11.6-36.8-1.2-36.8-1.2s21.4-14.5,40.3-1.5
					c3.4,2.3,6.1,4.8,8.3,7.4L519.3,361.7z"/>
				<path style="&st1;" d="M479.2,235.6c0-10.1-8.2-18.2-18.2-18.2c-10.1,0-18.2,8.2-18.2,18.2c0,10.1,8.2,18.2,18.2,18.2
					C471,253.8,479.2,245.6,479.2,235.6"/>
				<path style="&st1;" d="M242.5,330.7c0,0,33.2-22.7,61.9-2.2c12.7,9.1,12.5,29.6,6,43.4c-5.1,10.8-12.5,18-12.5,18
					s24-39.4-2.2-57.4C269.9,314.8,242.5,330.7,242.5,330.7"/>
				<path style="&st1;" d="M350.7,317.8c0,0-5.1-4.1-22.6-11.7c-13.3-5.8-28.6-8.5-40.9-9.7c-17.8-1.8-24.4,0.6-25.8-1.3
					c-1.1-1.5-4.8-9.4,7.8-17.1c15.6-9.6,31.3-3.2,49.5,5.6c14.6,7.1,18.8,8.6,29.8,15.1c7.3,4.4,10.2,6.8,9.6,11.6
					C357.5,314.2,355.6,317,350.7,317.8"/>
				<path style="&st1;" d="M402.4,221.2c0,0,6.4,6.6,10.3,7.5c6.1,1.4,8.9-2.8,8.9-2.8l-2.4,13.7c0,0-3.3-4.9-7-5.5
					c-3.7-0.6-10.7,5-9.7,3.4C406.9,229.6,402.4,221.2,402.4,221.2"/>
				<path style="&st1;" d="M456.7,259.2c-1.6-3.4-3.2-7-4.9-10.7c-3.9-8.7-8.4-11.4-12.5-11.4c-7.1,0-13.2,8.1-13.2,8.1
					s0.8,3.4,2.1,8.9c5.5,2.7,13,4.2,21.6,4.9c0,0,0.1,0,0.1,0v2.8c0,0,5.6,0.9,8.2,0.5L456.7,259.2z"/>
				<rect x="451.1" y="213.5" style="&st1;" width="12.9" height="44.1"/>
				<path style="&st1;" d="M463.6,255.3c-25.1,0-45.4-4.3-45.4-19.7c0-16.3,20.3-19.7,45.4-19.7V255.3z"/>
				<path style="&st1;" d="M211.6,316.9c0,0,14.9-20.8,49.8-21.8"/>
				<path style="&st1;" d="M212.1,400.7H284c0.9-2.2,1.5-4.5,1.9-6.9h-75.8C210.6,396.1,211.3,398.4,212.1,400.7"/>
				<path style="&st1;" d="M453.1,393.7l74.5-17.1c0,0-3-10.9-8.4-14.9l-66.1,32.6"/>
				<path style="&st1;" d="M333.2,57.5c-6.6-10.4-16.7-15.2-28.4-17.4c-4.6-0.2-9,0.6-13.4,1.9c-12.9,3.8-23.1,11.4-30.9,22.3
					c-0.8,0.2-1.4,0.7-1.9,1.4c-4.1,6.6-7.1,13.5-7.6,21.4c0.3,0.8,0.8,1.5,1.5,1.8c3.9,1.6,3.6,4.5,2.8,8c-1,4.1-1.7,8.4-1.6,12.7
					c0.1,4.2,0.8,8.4-4,10.7c0,0,0,0.3,0,0.4c2.4,7,5.8,13.4,10.7,19c0.7,0.8,1.7,1.4,1.4,2.6c1.3,0.1,2.1,1.1,3,1.7
					c3.2,2.1,6.1,4.8,10,5.6c-0.2-0.8-0.2-1.6-0.5-2.3c-4-11.8-5.3-24-5.1-36.3c0-2-0.4-4.5,1.7-5.4c4.2-1.8,7.9-4.7,12.6-5.1
					c0.3-1,0-1.8-0.4-2.6c1-1.5,1.5-3,1.2-4.5c0.8-0.2,1.6-0.6,2.3-1.5c2.6-3.1,5.7-9.6,9.6-12.5c-0.1,1.1-0.2,2.2-0.1,3.1
					c0.4,3.9,5.9,6.8,8.4,3.3c1.1,0.3,2.3,0.2,3.4-0.2c2.4,2.2,7.5,1.9,8.2-2c0-0.3,0.1-0.5,0.1-0.8c2.5,1.8,6.5,1.5,7.4-2.4
					c1-4.9,2.4-9.3,5-13.7c0.3-0.6,0.5-1.2,0.6-1.8c0.4-0.1,0.9-0.1,1.3-0.2c1.4-0.2,3-0.1,4-1.5C335.5,60.9,334.3,59.2,333.2,57.5"
					/>
				<path style="&st1;" d="M330.8,255.6c12.2-8.5,25.8-19.6,40-18.6c0.6-3.9,1.2-7.8,1.8-11.8c0.6-3.8,2.4-8.5,2.7-12.7
					c-6.4-2-13.4-2.7-20-2.5c-0.3,0-0.5,0-0.7,0c-0.1,0-0.3,0.1-0.4,0.1c-2.6,0.5-5.8,0.8-7.4-1.3c-1.3-1.7-0.8-4.1-0.5-6.3
					c1.7-11.7-4.7-23.3-13.3-31.3s-19.4-13.3-29.7-19.1c-9-5.1-17.9-10.8-28-13.3c-10-2.5-21.8-1.3-29.1,6
					c-8.4,8.3-8.7,22.2-4.5,33.3c4.1,10.8,11.7,19.8,19.1,28.6c11.8,14,23.8,28.1,38.3,39.4c6.4,5,13.5,9.5,21.5,10.2
					C324,256.7,327.4,256.4,330.8,255.6"/>
				<path style="&st1;" d="M386.3,228.3c-2.8-0.1-5.6-0.2-8.4-0.2c-1.1,0-2.2-0.1-3-0.8c-0.5-0.5-0.8-1.3-1-2
					c-0.5-1.8-1.1-3.7-1-5.6c0-1.9,0.7-3.9,2.2-5.1c1.3-1,3-1.3,4.7-1.6c5.9-0.9,12.1-1.9,17.7,0.3c2.1,0.8,4,2,5.7,3.3
					c1.2,0.9,2.4,2,3,3.4c0.5,1.3,0.6,2.7,0.6,4c0,2.7,0,5.4-0.7,8c-1.2,4.3-4.3,8-8.3,9.8c-4,1.8-8.9,1.8-12.9-0.2
					c-2.6-1.3-4.9-3.6-5.5-6.5c0.6-1,2-1.2,3.2-1s2.2,0.8,3.4,1c1.6,0.2,3.4-0.8,4-2.3c0.6-1.5-0.1-3.5-1.6-4.2
					C387.7,228.4,387,228.4,386.3,228.3"/>
				<path style="&st1;" d="M361.3,228.5c-0.3-1.3,0.3-2.6,1.1-3.6c0.8-1,1.8-1.9,2.6-3c1.2-1.8,1.5-4,0.9-6.1
					c1.4-2.2,4.2-2.9,6.8-3.3c2.5-0.3,5.1-0.5,7.6-0.4c-1.2,1.6-2.8,2.7-4.7,3.3c1.4,0.4,2.8,0.5,4.2,0.4c0.3,0.1,0.4,0.5,0.3,0.8
					c-0.2,0.3-0.5,0.5-0.8,0.6c-1.4,0.6-2.8,1.3-4.2,1.9c1.9,0.8,4,1,6.1,0.7c-2.1,2.1-4.4,4-6.8,5.8c2,0.7,4.2,0.7,6.2-0.1
					c-2.8,0.5-5.1,3.3-4.9,6.1c0.4-0.3,0.9,0.3,1,0.8c0.6,2.1,0.6,4.3,0.2,6.4c-0.5-1.5-2.4-2-4-2.1s-3.3,0.2-4.7-0.6
					c-1.4-0.8-2-2.4-3.1-3.5C363.9,231.3,361.8,230.4,361.3,228.5"/>
				<path style="&st1;" d="M334.1,208.4c-1.3,1.5-1.8,3.6-1.3,5.5c2.8,0.6,5.7,1,8.6,1.3c1.2,0.1,2.6,0.1,3.3-0.9
					c0.3-0.4,0.2-2,0.7-2.3c3.5-2.6,5.9-5.3,1.7-19.7c-0.4-1.4,0-0.4-0.6-1.7c-0.8-1.6-2.7-2.5-4.5-3c-5.1-1.5-10.9-1-15.4,2
					c-4.4,3-7.2,8.6-6.1,13.8c3.6-0.4,7.3-0.7,10.9-1.1c-1.9,1.4-3.1,3.7-3.3,6.1C330.1,208.4,332.1,208.4,334.1,208.4"/>
				<path style="&st1;" d="M337.8,253.2c0.3,0,0.4,0.4,0.3,0.7c-0.1,0.3-0.4,0.4-0.7,0.5c-4.6,1.8-9.8,0.3-14.8-0.1
					c-4.6-0.4-9.2,0.1-13.5,1.6l0.5,2.8c0.1,0.3,0.1,0.7,0.4,0.9c0.5,0.4,1.3,0,1.8-0.4c2.3-1.7,5.1-2.9,7.9-3.4
					c-1,2.4-4.8,3.3-4.6,5.9c3.3-2.2,6.7-4.3,10.3-6c-0.4,2-3.6,2.8-3.3,4.8c1.9-2,4.4-3.3,7.1-3.8c3.1-0.6,3.1,2.1,5.4,2.4
					c0.6,0.1,4.2-1.8,4.7-2.3c2-2.1,2.3-7.6,2.7-10.4c1.1-9.3-3.7-19.1-10.8-24.9c-6.8-5.5-13.7-11-21.1-15.7
					c-8.6-5.4-18.1-9.8-25-17.2c-4.5-4.8-7.7-10.6-10.9-16.4c-5.1-9.3-10.2-18.6-15.3-27.9c-1.2-2.1-2.9-4.5-5.3-4.2
					c-0.8,0.1-1.5,0.6-2.2,1c-9.2,6.2-15.3,16.2-18.6,26.8c-3.3,10.6-4.1,21.7-4.7,32.8c-0.4,8.5-0.7,17.1-0.8,25.6
					c-0.1,7.2-0.1,14.5,1.5,21.5c2.5,11,8.7,20.7,14.9,30.2c3.2,4.9,6.8,10.1,12.3,12c6,2,12.6-0.7,17.7-4.3
					c5.1-3.7,9.5-8.4,14.9-11.6c8.3-4.8,18.2-5.4,27.6-6.7c6.9-1,3.5-8.5,9.5-4.9c3.8,2.3,9.9-3.1,13.5-9"/>
				<path style="&st1;" d="M340.3,252c-0.9,0.7-2.1,0.7-3.4,0.7c-2.8,0.6-5.5,1.4-8.2,2.3c0.6-0.3,1.2-0.6,1.8-1
					c-0.9,0.5-1.8,0.8-2.8,1.1c-1.6,0.9-1.6,2-2.5,3.7c-0.2,0.5-0.7,0.9-1.3,1.2c4.3,0.3,8.6,0.3,12.5-1.2c0.8-0.3,1.6-0.7,2.2-1.3
					c0.5-0.5,0.8-1.1,1.1-1.7c0.8-1.5,1.9-2.9,3.3-4.2C341.9,251.7,341.1,251.8,340.3,252"/>
				<path style="&st1;" d="M367.4,331c-0.7-2.5-1.3-5-2-7.5c2.9,2.9,6.3,5.3,10.1,7c-0.1-3.2-1-6.4-2.8-9.1c2.9,2.2,5.9,4.3,9,6.4
					c0.3-0.2,0.5-0.4,0.8-0.6c0-3.4-1.2-6.8-3.3-9.5c2.7,1.7,5.3,3.4,8,5.1c0.1-0.1,0.1-0.2,0.2-0.3c-1.3-2.7-2.6-5.3-3.9-8
					c1.7,2,3.8,3.7,6.1,5c0.1-0.1,0.2-0.3,0.3-0.4c-2-2.9-4-5.8-6-8.6c2.9,1.5,5.9,2.6,9,3.4c0,0,0,0,0-0.1
					c-0.6-0.8-1.2-1.7-1.8-2.4c-0.7-0.6-1.3-1.3-1.8-2c0.7,0.6,1.3,1.3,1.8,2c0.6,0.5,1.2,0.9,1.8,1.3c-1.8-2.9-3.1-6.1-3.8-9.5
					c-1-0.8-1.8-1.7-2-2.7c-0.6-3-2.5-5.5-4.4-7.9c-11.6-14.9-21.9-32.8-40.7-35c-8.8-1-11.4,1.8-20,4c-6,1.5-12.1,3.1-18.1,4.6
					c-2.7,0.7-5.7,1.5-7.3,3.8c-3.5,4.9,1.5,11.2,6.1,15c17,14.2,34.6,27.8,52.7,40.7c3.1,2.2,6.3,4.4,10,5.4
					c0.7,0.2,1.5,0.3,2.2,0.4C367.5,331.5,367.4,331.2,367.4,331"/>
				<path style="&st1;" d="M256.2,268c0,0,7.5,22,8.5,21s11.7-27.9,48.3,3.9c36.6,31.8,8-31.1,7.3-31.1c-0.7,0-62.9,6.2-62.9,6.2"/>
				<path style="&st1;" d="M268.5,274.6l-4.3,16c0,0-55.6,3.7-36.4-74.1"/>
				<path style="&st1;" d="M249.2,145.1c-9.8,3.1-17.9,10.9-21.4,20.6l9.1-5.2c-8.2,10.1-12.9,23-12.9,36c1.8-4.5,5.9-8,10.5-9.2
					c-9.8,9.1-15.2,22.8-14.4,36.1c3.2-3.6,6.8-6.9,10.6-9.7c-8.2,9.3-12.3,22.1-11.2,34.4c3-2.5,6.1-4.9,9.1-7.4
					c-2.1,6.7-1.8,14.2,0.8,20.7c4.8-6.4,9.7-12.9,14.5-19.3c2.2-2.9,4.4-5.9,5.4-9.3c1.1-3.8,0.7-7.9,0.3-11.8
					c-1.5-18.1-0.4-36.4,3.1-54.2c1-5.1,2.2-10.7,0.1-15.5C250.8,146.5,252.7,141.1,249.2,145.1"/>
				<path style="&st1;" d="M325.5,257.6c2.8-3.4,7.4-5.2,11.7-4.6c1.7,0.2,4.5-0.2,3.9-1.9c-5.1,2.1-10.8-2.7-16.1-1.6
					c-1.9,0.4-3.6,1.6-5.4,2.2c-5.2,1.9-11-0.1-15.6-3c-4.7-2.9-8.8-6.7-13.9-8.9c-1.8-0.8-3.8-1.4-4.9-3c-2.2-3.3,0.6-8.8-2.5-11.3
					c-0.9-0.7-2-1-3.1-1.3c-5.8-2-9.4-7.6-12.6-12.8c-4.7-7.7-9.3-15.4-14-23.1c0.4,8.8,4.6,17.4,11.3,23.2
					c-0.4-1.6,0.1-3.4,1.3-4.6c-1.1,5.4,0.5,11,3.3,15.7c2.7,4.7,6.6,8.7,10.4,12.7c-0.6-1-0.5-2.2,0.1-3.2
					c0.7,8.6,4.8,16.8,11.3,22.5c1-1.6,2-3.1,3-4.7c0.9,2.8,3.1,5.1,5.8,6.1c0.2-1.4,0.5-2.7,0.7-4.1c4.6,6.5,11.6,11.3,19.3,13.3
					c-0.7-2.6-0.4-5.3,0.6-7.7c0.6,2,2.6,3.5,4.6,3.5C324.3,259.8,324.7,258.5,325.5,257.6"/>
				<path style="&st1;" d="M399.5,230.1c0-4.7-3.8-8.6-8.6-8.6c-4.7,0-8.6,3.8-8.6,8.6c0,4.7,3.8,8.6,8.6,8.6
					C395.6,238.7,399.5,234.8,399.5,230.1"/>
				<path style="&st1;" d="M230.7,73.8c0.2,1.2,0.4,2.2,1.7,2.9c6.5,3.3,12.6,7.3,19.4,10.2c6.1,4.2,5.9,4.2,4.6,11.7
					c-1,5.5-1.9,11-0.8,16.6c0.4,2,0,3.3-2.3,3.8c-1.1,0.3-2.4,0.3-3.2,1.4c-3.6-0.1-7.2,0.2-10.7-0.4c-12-1.9-18.2-10.1-21.1-21
					c-2.3-8.8-1.3-17.5,1.9-26c0.8-2.2,1.7-2.3,3.5-1.2c1.5,0.9,3.1,1.6,4.5,2.6C229.3,75.3,230,74.8,230.7,73.8"/>
				<path style="&st1;" d="M350.6,77.8c0-10.1-6.3-18.2-14.2-18.2c-7.8,0-14.2,8.2-14.2,18.2s6.3,18.2,14.2,18.2
					C344.3,96.1,350.6,87.9,350.6,77.8"/>
				<path style="&st1;" d="M336.5,97.4c-8.6,0-15.5-8.8-15.5-19.6c0-10.8,7-19.6,15.5-19.6c8.6,0,15.5,8.8,15.5,19.6
					C352,88.6,345,97.4,336.5,97.4 M336.5,61c-7.1,0-12.8,7.6-12.8,16.9s5.7,16.9,12.8,16.9c7.1,0,12.8-7.6,12.8-16.9
					S343.5,61,336.5,61"/>
				<path style="&st1;" d="M336.9,60.8c-0.1,0-0.3,0.8-0.4,0.8l-9.7,21.5c1.8,3.1,4.5,5.4,7.8,6.1l10.7-23.6
					C343.1,63.1,340.1,60.8,336.9,60.8"/>
				<path style="&st1;" d="M347.1,68.3l-9.6,21.1c1.9-0.1,3.7-0.8,5.2-1.8l6-13.4C348.7,72.1,348.1,70.1,347.1,68.3"/>
				<path style="&st1;" d="M359.4,86c0.1,0.1,0.2,0.3,0.3,0.3c11.2,1.4,19.7,8.3,28.9,13.8c7.7,4.6,15.2,9.5,22.9,14
					c2.2,1.3,2.8,2.6,1.6,4.8c-1.7,3-0.9,4.9,2.1,6.7c6.3,3.9,6.1,4.1,2.9,10.9c-6,12.6-15.1,22.6-25.5,31.6
					c-0.8,0.7-1.6,1.4-2.3,2.2c-2.9,4.3-7.6,6.1-11.7,8.9c-1.9,1.2-4,2.1-6,3.2c-1.2,0.6-2.4,1.2-3.6,1.9
					c-7.5,3.5-15.5,5.4-23.6,6.9c-1.7,0.2-3.3,0.4-5,0.6c-3.5,0.1-7.1,0.1-10.6,0c-23.4-0.3-39.4-12.4-50.6-32
					c-1.9-3.4-3.7-6.9-4.9-10.6c-4.4-11.8-5.6-24.1-5.9-36.6c-0.1-5,1.3-8.6,6.5-10.1c2.8-0.8,5.1-3.1,8.2-2.8c3.6,4,7.2,2.8,10.9,0
					c1.4-1,2.9-1.8,4.5-2.6c6.5-2.5,10.6-6.9,12-13.8c0.7-3.5,3.1-4.4,6.3-3.7c1.6,0.4,3.2,0.4,4.7,0.8c4.5,1.2,8.6,1,12.6-1.8
					c3.1-2.2,5.9-1.7,8.5,1.2c1.8,2,3.6,4,6.6,4.2C352.6,84.6,356.1,84.6,359.4,86"/>
				<path style="&st1;" d="M377.4,113.1l1.6,14.1l-47.1,13.6l-5.5-9.6c0,0,21.5-14.6,22.5-14.6C349.9,116.6,377.4,113.1,377.4,113.1
					"/>
				<path style="&st1;" d="M269.8,126.2c1.3-5.6,3.1-10.6,5.5-14.9c2-3.7,4.4-6.7,7.1-9.1c0.1-0.1,0.2-0.1,0.2-0.2
					c0.1-0.1,0.2-0.1,0.3-0.2c1.1-0.8,2.3-1.3,3.6-1.3c0.3,0,0.9,0.1,1.5,0.2c0.3,0.2,0.6,0.5,1,0.8c0.1,0.1,0.1,0.2,0.2,0.2
					c0.3,0.3,0.5,0.6,0.8,0.9c0,0.1,0.1,0.1,0.2,0.1c1.7,5.3-0.6,14.4-0.9,18.1c-0.3,4.7,0.6,9.4,1.9,13.8
					c2.1,7.2,7.3,13.3,14.4,15.8c0.1,0,0.2,0.1,0.4,0.1c1,0.5,2.1,0.8,3.2,0.1c1-0.6,1.2-1.9,0.7-2.9c-0.9-1.5-2.7-2.3-3.7-3.7
					c-1-1.4-0.8-3.3-0.7-5.1c1.4-4.7,5.8-9.6,8-11.8c4.3-4.4,8.7-8,12.9-10.7c0.5-0.4,1.1-0.7,1.6-1c6.7-4,14.5-6,22-8
					c1.4-0.4,2.7-0.7,4.1-1.1c0.1,0,0.1,0,0.2-0.1c0.1-0.1,0.3-0.2,0.5-0.2c0.3,0,0.5-0.1,0.8-0.1c0,0,0.2,0,0.2,0l1.5-0.4
					c0.2-0.1,0.4-0.1,0.6,0c0.1,0,0.2,0,0.2,0l1-0.2c2-0.4,4.1-0.9,6.2-1.2c5-1.7,8.7-1.4,11.6,0.6c1.6,1.2,2.6,2.8,3.2,5.5
					c0.3,1.5-0.2,2.7-0.8,4c-0.2,0.5-0.5,1-0.6,1.6c-0.8,2.5-4.7,3-4.7,3c-0.1,0-0.1,0-0.2,0c-1.1,0.3-2.5,0.4-4.1,0.5
					c-0.7,0-1.4,0.1-2.1,0.1l-0.6,0.1c-5.9,0.7-12.3,2.5-20.1,5.9c-1.6,0.7-3.3,1.4-4.9,2.2c-1.5,0.7-3.2,1.5-4.9,2.4
					c-0.8,0.6-0.7,1.2-0.6,1.4c0.2,0.6,0.9,0.8,1.7,0.5c2.1-1.1,4.2-1.9,6.3-2.7l0.6-0.2c1.2-0.4,2.4-0.9,3.5-1.3
					c3.1-1.1,5.5-1.9,7.9-2.5c2.7-0.8,4.6-1.3,7.2-1.7c3.8-0.7,7.6-0.9,10.5-0.5c0.1,0,0.2,0,0.2,0c0,0,0.2,0,0.2,0
					c0.1,0,0.2,0,0.3-0.1l0-0.7l0.1,0.7c3-0.2,5.4,0.6,7.1,2.5c2.4,2.8,3.2,7.8,2.1,12.8c-0.6,8.9-4,17.2-10.9,27
					c-5,7-9.5,11.9-14.6,15.8c-0.5,0.6-1,1-1.4,1.3c-1.2,1-2.6,1.8-4.5,2.6c-0.8,0.4-1.5,0.8-2.2,1.2c-0.5,0.3-1.1,0.5-1.6,0.8
					c-6.7,3.1-14.5,5.1-23.8,6.2c-3.9,1.3-7.7,1.5-12,0.8c-20.5-0.5-32.9-18.6-39.7-33.6C268.3,148.8,267.2,137.7,269.8,126.2"/>
				<path style="&st1;" d="M336.4,89.5c0.7-2.1,0.8-3.6,2-4.9C341.6,87.3,339.4,88.2,336.4,89.5"/>
				<path style="&st1;" d="M340,51.4l-16.3,8.5l-60,2.7c0,0,5.2,35.4-13.5,43.1c-19,7.8-36-8.5-40.3-37.6
					c-4.7-31.6,14.3-64.7,59.7-67.9C329.9-4.1,340,51.4,340,51.4"/>
				<path style="&st1;" d="M263.6,62.7c0,0,145.5,2.6,76.3-11.3C340,51.4,322.6,58.7,263.6,62.7"/>
				<path style="&st1;" d="M314,84.7c0-11.8-8.3-21.3-18.6-21.3s-18.7,9.6-18.7,21.3c0,11.8,8.4,21.3,18.7,21.3S314,96.5,314,84.7"
					/>
				<path style="&st1;" d="M295.3,107.4c-11,0-20-10.2-20-22.7c0-12.5,9-22.7,20-22.7c11,0,20,10.2,20,22.7
					C315.3,97.2,306.3,107.4,295.3,107.4 M295.3,64.7c-9.5,0-17.3,9-17.3,20c0,11,7.8,20,17.3,20c9.5,0,17.3-9,17.3-20
					C312.6,73.7,304.8,64.7,295.3,64.7"/>
				<path style="&st1;" d="M329.9,49.8c0,0-13.3-42.2-44.4-42.1"/>
				<path style="&st1;" d="M326.9,50.7c0,0-0.1-0.2-0.2-0.6c-0.1-0.4-0.3-1.1-0.6-1.9c-0.5-1.6-1.4-4-2.6-6.7
					c-0.6-1.4-1.3-2.8-2-4.4c-0.8-1.5-1.6-3.1-2.5-4.7c-0.9-1.6-1.9-3.2-3-4.9c-1.1-1.6-2.3-3.2-3.5-4.7c-1.3-1.5-2.6-3-4-4.3
					c-1.4-1.3-2.9-2.6-4.4-3.7c-0.8-0.5-1.5-1.1-2.3-1.5c-0.8-0.5-1.5-0.9-2.3-1.3c-0.7-0.4-1.5-0.8-2.2-1.1
					c-0.7-0.3-1.4-0.6-2.2-0.9c-0.7-0.2-1.4-0.5-2-0.7c-0.7-0.2-1.3-0.3-1.9-0.5c-1.2-0.3-2.2-0.4-3.1-0.5c-1.8-0.1-2.8-0.2-2.8-0.2
					l0-1c0,0,1,0,2.8,0c0.9,0.1,2,0.1,3.3,0.3c0.6,0.1,1.3,0.2,2,0.3c0.7,0.1,1.4,0.3,2.2,0.5c0.8,0.2,1.5,0.5,2.3,0.7
					c0.8,0.3,1.6,0.6,2.4,1c0.8,0.3,1.7,0.8,2.5,1.2c0.9,0.4,1.7,0.9,2.5,1.4c1.7,1,3.3,2.2,5,3.5c1.6,1.3,3.2,2.7,4.6,4.3
					c1.5,1.5,2.8,3.1,4.2,4.7c1.3,1.6,2.5,3.2,3.6,4.9c1.1,1.6,2.1,3.2,3,4.8c0.9,1.5,1.8,3,2.5,4.4c1.5,2.8,2.6,5.2,3.3,6.9
					c0.4,0.9,0.6,1.5,0.8,2c0.2,0.5,0.3,0.7,0.3,0.7L326.9,50.7z"/>
				<polygon style="&st1;" points="279.1,98.1 218,92.2 214.1,84.7 279.1,74.2 276.7,84.7 				"/>
				<path style="&st1;" d="M308.7,68.5c0,0,7.9-4.5,15.4-1.5c-0.2,1.2-1.9,13-1.8,12.4c0.7-3-7.9-1-9.1-0.7L308.7,68.5z"/>
				<path style="&st1;" d="M295.3,64.7c-0.2,0-0.4,0-0.6,0l-13.9,30.8c2.5,4.5,6.5,7.7,11.2,8.7l15.3-33.9
					C304.2,66.9,300,64.7,295.3,64.7"/>
				<path style="&st1;" d="M310,74.3l-13.7,30.3c2.7-0.2,5.3-1.1,7.5-2.6l8.7-19.2C312.3,79.7,311.4,76.8,310,74.3"/>
				<path style="&st1;" d="M263.7,62.7c0,0,145.5,2.6,76.3-11.3C340,51.4,322.7,58.7,263.7,62.7"/>
				<path style="&st1;" d="M339.8,77.7c0,0,12.2,0.3,10.2,18.3c0,0,1.4,10.6,15.1,7.9l3.9,3.7l-24.7,7.7L336,106L332.4,91
					L339.8,77.7z"/>
				<path style="&st1;" d="M324.1,80.9c0,0-21-9.1-19.7,12.1c0,0,3.8,13.9-20.2,10.5l-5.1,5.7c0,0,7.2,8.4,8,8.4
					c0.9,0,36.2-13.6,36.2-13.6L324.1,80.9z"/>
				<path style="&st1;" d="M321.3,85.4c0.3-0.3-0.2-0.6-0.6-0.7c-1.2-0.3-2.5-0.5-3.7-0.6c-1.5-0.1-3,0-4.2,0.7
					c-0.9,0.6-1.6,1.5-2.1,2.4c-0.6,1.1-1.1,2.2-1.3,3.4c-0.2,1.2,0.1,2.5,0.9,3.4c0.8,0.9,2.1,1.3,3.3,1.6c3,0.8,6.1,1.5,9.2,1.9
					c0.7,0.1,1.6,0.2,2.1-0.4c0.6-0.7,0.1-1.7-0.3-2.5c-1-1.9-1.7-4-2.1-6.2c-0.1-0.6-0.2-1.1-0.4-1.7
					C321.6,85.5,322.8,85.2,321.3,85.4"/>
				<path style="&st1;" d="M331.9,94.4c0.2-1.5-0.1-3.1-0.8-4.5c-0.3-0.5-0.6-1-0.7-1.6c-0.5-1.6,0.3-3.3,1.6-4.3
					c1.3-1,3-1.4,4.6-1.4c1.8-0.1,3.7,0.2,5.1,1.4c0.8,0.7,1.3,1.8,1.8,2.8c0.6,1.4,1.1,3,0.6,4.4c-0.3,0.9-1.1,1.7-1.8,2.3
					c-2.5,2.1-5.9,3.2-9.2,3c-0.2,0-0.4,0-0.5-0.1C331.7,96.3,331.8,95.2,331.9,94.4"/>
				<path style="&st1;" d="M349.1,93.4c0,0,35.3-0.3,32.3,29.8c0,0,34.3,72.1-59,70.7l-38.1-22.6l47.7-61.4L349.1,93.4z"/>
				<path style="&st1;" d="M307.7,139.7c0,0,46.7-38.9,83.7-24.2c0,0,9.6,7.8-2.7,14.2c0,0,13.7,55.4-34.8,60.8L293,165.3
					L307.7,139.7z"/>
				<path style="&st1;" d="M388.6,129.6c0,0-47.2-2.2-70.6,19.6l2.6,2.4C320.7,151.6,335,131.8,388.6,129.6"/>
				<path style="&st1;" d="M376,117.6l4.7-4.9c0,0,13.8-2.7,14.2,8.1c0,0-9.9,2.3-10.1,2.3C384.6,123.2,376,117.6,376,117.6"/>
				<path style="&st1;" d="M286.4,121.7c6.6,9.4,10.8,7.6,18,8.2c5.3,0.4,13.3-5.3,18.4-7.3c3.9-1.5,7.9-2.5,12-3.4
					c14.1-3.2,31.1-5.5,45.4-7.1c-14.3,1.2-31.2,4-45,8.3c-7.6,2.4-15.3,5.3-21.1,11.1c-2.6,2.6-4.7,5.8-7.6,7.9
					c-4,3-9.4,3.8-14.1,2.1c-4.7-1.7-8.5-5.8-10-10.9c-0.7-2.3-0.8-5,0.5-6.9C283.8,122.8,285.6,120.6,286.4,121.7"/>
				<path style="&st1;" d="M179,227.7l-52.3,3.8c0,0-51.1,3.8-51.1,3.8c-0.3,0.8-1.8-0.6-2.3,0.3l1.5,5.1c1.5-0.1,69-9.1,104.6-11.7
					L179,227.7z"/>
				<polygon style="&st1;" points="51.4,206.9 173.9,203.5 173.9,204.9 174.9,208.5 51.4,208.1 				"/>
				<polygon style="&st1;" points="110.9,203.2 106.3,178.7 121.2,178 126.3,202.2 				"/>
				<polygon style="&st1;" points="97.9,228.6 93.4,204.1 108.2,203.4 113.4,227.6 				"/>
				<polygon style="&st1;" points="142,253.2 137.4,228.6 152.3,228 157.4,252.2 				"/>
				<path style="&st1;" d="M413.3,311.3c0,0-4.5-0.3-9.9,2.5"/>
				<path style="&st1;" d="M413.1,316.9c0,0-3-1-8.7,0.5"/>
			</g>
		</g>
	</g>
</g>
</svg>
