<?xml version="1.0" encoding="utf-8"?>
<!-- Generator: Adobe Illustrator 16.2.0, SVG Export Plug-In . SVG Version: 6.00 Build 0)  -->
<!DOCTYPE svg PUBLIC "-//W3C//DTD SVG 1.1//EN" "http://www.w3.org/Graphics/SVG/1.1/DTD/svg11.dtd">
<svg version="1.1" id="Слой_1" xmlns="http://www.w3.org/2000/svg" xmlns:xlink="http://www.w3.org/1999/xlink" x="0px" y="0px"
	 width="254px" height="264px" viewBox="0 0 254 264" style="enable-background:new 0 0 254 264;" xml:space="preserve">
<style type="text/css">
<![CDATA[
	.st0{fill:#535D66;}
	.st1{fill:#FFD900;}
	.st2{fill:#FFFFFF;}
	.st3{fill:none;}
]]>
</style>
<g>
	<path class="st3" d="M33.1,216.6c-1.3,0.2-2.5,0.3-3.7,0.3c-0.7,0-1.3,0-2-0.1c-0.4,1.9-0.6,3.7-0.7,5.6c-0.2,3.1-0.1,6,0.3,8.9
		c0.2,1,0.4,1.9,0.5,2.7c0.6,2.2,1.2,3.2,1.6,3.7c0,0,0.1,0.1,0.1,0.1c0.4,0.2,1.4,0.4,2.8,0.4c1.7,0,3.4-0.4,5.1-1.3
		c0.5-0.3,1-0.5,1.5-0.8c1.5-0.9,2.7-2.1,4.1-3.7c-0.6,0.1-1.1,0.1-1.6,0.1c-0.7,0-1.3,0.1-1.8,0.1h0h0c-2.2,0-3.9-0.3-5.2-0.9
		c-0.2-0.1-0.4-0.2-0.5-0.3c0,0,0,0,0,0c-0.6-0.4-2.4-2-4-3.9c-1.4-1.7-2.7-3.6-2.8-5.1v0c0-0.8,0.1-1.5,0.5-2.2
		c0.1-0.2,0.3-0.4,0.4-0.6c0.2-0.2,0.3-0.4,0.5-0.6c0.1-0.1,0.2-0.1,0.2-0.2c0.1-0.1,0.3-0.2,0.4-0.3c0,0,0,0,0,0c0,0,0.1,0,0.1,0
		c0.2-0.1,0.4-0.2,0.7-0.3c0.1,0,0.2,0,0.3-0.1c0.1,0,0.3-0.1,0.4-0.1c0.1,0,0.1,0,0.2,0c0,0,0.1,0,0.1,0c0.1,0,0.2,0,0.2,0
		c0.1,0,0.1,0,0.2,0c0.2,0,0.4,0,0.7,0.1c0.1,0,0.1,0,0.2,0c0,0,0.1,0,0.1,0c0.1,0,0.3,0,0.5,0c0.7,0,2,0,3.7-0.3
		c-0.4-0.5-0.8-1-1.1-1.5C34.3,216.5,33.7,216.6,33.1,216.6z"/>
	<path class="st1" d="M113.5,78.5c-2.1-4.6-2.5-9.1-1.5-13.8c0.5-2.3,1.3-4.4,2.2-6.1c0.4-0.7,0.8-1.3,1.2-1.9
		c-0.4,0.6-0.8,1.2-1.2,1.9c-1,1.8-1.7,3.8-2.2,6.1C110.9,69.4,111.4,73.9,113.5,78.5c2.8,6.1,7.8,13.5,16.2,13.7c0,0,0.1,0,0.1,0
		c0,0-0.1,0-0.1,0C121.3,92,116.3,84.6,113.5,78.5z"/>
	<path class="st1" d="M134.6,91.9C134.6,91.9,134.6,91.9,134.6,91.9C134.6,91.9,134.6,91.9,134.6,91.9c3.8-0.4,7-1.3,9.7-2.5
		c0.1-0.1,0.2-0.1,0.3-0.2c-0.1,0.1-0.2,0.1-0.3,0.2C141.6,90.7,138.4,91.5,134.6,91.9z"/>
	<path class="st1" d="M118,54.3c-0.2,0.1-0.4,0.2-0.6,0.3c0,0-0.1,0-0.1,0.1l0.1-0.1C117.6,54.5,117.8,54.4,118,54.3z"/>
	<path class="st1" d="M145.3,88.9c0.2-0.1,0.4-0.2,0.6-0.3c0.2-0.1,0.4-0.2,0.5-0.2c-0.2,0.1-0.3,0.2-0.5,0.2
		C145.7,88.7,145.5,88.8,145.3,88.9z"/>
	<path class="st1" d="M147.5,87.7c0.1-0.1,0.1-0.1,0.2-0.2c0,0,0,0,0,0c0,0,0,0,0,0C147.7,87.6,147.6,87.7,147.5,87.7z"/>
	<path class="st1" d="M128.3,73.5c-0.4-0.6-1.1-0.9-1.5-1.5c-0.4-0.6-0.3-1.4-0.3-2.1c0.5-1.7,2-3.5,2.9-4.5c-1,1-2.4,2.8-2.9,4.5
		c0,0.7-0.1,1.5,0.3,2.1C127.2,72.6,128,72.9,128.3,73.5c0.2,0.4,0.1,0.9-0.3,1.2c-0.1,0.1-0.2,0.1-0.3,0.1c0.1,0,0.2-0.1,0.3-0.1
		C128.5,74.4,128.6,73.9,128.3,73.5z"/>
	<path class="st1" d="M147.2,56.3l0.5-0.1L147.2,56.3C147.2,56.3,147.1,56.4,147.2,56.3c-0.1,0-0.1,0-0.1,0
		C147.1,56.4,147.1,56.4,147.2,56.3L147.2,56.3z"/>
	<path class="st1" d="M127.7,74.8c-0.1,0-0.1,0-0.2,0c0,0,0,0,0.1,0C127.6,74.8,127.6,74.8,127.7,74.8z"/>
	<path class="st1" d="M130.1,64.8c0.8-0.8,1.6-1.5,2.4-2.2C131.7,63.2,130.9,64,130.1,64.8z"/>
	<path class="st1" d="M148.3,87c0.2-0.1,0.3-0.3,0.5-0.4C148.6,86.8,148.5,86.9,148.3,87C148.3,87,148.3,87,148.3,87z"/>
	<path class="st1" d="M146.5,56.5L146.5,56.5C146.5,56.5,146.5,56.5,146.5,56.5c-0.6,0.1-1.1,0.3-1.7,0.4c-2.7,0.7-5.4,1.4-7.9,2.6
		c2.5-1.2,5.2-2,7.9-2.6C145.4,56.8,145.9,56.7,146.5,56.5z"/>
	<path class="st1" d="M141.2,66.3c-0.4,0.2-0.9,0.4-1.3,0.6c0,0,0,0,0,0C140.4,66.7,140.8,66.5,141.2,66.3z"/>
	<path class="st1" d="M139.7,66.9C139.7,66.9,139.7,66.9,139.7,66.9C139.7,66.9,139.7,67,139.7,66.9C139.7,67,139.7,66.9,139.7,66.9
		z"/>
	<path class="st1" d="M152.8,61.8c-0.3,0-0.6,0-0.8,0.1l-0.3,0l0.3,0C152.3,61.8,152.5,61.8,152.8,61.8c0.6,0,1.2-0.1,1.7-0.2
		c0,0,0,0,0,0l0,0C154.1,61.7,153.5,61.7,152.8,61.8z"/>
	<path class="st1" d="M141.5,65.1c-0.4,0.2-0.8,0.4-1.2,0.6C140.8,65.5,141.1,65.3,141.5,65.1c0.7-0.3,1.3-0.6,2-0.9
		c3.2-1.4,5.8-2.1,8.2-2.4c-2.4,0.3-5,1-8.2,2.4C142.8,64.5,142.2,64.8,141.5,65.1z"/>
	<path class="st1" d="M132.2,47.1c-0.8,0.3-1.4,0.8-2.1,1.5c0,0,0,0,0,0c0,0,0,0,0,0C130.8,47.9,131.4,47.4,132.2,47.1z"/>
	<path class="st1" d="M155,63L155,63l0,0.2c0,0,0,0,0,0l0,0L155,63z"/>
	<path class="st1" d="M130,48.6c-0.1,0-0.1,0-0.1,0C129.9,48.6,129.9,48.6,130,48.6C130,48.6,130,48.6,130,48.6z"/>
	<path class="st1" d="M147.5,64.1c0,0-0.1,0-0.1,0c0,0-0.1,0-0.1,0C147.4,64.2,147.4,64.2,147.5,64.1
		C147.5,64.1,147.5,64.1,147.5,64.1z"/>
	<path class="st1" d="M117,147.1c0.8-0.2,1.6-0.4,2.4-0.5c1.8-0.4,3.6-0.8,5.4-1.4c0.5-0.2,0.8-0.2,1.2-0.3c1.4-0.1,2.1,0.6,2.4,2.2
		c0.2,1.3,0.4,2.6,0.6,3.8c0.8,4.8,1.6,9.7,2.1,14.6l0,0.2c0.2,2.5,0.4,4.5,2.9,5.5c0.1,0,0.2,0.1,0.3,0.1c0.2,0.1,0.3,0.2,0.5,0.4
		c2.3,0.7,4.2,2.2,5.2,4.6c0.3-0.3,0.7-0.6,1.1-0.8c1.2-0.6,2.7-0.7,3.8-0.7c0.1,0,0.2,0,0.3,0c0-0.3-0.1-0.7-0.1-1
		c-1.1-1-1.5-2.6-1.6-3.9c0-0.6,0-1.1,0-1.5c0-0.3,0-0.6,0-0.9c0-0.3,0-0.5,0-0.7c0-0.1,0-0.3-0.1-0.4c-0.1-0.5-0.2-0.9-0.4-1.4
		c-2.6-9.9-2-19.5,1.8-29.3c0.1-0.2,0.1-0.3,0.2-0.6c-7.5,4.6-15.5,7.2-24.4,9.8c-0.1,0-0.2,0-0.3,0.1c-0.8,0.6-1.8,0.6-2.8,0.8
		c-0.7,0.2-1.4,0.3-2.1,0.5c0.3,0.9,0.5,1.8,0.7,2.8c2.3,10.4,4.4,22.6,3.6,35.2c1.3-1.7,2.5-3.1,3.7-4.4c0-0.1,0-0.1,0-0.2
		c0.1-1,0-1.6-0.6-2.4c-0.1-0.2-0.2-0.3-0.2-0.5c-0.3-0.5-0.5-1-0.5-1.7c0-1.1,0-2.2,0-3.3c0-0.4-0.1-0.8-0.1-1.2
		c-0.3-2.9-0.7-5.9-1.2-8.8c-0.7-3.3-1.6-6.5-2.6-10c-0.4-1.5-0.9-3-1.3-4.6c0-0.1,0-0.1,0-0.2C116.9,147.1,116.9,147.1,117,147.1z"
		/>
	<path class="st1" d="M151.7,63.2c-0.4,0-0.9,0.1-1.3,0.2c-0.2,0-0.3,0.1-0.5,0.1c0.2,0,0.3-0.1,0.5-0.1
		C150.8,63.3,151.3,63.3,151.7,63.2z"/>
	<path class="st1" d="M142.8,65.7c0.3-0.1,0.6-0.2,1-0.4C143.4,65.5,143.1,65.6,142.8,65.7l-0.2,0.1c-0.4,0.2-0.9,0.3-1.3,0.5
		c0.4-0.2,0.9-0.3,1.3-0.5L142.8,65.7z"/>
	<path class="st1" d="M153.9,190.5c0,0,0,0.1,0,0.1c-0.1,0.3-0.2,0.7-0.4,1.1c0,0,0,0,0,0c-0.1,0.2-0.2,0.4-0.2,0.7
		c0.1,0,0.3,0,0.4-0.1C153.8,191.7,153.8,191.1,153.9,190.5z"/>
	<path class="st1" d="M142.4,108.1c-0.6,0.4-1.2,0.7-1.8,1.1c-0.2,0.1-0.5,0.3-0.7,0.4c0.2-0.1,0.5-0.3,0.7-0.4
		C141.3,108.8,141.8,108.4,142.4,108.1z"/>
	<path class="st1" d="M134.5,112.4c0.6-0.1,1.2-0.2,1.9-0.6C135.7,112.1,135.1,112.3,134.5,112.4c-0.2,0-0.3,0-0.5,0
		c0,0,0.1,0,0.1,0C134.3,112.4,134.4,112.4,134.5,112.4z"/>
	<path class="st1" d="M121.7,138.4c3.7-0.9,7.3-1.8,10.8-3c4.2-1.4,7.9-3,11.3-4.7c-3.3,1.7-7.1,3.2-11.3,4.7
		C129,136.7,125.4,137.5,121.7,138.4z"/>
	<path class="st1" d="M202.2,222.3C202.2,222.3,202.2,222.2,202.2,222.3c-0.2-0.3-0.4-0.5-0.5-0.7c-0.1-0.1-0.1-0.2-0.2-0.3
		c-0.1-0.2-0.2-0.3-0.3-0.5c-0.1-0.1-0.1-0.2-0.2-0.4c-0.1-0.1-0.2-0.3-0.2-0.4c-0.1-0.1-0.1-0.3-0.2-0.4c-0.1-0.1-0.1-0.3-0.2-0.4
		c-0.1-0.1-0.1-0.3-0.2-0.4c0,0,0,0,0,0c-0.3,0.2-0.5,0.5-0.8,0.7c-0.1,0.1-0.1,0.1-0.2,0.2c-0.2,0.2-0.4,0.3-0.6,0.4
		c-0.1,0.1-0.2,0.1-0.3,0.2c-0.2,0.1-0.3,0.2-0.5,0.3c-0.1,0.1-0.2,0.1-0.3,0.2c-0.1,0.1-0.3,0.2-0.4,0.3c-0.1,0.1-0.2,0.1-0.3,0.2
		c-0.1,0.1-0.3,0.1-0.4,0.2c-0.1,0.1-0.2,0.1-0.3,0.2c-0.1,0.1-0.3,0.1-0.4,0.2c-0.1,0-0.2,0.1-0.3,0.1c-0.2,0-0.3,0.1-0.5,0.1
		c-0.1,0-0.2,0.1-0.3,0.1c-0.2,0-0.4,0.1-0.6,0.1c-0.1,0-0.1,0-0.2,0c-0.4,0.1-0.9,0.1-1.3,0.1c-1.9,0-3.8-0.5-6.1-1.5
		c-1.1-0.4-2.1-0.9-2.9-1.3c-1.2-0.6-2.1-1.3-2.8-2.1c-4.5,4.8-7.3,7-9.4,8c1,0,2,0,2.9,0c17,0,29.5,1.1,35.2,1.7
		c0.1-0.2,0.3-0.3,0.4-0.5C206.9,226,204.2,224.4,202.2,222.3C202.3,222.3,202.3,222.3,202.2,222.3z"/>
	<path class="st1" d="M114.7,140.1c-0.3,0-0.5,0.1-0.7,0.1c0-0.3-0.1-0.6-0.1-1c-0.2-4.6-0.3-9.2-0.4-13.7c-0.1-4.9-0.2-10-0.5-15
		c-0.2-3.6-0.9-7.3-1.6-10.8c-0.2-1.2-0.5-2.5-0.7-3.7c0,0,0,0,0,0c0.2,1.2,0.4,2.5,0.7,3.7c0.7,3.5,1.3,7.2,1.6,10.8
		c0.3,5,0.4,10.1,0.5,15c0.1,4.5,0.2,9.1,0.4,13.7c0,0.3,0.1,0.6,0.1,1C114.2,140.1,114.4,140.1,114.7,140.1c0,0,0.1,0,0.3,0
		C114.8,140.1,114.7,140.1,114.7,140.1L114.7,140.1z"/>
	<path class="st1" d="M153.4,44.8c-0.4,0.4-0.8,0.8-1.2,1.2l-0.3,0.3c-0.5,0.6-1.1,1.1-1.7,1.6c-0.6,0.7-0.7,1.4-0.5,2.1
		c0.5,1.3,2.1,2.3,2.8,2.4c2.5,0.2,4.8,1.4,6.1,3c0.9,1.2,1.3,2.5,1.1,3.9c0,0.2,0,0.5,0,0.7c0,0.4,0,0.8-0.1,1.1
		c-0.1,1.2-0.2,2,0.7,3.2c0.2,0.3,0.7,0.6,1.1,0.8c0.2,0.1,0.3,0.2,0.5,0.3c0.2,0,0.4,0,0.6,0.1c4.9,0.6,10.7,3.4,14.1,6.8
		c0.8,0.6,1.5,1.2,2.1,1.8c0.5,0.5,1,1.1,1.4,1.6c0.9,1.1,1.9,2.3,2.7,3.6c1,1.6,1.7,3.4,2.1,5.2c0,0.1-0.1,0.3-0.2,0.3l-0.3,0.1
		c-0.1,0-0.2,0-0.3-0.1c-0.2-0.2-0.3-0.4-0.6-0.5c-0.2-0.1-0.4-0.1-0.5,0c-0.1,0.1-0.1,0.2-0.1,0.5c0.2,0.3,0.3,0.5,0.5,0.9
		c2.2,4.4,3.2,9.4,2.8,14.4c0,0.5-0.4,0.8-0.8,0.8c-0.3,0-0.7-0.1-0.8-0.4c-0.4-0.6-1-1.2-1.5-1.8c0.9,4.3,0.5,8.9-1.1,13
		c-0.1,0.3-0.4,0.5-0.8,0.6c-0.3,0-0.7-0.1-0.9-0.4c-0.3-0.4-0.6-0.7-1-0.9l-0.3,0.9c-0.2,0.7-0.5,1.3-0.7,1.9
		c-0.5,3.2-1.1,6-1.9,8.7c-0.2,0.6-0.3,1.2-0.4,1.7c0,0.3,0,0.5,0,0.8c0.1,0,0.2,0,0.3,0c0.4,0,0.9,0,1.4,0.1c1.4,0.2,3,0.8,4.8,1.8
		c0,0,0.1,0.1,0.1,0.1c0.5,0.3,1,0.6,1.5,0.9c3.3,2.3,5.4,4.9,6.3,7.9c0.2,0.7,0.3,1.5,0.4,2.5c0.2,1.5,0.2,3.3,0.1,5.3
		c0.2-0.5,0.4-0.9,0.6-1.3c2.7-6.2,4.1-7.5,5.3-8.2c0,0,0.1,0,0.1-0.1c1-0.6,2.2-0.9,3.4-0.9c1.8,0,3.7,0.6,6.1,1.9
		c0,0,0.1,0.1,0.1,0.1c0.6,0.3,1.1,0.7,1.6,1.1c1.2,1,2.2,2.1,2.9,3c0.1,0.1,0.1,0.1,0.2,0.2c0.5,0.6,0.9,1.1,1.2,1.7
		c0.8,1.2,1.4,2.4,1.7,3.5c0,0.1,0.1,0.3,0.1,0.4c0,0.1,0,0.2,0,0.2c0.8,5-0.1,12.2-2.8,21.6c-2,7.2-5.5,14.8-10.7,23.3
		c-0.2,0.4-0.5,0.9-0.8,1.3c-1.1,1.8-2.3,3.8-3.7,5.9c-1.2,1.8-2.5,3.6-3.9,5.5c-0.1,1.5-0.2,2.4-0.2,3.1c0,0.1,0,0.2,0,0.3
		c0,0.1,0,0.2,0,0.3c1.4-1.2,3.2-3,5.2-5.5c0,0,0,0,0-0.1c0.2-0.3,0.4-0.5,0.6-0.8c0.2-0.2,0.3-0.4,0.5-0.6c0.1-0.1,0.2-0.2,0.3-0.3
		c0.3-0.3,0.5-0.7,0.8-1c0.1-0.1,0.1-0.1,0.2-0.2c0.1-0.5,0.2-1.1,0.4-1.6c0-0.2,0.1-0.4,0.2-0.6c0.2-0.9,0.5-1.7,0.7-2.5
		c0.1-0.3,0.2-0.6,0.3-0.8c0.1-0.4,0.3-0.8,0.4-1.2c0.2-0.4,0.3-0.8,0.5-1.3c0.1-0.3,0.3-0.7,0.4-1c0.3-0.7,0.6-1.3,0.9-1.9
		c0.1-0.2,0.2-0.4,0.3-0.7c0.4-0.7,0.7-1.4,1.1-2.1c0,0,0,0,0-0.1c2.2-4,4.8-6.9,7.7-8.6c0.1-0.1,0.2-0.1,0.3-0.2
		c0.2-0.1,0.4-0.2,0.6-0.3c1.2-0.6,2.4-1,3.7-1.3c0,0,0.1,0,0.1,0c0.1,0,0.2,0,0.2,0c0.3,0,0.5-0.1,0.8-0.1c0,0,0.1,0,0.1,0
		c0.4,0,0.8-0.1,1.2-0.1c2.1,0,4.2,0.6,6.6,1.9c0.7-0.9,2.1-1.8,4.5-1.8c1.2,0,2.7,0.2,4,0.6c0.1,0,0.3,0.1,0.4,0.1c0,0,0.1,0,0.1,0
		c0.6,0.2,1.1,0.4,1.6,0.6c0.1,0,0.1,0,0.2,0.1c0,0,0,0,0.1,0c0.2,0.1,0.4,0.2,0.6,0.3c2.2-8.8,3.3-18,3.3-27.5
		c0-53.2-36.3-98-85.5-110.8C155.4,39.7,154.7,42.4,153.4,44.8C153.5,44.7,153.5,44.8,153.4,44.8z"/>
	<path class="st1" d="M144.1,110.7c-0.1,0.1-0.3,0.2-0.4,0.3l0,0l0,0C143.8,110.9,144,110.8,144.1,110.7z"/>
	<path class="st1" d="M22.4,144.2c0.7-0.2,1.4-0.4,2.1-0.4c2.4,0,4.3,1.4,5.3,3.7c0.4,1.1,0.6,2.4,0.6,3.8c0,2.3-0.7,4.7-2.2,6.2
		c-1,1-2,1.8-3,2.6c-0.3,0.3-0.7,0.6-1,0.8c0.1,0,0.2-0.1,0.4-0.1c0.5-0.1,0.9-0.2,1.4-0.3c0.6-0.1,1.2-0.1,1.8-0.1
		c0.4,0,0.8,0,1.1,0c1.2,0.1,2.5,0.2,3.9,0.5c0.2,0,0.3,0.1,0.5,0.1c1.6,0.3,4.1,0.9,5.5,2.4c0.1,0.1,0.1,0.1,0.2,0.2
		c0.1,0.1,0.2,0.2,0.2,0.3c0.1,0.1,0.2,0.3,0.2,0.4c0,0,0.1,0.1,0.1,0.1c0.3,0.6,0.4,1.3,0.3,2.1c0,0,0,0,0,0v0c0,0.1,0,0.2,0,0.2
		c-0.1,0.8-0.4,1.5-0.9,2.1c2.6-1.3,5.3-2.1,8-2.5c0.4-0.1,0.8-0.1,1.3-0.1c1.1,0,2.3,0.2,3.6,0.5c-0.6-1.7-0.8-3.4,0.7-5.2
		c0.2-0.2,0.2-0.8,0.1-1.1c-1.8-4.5-3.7-9-5.6-13.4l-1.4-3.3c0,0,0,0,0-0.1l-0.5-4c0,0,0-0.1,0-0.1c1.9-8,6.4-13.8,13.4-17.2
		c0.5-0.3,0.9-0.9,1.3-1.6c0.1-0.1,0.2-0.3,0.3-0.4c0.9-1.4,1.7-2.7,2.5-4.1l0.6-0.9c0.1-0.1,0.1-0.1,0.3-0.1c0.1,0,0.2,0.1,0.2,0.2
		c1.1,2.6,2.6,4.9,3.6,6.5c0.1,0.2,0.3,0.2,0.3,0.2c0.1,0,0.3-0.1,0.3-0.2c0.1-0.1,0.1-0.3,0.2-0.4c0.3-0.9,0.8-2.2,1.8-2.3
		c0.1,0,0.2,0,0.2,0.1c3,3.1,3.6,7,4.4,11.2c0.1,0.5,0.2,1,0.3,1.6c0.1,0.6,0.2,1.3,0.1,1.9c-0.2,2.7-0.7,6-1.5,9.9
		c-0.1,0.5-0.2,1-0.3,1.5c-0.2,0.9-0.4,1.9-0.6,2.8c-0.3,1.7-0.3,3.5-0.3,5c0,2.9,0.1,6,0.3,9.1l-0.1,0.7c-0.1,1.7-0.3,3.5-0.2,5.2
		c0.1,2,0.5,4,1.3,5.9c0-0.1,0-0.2,0.1-0.4l0.2-0.5c0.2-0.3,0.5-0.5,0.8-0.6c0.1,0,0.2,0,0.2,0.1c0.3,0.2,0.5,0.6,0.5,1
		c0.2,1.5,0.3,3.1,0.4,4.6c0.1,0.9,0.1,1.8,0.2,2.8l-0.2,1.6c-0.2,1.1-0.3,2.1-0.5,3.2c-0.1,0.8-0.4,1.4-0.8,1.8
		c1.6-1.3,3.2-2.4,5-3.3c-0.8-3-1-6.2-1.1-9.3c0-1.5-0.1-3.1-0.2-4.6c0-0.2-0.1-0.4-0.2-0.6c-0.1,0.1-0.2,0.2-0.3,0.3l-0.1,0.4
		c-0.1,0.2-0.1,0.5-0.1,0.7c0,0.2,0,0.3,0,0.5c0,0.1-0.2,0.2-0.3,0.2c-0.1,0-0.2-0.1-0.3-0.2c-0.9-2.2-1.4-4.5-1.5-6.9
		c0-1.8,0.2-3.6,0.3-5.3l0.1-0.7c-0.1-3.1-0.2-6.1-0.1-9.1c0-1.9,0.1-3.5,0.4-5.1c0.2-1,0.4-1.9,0.7-2.9c0.1-0.5,0.2-1,0.4-1.4
		c0.7-3,1-5.3,1.2-8.3c0-0.5,0-1,0-1.5c-0.7-4.9-1.6-10.4-4.7-13.8c-0.7,0.1-1.4,0.7-1.8,1.5c-0.1,0.3-0.4,0.5-0.8,0.6
		c-0.3,0-0.7-0.1-0.8-0.4c-2.3-3.8-3.6-8.2-3.5-12.6c-0.4,0.6-0.8,1.3-1.2,2c0,0.1-0.1,0.2-0.2,0.3c-0.1,0.1-0.3,0.2-0.6,0.3
		c-0.4,0-0.9-0.2-1-0.7c-1.3-4.7-1.3-9.6-0.1-14.3c0-0.1,0-0.1,0-0.2c0-0.2-0.1-0.3-0.2-0.4c-0.3-0.2-0.5,0-0.7,0.1
		c-0.2,0.2-0.4,0.5-0.5,0.8c0,0.1-0.2,0.2-0.3,0.2l-0.4,0c-0.1,0-0.3-0.1-0.3-0.3v0c0.1-2.2,0.5-4.4,1.3-6.4
		c0.6-1.5,1.3-2.9,2.1-4.3c0.3-1,0.9-2.1,1.6-3c7.1-9,16.2-15.6,26.9-19.5c1.2-0.4,2.5-1.3,3.7-2.5c2.3-2.4,4.2-4.7,5.9-6.9
		c0.3-0.4,0.5-0.9,0.7-1.5c-0.9-2.8-1.5-5.6-1.9-8.5c-0.2-1.6-0.4-3.2-0.5-4.9C50,48.1,12.2,93.5,12.2,147.8v0.1
		c0,1.4,0,2.9,0.1,4.3C15,148.5,18.5,145.5,22.4,144.2z"/>
	<path class="st1" d="M64.1,242.4l0.4-0.2c0,0,0.1,0,0.1,0c0.3-0.1,0.6-0.2,0.9-0.4l0,0c0,0,0.1,0,0.1-0.1c3.5-1.4,6.9-2.7,10.3-3.8
		c-1.4-0.3-2.9-0.8-4.8-1.7c0,0-0.1,0-0.1,0c-1.2-0.6-2.2-1.1-3.1-1.7c-1.5-0.9-2.6-1.9-3.5-3c-1-1.2-1.8-2.7-2.4-4.3
		c-0.9,0.5-1.8,0.8-2.5,1.1c0.2,0.8,0.3,1.5,0.4,2.2c0.3,2,0.2,3.3-0.3,4.5c-0.6,1.4-1.3,2.8-2.1,4.1c1.7,1.3,3.5,2.6,5.3,3.8
		c0.2-0.1,0.5-0.2,0.7-0.3L64.1,242.4z"/>
	<path class="st1" d="M144.6,241.6C144.6,241.6,144.6,241.6,144.6,241.6c-0.3,0-0.6,0-0.9,0c-1.5,0.1-3,0.2-4.5,0.3
		c-0.4,0-0.8,0-1.3,0.1c-1.8,0.1-3.7,0.2-5.5,0.4c0,0,0,0-0.1,0c-1.1,0.1-2.3,0.2-3.4,0.3c-0.6,0.1-1.3,0.1-2,0.2
		c-18.7,1.7-34.4,4.5-46,7.1c-0.5,0.1-0.9,0.2-1.4,0.3c-0.2,0-0.3,0.1-0.5,0.1c-0.7,0.2-1.5,0.4-2.2,0.6c15,7.3,31.9,11.3,49.8,11.3
		c23.8,0,45.8-7.2,64.1-19.6c-10.3-0.9-20.7-1.4-31.1-1.4C154.7,241.3,149.6,241.4,144.6,241.6z"/>
	<path class="st1" d="M123.5,120c0.6-0.1,1.1,0.5,1.6,1c0.8,1,2.1,1.6,3.4,1.6c0.1,0,0.2,0,0.2,0c-0.1,0-0.2,0-0.2,0
		c-1.3-0.1-2.5-0.7-3.4-1.6C124.7,120.6,124.2,120,123.5,120l-0.2,0c0,0-0.1,0-0.1,0.1c0,0,0.1-0.1,0.1-0.1
		C123.4,120.1,123.5,120,123.5,120z"/>
	<path class="st1" d="M137,121.7c-0.2,0.6-0.1,1,0.1,1.3c0.2,0.3,0.8,0.4,1.3,0.3c0,0,0.1,0,0.1,0c0,0-0.1,0-0.1,0
		c-0.5,0.2-1,0.1-1.3-0.3C136.8,122.7,136.8,122.3,137,121.7c0.4-1.6,1.6-2.9,2.9-3.9C138.6,118.8,137.4,120.1,137,121.7z"/>
	<path class="st1" d="M122.4,110.1c0.7-0.1,1.6,0.5,1.9,0.7c4.2,3.2,7.6,4.6,10.7,4.3c1.7-0.1,3.2-0.8,4.9-1.7
		c-1.6,0.9-3.2,1.5-4.9,1.7c-3.1,0.3-6.5-1.1-10.7-4.3C123.9,110.6,123.1,110,122.4,110.1c-0.3,0-0.6,0.2-0.8,0.5
		c-0.1,0.1-0.1,0.3-0.2,0.4c0-0.1,0.1-0.3,0.2-0.4C121.7,110.3,122,110.1,122.4,110.1z"/>
	<path class="st1" d="M145.8,110c-0.1,0-0.2,0-0.3,0c-0.1,0-0.2,0-0.4,0.1c0.1-0.1,0.3-0.1,0.4-0.1C145.7,110,145.7,110,145.8,110
		c0.5,0.2,0.8,0.6,0.9,1.1c0.1,0.5,0,1.1-0.3,1.5c-0.2,0.3-2.2,2-3.9,3.2c1.7-1.3,3.7-2.9,3.9-3.2c0.3-0.4,0.4-1,0.3-1.5
		C146.6,110.6,146.3,110.2,145.8,110z"/>
	<path class="st1" d="M158.9,98.6c3.9-1.9,5.4-4.1,5.3-8c0,0,0,0,0,0C164.3,94.5,162.8,96.8,158.9,98.6L158.9,98.6z"/>
	<path class="st1" d="M125.4,55.6c-1.6-0.5-2.6-1.7-2.8-3.3c-0.1-1.1,0.1-2.1,0.8-2.9c0.4-0.5,0.8-0.8,1.4-1.1
		c-0.5,0.3-1,0.6-1.4,1.1c-0.6,0.8-0.9,1.8-0.8,2.9C122.8,53.9,123.8,55.1,125.4,55.6c0.1,0,0.2,0.2,0.2,0.3c0,0.2-0.1,0.3-0.2,0.4
		c0.1-0.1,0.2-0.3,0.2-0.4C125.6,55.7,125.5,55.6,125.4,55.6z"/>
	<path class="st1" d="M139.6,122.3L139.6,122.3C139.6,122.3,139.6,122.3,139.6,122.3C139.6,122.3,139.6,122.3,139.6,122.3
		C139.6,122.3,139.6,122.3,139.6,122.3z"/>
	<path class="st1" d="M139.8,125.4c-0.4,0.6-0.9,1.2-1.4,1.7C138.9,126.6,139.4,126.1,139.8,125.4c0.6-1,0.7-2.2,0.3-3l0,0
		c0,0,0,0,0,0C140.4,123.3,140.3,124.4,139.8,125.4z"/>
	<path class="st1" d="M125.7,132.9c-0.2,0.2-0.5,0.4-0.7,0.6c0,0,0,0,0,0c0,0,0,0,0,0C125.2,133.3,125.5,133.1,125.7,132.9z"/>
	<path class="st1" d="M152.5,194.6c-0.6,1.8-1.3,3.8-2,5.9c-0.7,2.2-1.3,4.1-1.7,5.7c-0.3,1-0.5,1.9-0.7,2.7c0.3-0.4,0.7-0.8,1-1.3
		c0.1-0.1,0.1-0.1,0.2-0.2c0.4-0.4,0.7-0.9,1.1-1.4c0.3-0.4,0.6-0.8,0.8-1.2c0.3-0.4,0.6-0.9,0.9-1.3c0,0,0-0.1,0.1-0.1
		c0.1-0.2,0.3-0.4,0.4-0.6c0-0.1,0.1-0.1,0.1-0.2c0-0.2,0-0.4,0-0.6c0-0.2,0-0.4,0-0.6c0.1-2.1,0.3-4.5,0.6-6.9c-0.3,0-0.5,0-0.8,0
		C152.6,194.6,152.5,194.6,152.5,194.6z"/>
	<path class="st1" d="M126.1,134.2C126.1,134.2,126.1,134.2,126.1,134.2c0.5,0,1-0.1,1.5-0.2C127.1,134.1,126.6,134.2,126.1,134.2
		C126.1,134.2,126.1,134.2,126.1,134.2z"/>
	<path class="st1" d="M124.2,46.6c-0.1,0-0.2,0.1-0.3,0.1C124,46.7,124.1,46.6,124.2,46.6z"/>
	<path class="st1" d="M155.9,225.9c0.5,0,0.9,0,1.3-0.1c1.7-0.1,3.3-0.1,4.9-0.2c0.2,0,0.4,0,0.6,0c0.5,0,1,0,1.5,0
		c-0.9-0.3-1.8-0.6-2.8-1.1c0,0-0.1,0-0.1,0c-2.9-1.4-4.6-2.6-5.7-4c0,0,0,0,0,0c0,0-0.1-0.1-0.1-0.1c0,0,0,0,0,0
		c-0.3,0.5-0.6,0.9-0.9,1.3c-0.1,0.1-0.2,0.2-0.2,0.3c-0.2,0.3-0.5,0.6-0.7,0.9c-0.1,0.1-0.2,0.2-0.2,0.3c-0.3,0.3-0.6,0.7-0.9,1
		c0,0-0.1,0.1-0.1,0.1c-0.3,0.3-0.5,0.5-0.8,0.7c-0.1,0.1-0.2,0.1-0.3,0.2c-0.3,0.2-0.5,0.4-0.8,0.5c-0.1,0-0.1,0.1-0.2,0.1
		c-0.3,0.2-0.6,0.3-0.9,0.5c0,0,0,0,0,0c0.1,0,0.2,0,0.2,0c0.7,0,1.4-0.1,2-0.1C153,226,154.5,225.9,155.9,225.9z"/>
	<path class="st1" d="M137.1,44.8L137.1,44.8C137.1,44.8,137.1,44.8,137.1,44.8c0.1,0,0.1,0,0.2,0c0,0,0,0,0,0
		C137.2,44.8,137.2,44.8,137.1,44.8z"/>
	<path class="st1" d="M169.1,197.3c-1,6.4-1.4,10.7-1.1,13.1c0,0,0,0.1,0,0.1c0,0,0,0.1,0,0.1c0.2-0.2,0.5-0.3,0.7-0.5c0,0,0,0,0,0
		c0,0,0,0,0,0c1.2-0.9,2.7-2,4.2-3.4c0.7-0.6,1.3-1.2,2-1.9c0.1-0.1,0.1-0.1,0.2-0.2l0,0l1.7-1.7c0.1-1.4,0.2-2.8,0.4-4.3
		c0.2-1.7,0.4-3.4,0.7-5.2c0.3-2.3,0.8-4.8,1.3-7.4c-1.7,2.7-3.4,5.1-5.4,7.1C172.3,194.6,170.7,196,169.1,197.3z"/>
	<path class="st1" d="M137.9,47.6C137.8,47.6,137.8,47.6,137.9,47.6L137.9,47.6c0.6-0.3,0.9-0.8,0.9-1.5c0,0,0,0,0,0c0,0,0,0,0,0
		C138.8,46.7,138.4,47.3,137.9,47.6z"/>
	<path class="st1" d="M95.3,222.6c0,0.1-0.1,0.1-0.1,0.2c-0.3,0.6-0.6,1.3-1,1.9c-2.6,4.7-5.3,8.2-8.2,10.4c0.1,0,0.2,0,0.2-0.1
		c0.1,0,0.1,0,0.2-0.1c0.1,0,0.1,0,0.2-0.1c1.5-0.4,3-0.7,4.6-1.1c0.6-0.1,1.3-0.3,1.9-0.4c1-0.2,2-0.4,3-0.6
		c0.8-0.2,1.7-0.3,2.5-0.5c0.8-0.2,1.7-0.3,2.5-0.5c1-0.2,2-0.3,3-0.5c-0.5-0.1-1.1-0.2-1.7-0.4c-1.1-0.4-2.3-0.9-3.8-1.6
		c-0.3-0.2-0.6-0.3-0.9-0.5c0,0-0.1-0.1-0.1-0.1c-0.2-0.2-0.5-0.4-0.7-0.6c-0.1-0.1-0.2-0.2-0.3-0.3c-0.1-0.1-0.3-0.3-0.4-0.4
		c-0.1-0.1-0.2-0.3-0.3-0.4c-0.1-0.1-0.2-0.3-0.3-0.4c-0.1-0.2-0.1-0.3-0.2-0.5c-0.1-0.1-0.1-0.3-0.2-0.4c-0.1-0.2-0.1-0.3-0.1-0.5
		c0-0.2-0.1-0.3-0.1-0.5c0-0.2,0-0.3,0-0.5c0-0.2,0-0.3,0-0.5c0-0.2,0-0.3,0-0.5C95.3,222.9,95.3,222.8,95.3,222.6z"/>
	<path class="st1" d="M133.9,46.2L133.9,46.2l-0.1-0.1l0-0.2l0,0.2C133.8,46.1,133.9,46.2,133.9,46.2c0.6,0,1.1,0.1,1.7,0.3
		c0,0,0.1,0,0.1,0v0l-0.1,0C135.1,46.3,134.5,46.2,133.9,46.2z"/>
	<path class="st1" d="M135.9,45.9c0.1,0.1,0.2,0.1,0.3,0.1C136.1,45.9,136,45.9,135.9,45.9C135.9,45.9,135.9,45.9,135.9,45.9z"/>
	<path class="st1" d="M136.8,43.9L136.8,43.9l0.3,0h0C136.9,43.9,136.9,43.9,136.8,43.9C136.8,43.9,136.8,43.9,136.8,43.9
		c-0.3,0.1-0.6,0.2-0.9,0.3c-0.1,0-0.2,0.1-0.3,0.1c0.1,0,0.2-0.1,0.3-0.1C136.2,44.1,136.5,44,136.8,43.9z"/>
	<path class="st1" d="M133.9,44.8l0.1-0.1c0,0,0,0,0,0C134,44.7,134,44.7,133.9,44.8C134,44.7,133.9,44.7,133.9,44.8
		c-0.1,0.3-0.1,0.7-0.1,1.1C133.8,45.5,133.8,45.1,133.9,44.8z"/>
	<path class="st1" d="M136.8,36.4c-0.7,0.2-1.4,0.4-2.1,0.6c-0.3,0.1-0.6,0.2-0.9,0.3c0.3-0.1,0.6-0.2,0.9-0.3
		C135.4,36.8,136.1,36.6,136.8,36.4z"/>
	<path class="st1" d="M139.5,43.2C139.5,43.2,139.5,43.2,139.5,43.2C139.5,43.2,139.5,43.2,139.5,43.2c2.7,0.5,3.5,2,3.8,4.4
		c0,0,0,0,0,0c0,0,0,0,0,0C142.9,45.3,142.2,43.8,139.5,43.2z"/>
	<path class="st1" d="M131,38.2c-0.3,0-0.5,0-0.8,0c0,0,0.1,0,0.1,0C130.5,38.3,130.8,38.3,131,38.2z"/>
	<path class="st1" d="M48.4,192.7c3.1-3.8,4.4-7.5,4.7-10c0-0.4,0.1-0.7,0.1-1c-1,0.3-2.4,1-4.5,2.3c-1.2,0.8-2.4,1.6-3.6,2.5
		c-0.8,0.6-1.5,1.3-2.3,2c-0.7,0.7-1.5,1.4-2.2,2.2c-3.2,3.5-6.1,7.8-8.7,12.7c-0.1,0.1-0.1,0.3-0.2,0.4c4-1,7.7-2.8,11-5.5
		C44.7,196.8,46.6,195,48.4,192.7z"/>
	<path class="st1" d="M128.8,212C128.8,212,128.8,212,128.8,212L128.8,212c-2.7,0-4.9-0.4-6.7-1.1c-1.1-0.4-1.9-1-2.7-1.7
		c-0.1-0.1-0.2-0.2-0.3-0.3c-0.4-0.4-0.8-0.9-1.1-1.5c-0.9,1.4-2,2.9-3,4.5c0,0,0,0,0,0.1c-1.4,2.2-2.6,6.8-2.6,6.8c0,0,0,0.1,0,0.1
		c-0.4,1.3-0.7,2.7-1.1,4.2c-0.5,2.4-0.8,3.6-1,4.4c0,0,0,0,0,0.1c0,0,0,0,0,0c-0.1,0.3-0.2,0.5-0.2,0.6c-0.4,1-1.1,1.9-2,2.4
		c0.6-0.1,1.1-0.2,1.7-0.3c0.6-0.1,1.2-0.2,1.8-0.3c1.3-0.2,2.7-0.4,4-0.5c0.5-0.1,0.9-0.1,1.4-0.2c1.5-0.2,3-0.4,4.5-0.5
		c0.3,0,0.7-0.1,1-0.1c1.7-0.2,3.3-0.3,5.1-0.5c0.2,0,0.3,0,0.4,0c2.5-0.3,5-0.6,7.5-0.8c0,0,0.1,0,0.1,0c2-0.2,3.9-0.4,5.9-0.5
		c0.5,0,1-0.1,1.5-0.1c0.2,0,0.4,0,0.6,0c-1.2-0.3-2.5-0.7-3.8-1.4c-0.3-0.2-0.7-0.3-1-0.5c-3.9-1.9-6.4-5.5-7-10
		c-0.1-1.1-0.2-2.4-0.2-3.9C130.8,211.6,129.9,212,128.8,212z"/>
	<path class="st1" d="M69.5,192.7c1.3-1.8,2.7-3.4,4.2-4.7c-0.4,0.3-0.9,0.4-1.5,0.5c-1.2,0.2-2.4,0.3-3.7,0.5
		c-0.7,1.8-1.7,3.8-2.9,5.9c-0.9,1.5-2,3-3,4.4c-1.1,1.4-2.2,2.7-3.4,3.9c-0.6,0.6-1.2,1.2-1.8,1.8c-6.3,5.9-14,9.8-22.5,11.3
		c0.4,0.5,0.8,1,1.1,1.5c2.7-0.3,6.7-1.1,12.1-2.6c0.6-0.2,1.2-0.4,1.8-0.6c0,0,0,0,0.1,0c0.4-0.1,0.8-0.2,1.2-0.4
		c2.7-0.9,4.7-1.8,6.1-2.5c1.3-0.6,2.1-1,3-1.1c0.2,0,0.4,0,0.5,0c0,0,0,0,0,0c0.4,0,0.8,0.1,1.2,0.2C63.4,204,65.9,198,69.5,192.7
		C69.5,192.7,69.5,192.7,69.5,192.7z"/>
	<path class="st1" d="M82.4,204.7c-1.4,2-2.6,4.3-3.5,6.9c-0.5,1.5-1,3-1.3,4.3c-0.6,2.6-0.9,4.9-0.8,6.9c0.1-0.1,0.2-0.3,0.3-0.5
		c0.8-1.1,1.7-2.7,2.6-4.8c2.4-5.6,3-9,3-11c0-0.1,0-0.3,0-0.4C82.8,206,82.7,205.4,82.4,204.7C82.4,204.7,82.4,204.7,82.4,204.7z"
		/>
	<path class="st1" d="M125,41.5c-0.3-0.2-0.7-0.3-1.1-0.5C124.3,41.2,124.7,41.3,125,41.5c0.6,0.3,1.1,0.6,1.7,1
		c0.2,0.1,0.3,0.2,0.4,0.3c-0.1-0.1-0.3-0.2-0.4-0.3C126.2,42.1,125.6,41.8,125,41.5z"/>
	<path class="st1" d="M120.2,40.5c-0.8,0.1-1.5,0.3-2.1,0.6C118.6,40.8,119.3,40.5,120.2,40.5c0.3,0,0.7,0,1,0c-0.1,0-0.2,0-0.3,0
		C120.6,40.4,120.4,40.5,120.2,40.5z"/>
	<path class="st1" d="M137.8,43.2c0.2,0,0.5,0,0.7,0c0,0-0.1,0-0.1,0C138.2,43.1,138,43.1,137.8,43.2z"/>
	<path class="st1" d="M137.8,47.8l0-0.1C137.8,47.7,137.8,47.8,137.8,47.8c0.1,0.2,0.3,0.3,0.4,0.4c0,0,0.1,0,0.1,0.1l-0.1-0.1
		C138.1,48.1,137.9,47.9,137.8,47.8z"/>
	<path class="st1" d="M117.9,34.6C117.9,34.6,117.9,34.6,117.9,34.6C117.9,34.6,117.9,34.6,117.9,34.6c-4.3,0.4-5.6,3.8-5.4,6.9
		c0,0.8,0.2,1.6,0.4,2.4c-0.2-0.8-0.4-1.6-0.4-2.4C112.3,38.4,113.6,35,117.9,34.6z"/>
	<path class="st1" d="M133,48.3c-0.1,0-0.2,0.1-0.4,0.1c0,0-0.1,0.1-0.1,0.1c0,0,0.1-0.1,0.1-0.1C132.7,48.4,132.8,48.3,133,48.3z"
		/>
	<path class="st1" d="M129.6,50.9c-0.2-0.4-0.4-0.9-0.9-1.2c-0.2-0.1-0.4-0.2-0.7-0.3c-0.3-0.1-0.6-0.1-0.9-0.1c0.3,0,0.6,0,0.9,0.1
		c0.3,0.1,0.5,0.1,0.7,0.3C129.2,49.9,129.5,50.4,129.6,50.9l0.1,0.2c0.2,0.4,0.4,1,0.3,1.5c0,0.1,0,0.1-0.1,0.2c0,0,0,0.1,0,0.1
		c0,0.1-0.1,0.1-0.1,0.1l0,0l0.1-0.1l0-0.1l0.1-0.2c0.1-0.5-0.1-1-0.3-1.5L129.6,50.9z"/>
	<path class="st1" d="M133.1,52.3c-0.4,0-0.7,0.1-0.9,0.1C132.4,52.4,132.7,52.3,133.1,52.3z"/>
	<path class="st1" d="M136.1,49.7l-0.1-0.2l0-0.1c-0.1-0.1-0.1-0.2-0.2-0.3c-0.1-0.1-0.2-0.2-0.3-0.3c-0.4-0.3-0.9-0.7-1.5-0.7
		c-0.1,0-0.2,0-0.3,0c-0.2,0-0.3,0-0.5,0.1c0.1,0,0.3-0.1,0.5-0.1c0.1,0,0.2,0,0.3,0c0.6,0,1.1,0.4,1.5,0.7c0.1,0.1,0.2,0.2,0.3,0.3
		c0.1,0.1,0.1,0.2,0.2,0.3l0,0.1C136,49.6,136,49.6,136.1,49.7c0.1,0.1,0.2,0.2,0.2,0.4c0.1,0.3,0.2,0.6,0.2,0.9
		c0,0.3,0,0.8-0.1,1.1c0,0.1-0.1,0.2-0.1,0.2c0,0-0.1,0.1-0.1,0.1h0l0.1-0.1l0.1-0.2c0.1-0.4,0.1-0.8,0.1-1.1c0-0.3,0-0.6-0.2-0.9
		C136.2,49.9,136.2,49.8,136.1,49.7z"/>
	<path class="st1" d="M126.7,54.9L126.7,54.9C126.7,54.8,126.7,54.9,126.7,54.9L126.7,54.9z"/>
	<path class="st1" d="M135.8,57.2c2-1.1,4-1.8,6.1-2.2c0.1,0,0.4-0.1,0.7-0.2c-0.3,0.1-0.6,0.1-0.7,0.2
		C139.8,55.3,137.7,56.1,135.8,57.2z"/>
	<path class="st1" d="M144.5,54.4c0.4-0.1,0.8-0.1,1.2-0.2c0.3,0,0.6,0,0.8,0l0.1,0c0,0,0.1,0,0.1,0c0,0-0.1,0-0.1,0l-0.1,0
		c-0.1,0-0.1,0-0.2,0c-0.2,0-0.4,0-0.6,0C145.3,54.3,144.9,54.4,144.5,54.4l-0.8,0.1c-0.2,0-0.3,0.1-0.5,0.1c0.1,0,0.3-0.1,0.5-0.1
		L144.5,54.4z"/>
	<path class="st1" d="M123.9,67c-0.3-0.9-0.4-1.2-0.4-1.3c-0.1-0.8-0.1-1.6-0.2-2.3c0-0.4,0-0.9-0.1-1.3l0-0.2
		c-0.1-0.9-0.1-1.7-0.2-2.6c-0.1-1.4-0.1-2.5,0-3.6c0.2,0.1,0.6,0.3,1.2,0.7c0,0,0.1,0,0.1,0.1c0,0-0.1,0-0.1-0.1
		c-0.6-0.4-1-0.6-1.2-0.7c0,1.1,0,2.2,0,3.6c0,0.9,0.1,1.7,0.2,2.6l0,0.2c0,0.4,0.1,0.9,0.1,1.3c0,0.8,0.1,1.6,0.2,2.3
		C123.5,65.8,123.6,66.1,123.9,67c0.1,0.1,0.2,0.2,0.2,0.4l0.4,0.4c0,0,0,0,0,0l-0.4-0.4C124.1,67.3,124.1,67.1,123.9,67z"/>
	<path class="st1" d="M126.8,54.8L126.8,54.8L126.8,54.8l0.1-0.1c0.1-0.1,1.6-1.2,2.6-1.6c-1,0.4-2.5,1.5-2.6,1.6
		C126.9,54.7,126.8,54.7,126.8,54.8z"/>
	<path class="st1" d="M136.9,45.6L136.9,45.6c-0.1,0.1-0.2,0.2-0.3,0.2C136.7,45.8,136.8,45.7,136.9,45.6z"/>
	<path class="st1" d="M122.3,49c-0.6-0.5-1-1.2-1.1-2c-0.1-1.6,1-3,2.6-3.1c0,0,0,0,0,0c0,0,0,0,0,0c-1.6,0.2-2.7,1.5-2.6,3.1
		C121.3,47.8,121.6,48.5,122.3,49C122.3,49,122.4,49,122.3,49c0.1,0,0.1,0,0.1,0L122.3,49L122.3,49z"/>
	<path class="st1" d="M123.8,47.6l0,0.2C123.9,47.7,123.9,47.6,123.8,47.6z"/>
	<path class="st1" d="M124.7,45.5c0.1,0,0.1,0,0.2,0L124.7,45.5L124.7,45.5z"/>
	<path class="st1" d="M124.9,45.5c0.1,0,0.1,0,0.2,0c0,0,0,0,0,0C125,45.5,125,45.5,124.9,45.5z"/>
	<path class="st1" d="M126.6,46.9c0,0,0.1,0,0.1,0c0,0,0.1,0,0.1,0l-0.1,0L126.6,46.9l-0.1-0.1l0-0.1c0,0,0,0,0,0c0,0,0,0,0,0l0,0.1
		C126.4,46.9,126.5,46.9,126.6,46.9z"/>
	<path class="st1" d="M218.1,197.5c-0.8,1.8-1.5,3.6-2,5.5c0.6-1,1.1-2.1,1.7-3.2c1.2-2.3,2.1-4.4,2.9-6.3c0.3-0.6,0.5-1.2,0.8-1.8
		c-0.7,1-1.6,2.3-2.5,4.1C218.6,196.3,218.4,196.9,218.1,197.5z"/>
	<path class="st2" d="M12.9,169.2c0.5,0,1-0.3,1.2-1.1c1-2.7,2.1-5,4-7.3c2-2.5,4.9-4.4,7.2-6.7c1.4-1.3,1.5-6.3-0.9-6.3
		c-0.2,0-0.5,0-0.8,0.1c-7.1,2.5-13.1,12.1-12.3,19.6C11.5,168.5,12.2,169.2,12.9,169.2z"/>
	<path class="st2" d="M144.5,54.4c0.4-0.1,0.8-0.1,1.2-0.2c0.2,0,0.4,0,0.6,0c0.1,0,0.1,0,0.2,0l0.1,0c0,0,0.1,0,0.1,0
		c0,0,0.1,0,0.1,0c0.1,0,0.2,0,0.3,0c0.1,0,0.2-0.1,0.2-0.2c0,0,0,0,0,0c0-0.1-0.2-0.3-0.4-0.4c-0.7-0.3-1.5-0.5-2.5-0.6
		c-0.1,0-0.3,0-0.5,0c0,0-0.1,0-0.1,0c-0.1,0-0.3,0-0.4,0c0,0-0.1,0-0.1,0c-0.2,0-0.3,0-0.5,0c-0.1,0-0.1,0-0.2,0
		c-0.1,0-0.2,0-0.4,0l-0.1,0c-0.3,0-0.7,0.1-1,0.2c-0.2,0-0.4,0.1-0.6,0.1c-0.4,0.1-0.7,0.1-1.1,0.1c0,0-0.1,0-0.1,0
		c-0.4-0.1-0.8-0.2-1.2-0.3c-0.1,0-0.2-0.1-0.2-0.2c0-0.1,0-0.2,0-0.3c0.3-0.5,0.4-1.1,0.4-1.8c-0.2-1.6-1.6-3.5-3.5-3.8
		c-0.3,0-0.6-0.1-0.8-0.1c-0.1,0-0.1,0-0.2,0c-0.2,0-0.5,0-0.7,0c-0.3,0-0.6,0.1-0.9,0.2c-0.8,0.3-1.4,0.8-2.1,1.5c0,0,0,0,0,0
		c0,0-0.1,0.1-0.2,0.1c0,0,0,0,0,0c0,0-0.1,0-0.1,0c0,0,0,0,0,0c-0.2-0.2-0.4-0.3-0.7-0.4c-0.1,0-0.2-0.1-0.2-0.1
		c-0.2-0.1-0.3-0.1-0.5-0.2c-0.1,0-0.2,0-0.3-0.1c-0.2,0-0.3-0.1-0.5-0.1c-0.1,0-0.2,0-0.3,0c-0.2,0-0.5,0-0.7,0
		c-0.7,0.1-1.3,0.2-1.8,0.5s-1,0.6-1.4,1.1c-0.6,0.8-0.9,1.8-0.8,2.9c0.2,1.6,1.2,2.9,2.8,3.3c0.1,0,0.2,0.2,0.2,0.3
		c0,0.2-0.1,0.3-0.2,0.4c-0.1,0.1-0.3,0.2-0.6,0.3c-0.1,0-0.1,0-0.2,0c-0.1,0-0.2-0.1-0.2-0.1c0,0-0.1,0-0.1-0.1
		c-0.6-0.4-1-0.6-1.2-0.7c0,1.1,0,2.2,0,3.6c0,0.9,0.1,1.7,0.2,2.6l0,0.2c0,0.4,0.1,0.9,0.1,1.3c0,0.8,0.1,1.6,0.2,2.3
		c0,0.1,0.1,0.4,0.4,1.3c0.1,0.1,0.2,0.2,0.3,0.4l0.4,0.4c0.3-0.5,0.6-1,0.8-1.5c0.2-0.4,0.3-0.6,0.4-0.7c0.8-1.2,1.8-2.3,2.9-3.3
		c0.4-0.4,0.9-0.8,1.3-1.2c0,0,0,0,0.1,0c0.5-0.4,0.9-0.8,1.4-1.1c1.3-0.9,2.6-1.8,4.2-2.7c0,0,0,0,0,0c2-1.1,4-1.8,6.1-2.2
		c0.1,0,0.4-0.1,0.7-0.2c0,0,0,0,0,0c0.2,0,0.4-0.1,0.7-0.2c0.1,0,0.3-0.1,0.5-0.1L144.5,54.4z M130,52.5l-0.1,0.2l0,0.1l-0.1,0.1
		l0,0c-0.1,0-0.2,0.1-0.2,0.1c-1,0.4-2.5,1.5-2.6,1.6l-0.1,0.1l0,0l0,0l0,0c-0.1,0.1-0.1,0.1-0.2,0.1c-0.2,0-0.3-0.1-0.4-0.1
		c-0.1,0-0.1-0.1-0.2-0.2l-0.1,0c0,0-0.1,0-0.1-0.1c-0.1-0.1-0.3-0.2-0.4-0.4c-0.9-0.9-1-2.4-0.4-3.5c0.5-0.8,1.4-1.4,2.3-1.5
		c0,0,0,0,0,0c0.3,0,0.6,0,0.9,0.1c0.3,0.1,0.5,0.1,0.7,0.3c0.5,0.3,0.7,0.8,0.9,1.2l0.1,0.2C129.9,51.5,130.1,52,130,52.5z
		 M136.4,52l-0.1,0.2l-0.1,0.1h0c0,0,0,0-0.1,0c-0.5-0.1-1-0.1-1.3-0.1l-0.1,0c-0.4,0-1,0-1.6,0c-0.4,0-0.7,0.1-0.9,0.1c0,0,0,0,0,0
		c-0.1,0-0.2,0-0.2-0.1l-0.1-0.1c-0.1,0-0.1-0.1-0.1-0.1c-0.2-0.2-0.3-0.5-0.4-0.9c0-0.2-0.1-0.4-0.1-0.5c0-0.4,0.1-0.8,0.3-1.2
		c0.2-0.3,0.5-0.7,0.8-0.9c0.1-0.1,0.1-0.1,0.2-0.1c0,0,0.1-0.1,0.1-0.1c0.1-0.1,0.2-0.1,0.4-0.1c0,0,0.1,0,0.1,0
		c0.2,0,0.3-0.1,0.5-0.1c0.1,0,0.2,0,0.3,0c0.6,0,1.1,0.4,1.5,0.7c0.1,0.1,0.2,0.2,0.3,0.3c0.1,0.1,0.1,0.2,0.2,0.3l0,0.1l0.1,0.2
		c0.1,0.1,0.2,0.2,0.2,0.4c0.1,0.3,0.2,0.6,0.2,0.9C136.5,51.3,136.5,51.7,136.4,52z"/>
	<path class="st2" d="M126.4,46.8l0.1,0.1l0.1,0l0.1,0c0,0,0-0.1,0-0.1l0-0.1c0-0.1,0-0.2,0-0.2c0-0.2-0.1-0.4-0.1-0.6
		c0,0,0-0.1,0-0.1c0-0.1-0.1-0.3-0.2-0.4c0-0.1-0.1-0.1-0.1-0.1c-0.1-0.1-0.1-0.2-0.2-0.3c0,0-0.1-0.1-0.1-0.1
		c-0.1-0.1-0.2-0.2-0.2-0.2c-0.1,0-0.1-0.1-0.2-0.1c-0.1-0.1-0.2-0.1-0.3-0.2c-0.1,0-0.1-0.1-0.2-0.1c-0.1,0-0.2-0.1-0.3-0.1
		c-0.1,0-0.1,0-0.2-0.1c-0.1,0-0.2-0.1-0.3-0.1c-0.1,0-0.2,0-0.2,0c-0.1,0-0.3,0-0.4,0c0,0,0,0,0,0c-1.6,0.1-2.7,1.5-2.6,3.1
		c0.1,0.8,0.5,1.5,1.1,2l0.1,0l0,0c0,0,0,0,0.1,0c0.4-0.5,0.8-0.9,1.3-1.2c0,0,0,0,0,0l0-0.2c0,0,0,0,0,0c-0.1-0.2-0.2-0.4-0.2-0.6
		c0-0.1,0-0.3,0-0.4h0c0.1,0,0.2,0,0.3,0c0.1,0,0.2,0,0.3-0.1c0,0,0,0,0.1,0c0.1-0.1,0.2-0.1,0.3-0.2c0.1-0.2,0.2-0.4,0.2-0.6
		c0-0.1,0-0.1-0.1-0.2h0v0l0.2,0c0,0,0,0,0,0h0c0,0,0.1,0,0.1,0c0,0,0,0,0,0c0.2,0,0.3,0,0.4,0.1c0,0,0,0,0.1,0
		c0.1,0.1,0.3,0.1,0.4,0.2c0,0,0,0,0,0c0.1,0.1,0.2,0.2,0.3,0.4c0,0,0,0,0,0C126.4,46.4,126.4,46.6,126.4,46.8
		C126.4,46.7,126.4,46.7,126.4,46.8L126.4,46.8z"/>
	<path class="st2" d="M137.9,47.6L137.9,47.6C137.8,47.7,137.8,47.7,137.9,47.6l0,0.2c0.1,0.2,0.3,0.3,0.4,0.4l0.1,0.1l0,0
		c0,0,0,0,0.1,0l0.1,0c0.1,0,0.1-0.1,0.2-0.1c1.1-1,1.2-1.3,1.1-2c0-0.1,0-0.1,0-0.2c-0.1-0.5-0.4-1-0.8-1.4
		c-0.1-0.1-0.3-0.2-0.4-0.3c0,0-0.1,0-0.1-0.1c-0.1,0-0.2-0.1-0.3-0.1c-0.1,0-0.1,0-0.2,0c-0.1,0-0.2,0-0.3,0c-0.1,0-0.1,0-0.2,0
		c-0.1,0-0.3,0-0.4,0l-0.2,0l0,0c-0.3,0.1-0.6,0.2-0.9,0.3c-0.1,0-0.2,0.1-0.3,0.1c-0.2,0.1-0.4,0.1-0.5,0.2c-0.3,0.1-0.9,0.2-1,0.2
		c0,0,0,0,0,0l-0.1,0.1c-0.1,0.3-0.1,0.7-0.1,1.1l0,0.2l0.1,0.1h0c0.6,0,1.1,0.1,1.7,0.3l0.1,0c0,0,0.1-0.1,0.1-0.1
		c0-0.2,0-0.3,0.1-0.4h0c0,0,0,0,0,0c0.1,0.1,0.2,0.1,0.3,0.1c0,0,0.1,0,0.1,0c0.1,0,0.2,0,0.2,0c0,0,0.1,0,0.1,0
		c0.1-0.1,0.2-0.1,0.3-0.2c0.1-0.2,0.2-0.4,0.2-0.6c0-0.1,0-0.1-0.1-0.2c0,0,0,0,0,0l0.1,0c0,0,0.1,0,0.1,0c0,0,0,0,0,0
		c0.2,0,0.3,0,0.5,0.1c0,0,0,0,0.1,0c0.1,0.1,0.3,0.1,0.4,0.2c0,0,0,0,0,0c0.1,0.1,0.2,0.2,0.3,0.4c0,0,0,0,0,0
		c0.1,0.1,0.1,0.3,0.1,0.5c0,0,0,0,0,0C138.8,46.7,138.4,47.3,137.9,47.6z"/>
	<path class="st2" d="M143.4,38.1c-0.7-0.8-2-1.8-3.6-1.9c-0.2,0-0.4,0-0.7,0c-0.2,0-0.4,0-0.6,0c-0.1,0-0.1,0-0.2,0
		c-0.5,0-1,0.1-1.5,0.3c-0.7,0.2-1.4,0.4-2.1,0.6c-0.3,0.1-0.6,0.2-0.9,0.3c-0.7,0.2-1.3,0.4-2.1,0.5c-0.1,0-0.1,0-0.1,0.1
		c-0.1,0-0.2,0.1-0.2,0.2c0,0.1-0.1,0.1-0.2,0.1l-0.1,0c0,0-0.1,0-0.1,0c-0.2,0-0.5,0-0.7,0c0,0-0.1,0-0.1,0c-0.1,0-0.2,0-0.3,0
		c-0.2,0-0.4,0-0.6,0c-0.1,0-0.2,0-0.3,0c-0.2,0-0.4-0.1-0.5-0.1c-0.1,0-0.2,0-0.3-0.1c-0.2-0.1-0.5-0.2-0.7-0.3c0,0,0,0,0,0
		c-0.8-0.3-1.6-0.8-2.5-1.2c-1.8-0.9-3.6-1.8-5.5-2c-0.6,0-1.1,0-1.6,0c0,0,0,0,0,0c-4.3,0.4-5.6,3.8-5.4,6.9c0,0.8,0.2,1.6,0.4,2.4
		c0,0,0,0.1,0,0.1c0.1,0.2,0.1,0.4,0.2,0.6c0,0.1,0,0.1,0.1,0.2c0.1,0.2,0.1,0.3,0.2,0.5c0,0.1,0.1,0.2,0.1,0.3
		c0.1,0.2,0.2,0.3,0.2,0.5c0.1,0.1,0.1,0.2,0.2,0.3c0.1,0.1,0.2,0.3,0.3,0.4c0.1,0.1,0.1,0.2,0.2,0.3c0.1,0.1,0.2,0.2,0.3,0.4
		c0.1,0.1,0.2,0.2,0.2,0.3c0.1,0.1,0.2,0.2,0.3,0.3c0.1,0.1,0.2,0.2,0.3,0.3c0.1,0.1,0.2,0.2,0.3,0.3c0.1,0.1,0.2,0.2,0.3,0.3
		c0.1,0.1,0.2,0.2,0.3,0.3c0.1,0.1,0.2,0.2,0.3,0.2c0.1,0.1,0.2,0.1,0.4,0.2c0.1,0.1,0.2,0.1,0.4,0.2c0.1,0.1,0.3,0.1,0.4,0.2
		c0.1,0.1,0.3,0.1,0.4,0.2c0.1,0,0.3,0.1,0.4,0.1c0.1,0,0.3,0.1,0.4,0.1c0.1,0,0.3,0.1,0.4,0.1c0.1,0,0.3,0.1,0.4,0.1
		c0.1,0,0.3,0,0.4,0c0.2,0,0.4,0,0.6,0c0,0,0.1,0,0.1,0c0,0,0,0,0,0c0,0,0.1-0.1,0.1-0.1c0.1-0.1,0.1-0.3,0.1-0.5
		c-0.3-1-1.2-1.3-2.2-1.7c-1.3-0.5-2.8-1.1-2.9-3.2c-0.1-1.8,0.6-3.1,1.9-3.8c0.6-0.3,1.3-0.6,2.1-0.6c0.2,0,0.4,0,0.7,0
		c0.1,0,0.2,0,0.3,0c0.1,0,0.3,0,0.4,0c0.3,0,0.5,0.1,0.8,0.1c0.1,0,0.3,0,0.4,0.1c0.3,0.1,0.6,0.1,0.8,0.2c0.1,0,0.2,0.1,0.3,0.1
		c0.4,0.1,0.7,0.3,1.1,0.5c0.6,0.3,1.1,0.6,1.7,1c0.2,0.1,0.3,0.2,0.4,0.3c0.1,0,0.1,0.1,0.2,0.1c0.1,0,0.2,0.1,0.2,0.1
		c0.1,0.1,0.3,0.2,0.4,0.2c0.1,0,0.2,0.1,0.3,0.1c0.1,0.1,0.3,0.1,0.4,0.2c0.1,0,0.2,0.1,0.3,0.1c0.1,0.1,0.2,0.1,0.4,0.2
		c0.1,0,0.2,0.1,0.3,0.1c0.1,0,0.2,0.1,0.4,0.1c0.1,0,0.2,0.1,0.3,0.1c0.1,0,0.2,0.1,0.4,0.1c0.1,0,0.2,0,0.3,0.1c0.1,0,0.3,0,0.4,0
		c0.1,0,0.2,0,0.4,0c0.2,0,0.5,0,0.7,0c0.3,0,0.6-0.1,0.9-0.1c0.6-0.1,1.1-0.3,1.7-0.4c0.9-0.3,1.8-0.5,2.7-0.6c0,0,0,0,0,0
		c0.2,0,0.4,0,0.6,0c0,0,0.1,0,0.1,0c0.3,0,0.7,0,1,0.1c0,0,0,0,0,0c2.7,0.5,3.5,2,3.8,4.4c0,0,0,0,0,0c0,0.1,0,0.2,0.1,0.2
		c0,0,0,0,0,0.1c0,0,0.1,0.1,0.1,0.1c0,0,0,0,0,0c0.1,0,0.1,0,0.2,0c0.1,0,0.2,0,0.2-0.1c0,0,0,0,0,0c2.4-1.7,1.8-4.9,1.4-6.3
		C145.2,40.3,144.5,39,143.4,38.1z"/>
	<path class="st2" d="M148.1,56.2c0,0-0.1,0-0.1,0c-0.1,0-0.1,0-0.2,0l-0.1,0l-0.5,0.1l-0.1,0c0,0,0,0-0.1,0c-0.1,0-0.2,0-0.3,0
		c-0.1,0-0.1,0-0.2,0.1c0,0,0,0,0,0l-0.1,0c-0.6,0.1-1.1,0.3-1.7,0.4c-2.7,0.7-5.4,1.4-7.9,2.6c0,0-0.1,0-0.1,0c0,0-0.1,0-0.1,0.1
		c-0.3,0.2-0.6,0.3-0.9,0.5c-0.2,0.1-0.5,0.3-0.7,0.4c-0.9,0.6-1.7,1.2-2.6,1.9c-0.8,0.7-1.6,1.4-2.4,2.2c-0.1,0.1-0.2,0.2-0.3,0.3
		v0c-0.1,0.1-0.2,0.2-0.3,0.3c-1,1-2.4,2.8-2.9,4.5c0,0.7-0.1,1.5,0.3,2.1c0.4,0.6,1.2,0.9,1.5,1.5c0.2,0.4,0.1,0.9-0.3,1.2
		c-0.1,0.1-0.2,0.1-0.3,0.1c0,0-0.1,0-0.1,0c0,0-0.1,0-0.1,0c0,0,0,0-0.1,0c-0.1,0-0.2,0-0.3,0c0,0-0.1,0-0.1,0
		c-0.1,0-0.2-0.1-0.4-0.1c0,0-0.1,0-0.1,0l0,0c0,0,0,0,0,0c-2.9-1-5-3.5-5.9-6.4c-0.5-1.8-0.9-3.7-0.8-5.7c0.1-1.5,1-5.3,0.4-7.4
		c0,0,0,0-0.1-0.1c-0.1-0.1-0.2-0.3-0.3-0.4c0,0,0-0.1-0.1-0.1c-0.1-0.1-0.3-0.2-0.4-0.3c-0.2-0.1-0.5-0.1-0.6-0.1
		c-0.1,0-0.1,0-0.2,0c-0.1,0-0.1,0-0.2,0c-0.1,0-0.1,0-0.2,0c-0.1,0-0.1,0-0.2,0.1c0,0-0.1,0-0.1,0c-0.2,0.1-0.4,0.2-0.6,0.3
		l-0.1,0.1c0,0,0,0,0,0c0,0-0.1,0.1-0.1,0.1c-0.6,0.5-1.2,1.2-1.7,1.9c-0.4,0.6-0.8,1.2-1.2,1.9c-1,1.8-1.7,3.8-2.2,6.1
		c-1.1,4.7-0.6,9.2,1.5,13.8c2.8,6.1,7.8,13.5,16.2,13.7c0,0,0.1,0,0.1,0c0.4,0.1,0.7,0.1,1.1,0.1c0.1,0,0.2,0,0.4,0
		c0.3,0,0.6,0,0.9,0c0.1,0,0.1,0,0.2,0c0.3,0,0.7-0.1,1-0.1c0.1,0,0.2,0,0.2,0c0.3-0.1,0.7-0.2,1-0.3c0,0,0,0,0,0
		c3.8-0.4,7-1.3,9.7-2.5c0.1-0.1,0.2-0.1,0.3-0.2c0.1-0.1,0.2-0.1,0.3-0.2c0.1-0.1,0.2-0.1,0.3-0.2c0.2-0.1,0.4-0.2,0.6-0.3
		c0.2-0.1,0.4-0.2,0.5-0.2c0.4-0.2,0.8-0.4,1.1-0.6c0.1-0.1,0.1-0.1,0.2-0.2c0,0,0,0,0,0c0.2-0.1,0.3-0.3,0.5-0.5c0,0,0,0,0,0
		c0.2-0.1,0.3-0.3,0.5-0.4c1.9-1.5,3.6-3.4,5.5-6.1c2.8-4,4.2-7.4,4.5-11.1c0.5-2.1,0.1-4.1-0.9-5.2c-0.2-0.2-0.3-0.3-0.5-0.5
		c-0.1,0-0.1-0.1-0.2-0.1c-0.1-0.1-0.3-0.2-0.4-0.2c-0.1,0-0.2-0.1-0.3-0.1c-0.1,0-0.3-0.1-0.5-0.1c-0.1,0-0.2,0-0.3,0
		c-0.2,0-0.4,0-0.7,0l0-0.2l0,0.2l0,0c0,0-0.1,0-0.1,0c0,0-0.1,0-0.1,0c0,0-0.1,0-0.1,0c-0.3,0-0.6-0.1-0.9-0.1c-0.1,0-0.2,0-0.3,0
		c-0.2,0-0.4,0-0.5,0c-0.3,0-0.6,0-0.9,0c-0.1,0-0.3,0-0.4,0c-0.4,0-0.9,0.1-1.3,0.2c-0.2,0-0.3,0.1-0.5,0.1
		c-0.8,0.2-1.5,0.3-2.3,0.6c0,0-0.1,0-0.1,0c0,0-0.1,0-0.1,0c-0.9,0.3-1.9,0.6-3.1,1c-0.2,0.1-0.3,0.1-0.5,0.2
		c-0.3,0.1-0.6,0.2-1,0.4l-0.2,0.1c-0.4,0.2-0.9,0.3-1.3,0.5c0,0,0,0,0,0c-0.4,0.2-0.9,0.4-1.3,0.6c0,0,0,0,0,0c-0.1,0-0.2,0-0.2,0
		c0,0,0,0,0,0c0,0,0,0,0,0c-0.1,0-0.1,0-0.2-0.1c0,0,0,0,0,0c-0.1,0-0.1-0.1-0.1-0.2c0-0.1-0.1-0.3,0.3-0.6c0.3-0.2,0.6-0.3,0.8-0.4
		c0.4-0.2,0.8-0.4,1.2-0.6c0.7-0.3,1.3-0.6,2-0.9c3.2-1.4,5.8-2.1,8.2-2.4l0.3,0c0.3,0,0.6,0,0.8-0.1c0.6,0,1.2-0.1,1.7-0.2l0,0
		c0,0,0,0,0.1,0c0,0,0.1,0,0.2,0c0,0,0,0,0,0c0,0,0,0,0,0c0.2,0,0.4-0.1,0.6-0.2c0.4-0.2,0.8-0.5,1-1c0.1-0.2,0.2-0.4,0.3-0.6
		c0.2-0.5,0.5-1,0.3-1.6c-0.2-1.1-0.6-1.8-1.3-2.2c0,0,0,0-0.1,0c-0.1-0.1-0.3-0.2-0.4-0.3c-0.1,0-0.1-0.1-0.2-0.1
		c-0.1,0-0.2-0.1-0.3-0.1c-0.1,0-0.2,0-0.2-0.1c-0.1,0-0.2-0.1-0.3-0.1c-0.1,0-0.2,0-0.3,0c-0.1,0-0.2,0-0.3,0c-0.1,0-0.2,0-0.4,0
		c-0.1,0-0.1,0-0.2,0c-0.1,0-0.3,0-0.4,0c-0.1,0-0.1,0-0.2,0c-0.2,0-0.3,0.1-0.5,0.1c-0.1,0-0.1,0-0.2,0c-0.2,0.1-0.5,0.1-0.7,0.2
		c-0.9,0.1-1.7,0.3-2.5,0.5L148.1,56.2z"/>
	<path class="st2" d="M158.9,98.6L158.9,98.6c-0.8,0.4-1.6,0.8-2.4,1.2c-4.8,2.5-9.5,5.4-14.1,8.3c-0.6,0.4-1.2,0.7-1.8,1.1
		c-0.2,0.1-0.5,0.3-0.7,0.4c-0.9,0.6-1.8,1.1-2.7,1.7c-0.3,0.2-0.5,0.3-0.8,0.4c0,0,0,0,0,0c0,0-0.1,0-0.1,0
		c-0.7,0.3-1.3,0.5-1.9,0.6c-0.1,0-0.2,0-0.3,0c0,0-0.1,0-0.1,0c-0.1,0-0.2,0-0.2,0c-0.1,0-0.2,0-0.4-0.1c-0.1,0-0.2,0-0.2,0
		c-0.1,0-0.3-0.1-0.4-0.1c-0.1,0-0.2,0-0.2-0.1c-0.2-0.1-0.3-0.1-0.5-0.2c0,0-0.1,0-0.1-0.1c-4.6-2.3-9.6-4.4-13.5-6.2
		c-2.7-1.2-4.4-2.9-5.3-5.3c-0.6-1.6-1.5-3-2.4-4.3c0.2,1.2,0.4,2.5,0.7,3.7c0.7,3.5,1.3,7.2,1.6,10.8c0.3,5,0.4,10.1,0.5,15
		c0.1,4.5,0.2,9.1,0.4,13.7c0,0.3,0.1,0.6,0.1,1c0.2-0.1,0.5-0.1,0.7-0.1h0c0,0,0.2,0,0.3,0c0,0,0,0,0,0c0,0,0,0,0,0
		c0.7-0.2,1.4-0.3,2-0.5c1-0.3,2-0.5,3-0.7c0.2,0,0.4-0.1,0.5-0.1c0.4-0.1,0.7-0.2,1.1-0.3c3.7-0.9,7.3-1.8,10.8-3
		c4.2-1.4,7.9-3,11.3-4.7c7.1-3.6,12.4-7.9,16.7-13.2c2.5-3.2,4.3-6.6,5.2-10.1c0.1-2.8,0.3-5.6,0.6-8.3l0-0.4
		c-0.2-2.4-0.8-4.9-1.7-7.4c-0.1-0.2-0.2-0.4-0.3-0.6c0,0-0.1-0.1-0.2-0.2C164.3,94.5,162.8,96.8,158.9,98.6z M146.4,112.6
		c-0.2,0.3-2.2,2-3.9,3.2c-0.6,0.4-1.1,0.8-1.5,1.1c-0.4,0.2-0.8,0.5-1.1,0.9c-1.2,1-2.4,2.3-2.9,3.9c-0.2,0.6-0.1,1,0.1,1.3
		c0.2,0.3,0.8,0.4,1.3,0.3c0,0,0.1,0,0.1,0c0.4-0.2,0.8-0.5,1.2-0.9c0,0,0,0,0,0l0,0c0.1-0.1,0.1-0.1,0.2-0.1c0.1,0,0.2,0.1,0.2,0.2
		l0,0c0.4,0.9,0.3,2-0.3,3c-0.4,0.6-0.9,1.2-1.4,1.7c-0.2,0.2-0.4,0.4-0.6,0.6c-2.9,2.7-6.1,5.3-9.7,6.2c-0.1,0-0.2,0.1-0.3,0.1
		c-0.1,0-0.1,0-0.2,0c-0.5,0.1-1,0.2-1.5,0.2c0,0,0,0,0,0c-0.1,0-0.2,0-0.3,0c-0.1,0-0.2,0-0.2-0.1c0,0,0-0.1,0-0.1
		c-0.1,0-0.3,0-0.4-0.1c-0.1,0-0.2-0.1-0.2-0.2c0-0.1,0-0.2,0.1-0.2c0,0,0,0,0,0c0.2-0.2,0.5-0.4,0.7-0.6c0.1-0.1,0.3-0.2,0.4-0.3
		c1.1-3.3,0.1-7.2-2.4-9.6l-0.1-0.1c-0.3-0.3-0.7-0.7-0.9-1.1c-0.1-0.4-0.1-0.8,0-1.1c0.1-0.2,0.3-0.4,0.5-0.5c0,0,0.1-0.1,0.1-0.1
		l0.2,0c0.6-0.1,1.1,0.5,1.6,1c0.8,1,2.1,1.6,3.4,1.6c0.1,0,0.2,0,0.2,0c0.1,0,0.2,0,0.2-0.1c0.1-0.1,0.1-0.3,0.1-0.5c0,0,0,0,0,0
		c-0.2-4.4-4.1-7.7-6.4-9.2c-0.3-0.2-1.1-0.8-1.3-1.6c0-0.1,0-0.3,0-0.4c0-0.1,0.1-0.3,0.2-0.4c0.2-0.3,0.5-0.4,0.8-0.5
		c0.7-0.1,1.6,0.5,1.9,0.7c4.2,3.2,7.6,4.6,10.7,4.3c1.7-0.1,3.2-0.8,4.9-1.7c1.2-0.7,2.4-1.5,3.7-2.3l0.2-0.1l0,0
		c0.1-0.1,0.3-0.2,0.4-0.3c0.4-0.3,0.8-0.5,1.1-0.6c0.1-0.1,0.3-0.1,0.4-0.1c0.1,0,0.2,0,0.3,0c0.5,0.2,0.8,0.6,0.9,1.1
		C146.9,111.6,146.7,112.2,146.4,112.6z"/>
	<path class="st0" d="M129.9,52.7c0,0,0-0.1,0.1-0.2c0.1-0.5-0.1-1-0.3-1.5l-0.1-0.2c-0.2-0.4-0.4-0.9-0.9-1.2
		c-0.2-0.1-0.4-0.2-0.7-0.3c-0.3-0.1-0.6-0.1-0.9-0.1c0,0,0,0,0,0c-1,0.1-1.9,0.6-2.3,1.5c-0.6,1.1-0.4,2.6,0.4,3.5
		c0.1,0.2,0.3,0.3,0.4,0.4c0,0,0.1,0.1,0.1,0.1l0.1,0c0.1,0.1,0.1,0.1,0.2,0.2c0.1,0.1,0.2,0.1,0.4,0.1c0.1,0,0.1,0,0.2-0.1
		c0,0,0,0,0-0.1l0,0c0.1,0,0.1-0.1,0.1-0.1c0.1-0.1,1.6-1.2,2.6-1.6c0.1,0,0.2-0.1,0.2-0.1c0.1,0,0.1-0.1,0.1-0.1
		C129.9,52.8,129.9,52.7,129.9,52.7z"/>
	<path class="st0" d="M136.3,52c0.1-0.4,0.1-0.8,0.1-1.1c0-0.3,0-0.6-0.2-0.9c-0.1-0.1-0.1-0.2-0.2-0.4c0-0.1-0.1-0.1-0.1-0.2l0-0.1
		c-0.1-0.1-0.1-0.2-0.2-0.3c-0.1-0.1-0.2-0.2-0.3-0.3c-0.4-0.3-0.9-0.7-1.5-0.7c-0.1,0-0.2,0-0.3,0c-0.2,0-0.3,0-0.5,0.1
		c0,0-0.1,0-0.1,0c-0.1,0-0.2,0.1-0.4,0.1c0,0-0.1,0.1-0.1,0.1c-0.1,0-0.1,0.1-0.2,0.1c-0.3,0.3-0.6,0.6-0.8,0.9
		c-0.2,0.4-0.3,0.8-0.3,1.2c0,0.2,0.1,0.4,0.1,0.5c0.1,0.3,0.2,0.6,0.4,0.9c0,0,0.1,0.1,0.1,0.1l0.1,0.1c0.1,0.1,0.1,0.1,0.2,0.1
		c0,0,0,0,0,0c0.2-0.1,0.6-0.1,0.9-0.1c0.6,0,1.2-0.1,1.6,0l0.1,0c0.3,0,0.8,0,1.3,0.1c0,0,0,0,0.1,0c0.1,0,0.1,0,0.1-0.1
		C136.3,52.2,136.3,52.1,136.3,52z"/>
	<path class="st0" d="M146.4,112.6c0.3-0.4,0.4-1,0.3-1.5c-0.1-0.5-0.5-0.9-0.9-1.1c-0.1,0-0.2,0-0.3,0c-0.1,0-0.2,0-0.4,0.1
		c-0.3,0.1-0.7,0.4-1.1,0.6c-0.1,0.1-0.3,0.2-0.4,0.3l0,0l-0.2,0.1c-1.3,0.9-2.5,1.7-3.7,2.3c-1.6,0.9-3.2,1.5-4.9,1.7
		c-3.1,0.3-6.5-1.1-10.7-4.3c-0.3-0.2-1.1-0.8-1.9-0.7c-0.3,0-0.6,0.2-0.8,0.5c-0.1,0.1-0.1,0.3-0.2,0.4c0,0.1,0,0.3,0,0.4
		c0.1,0.7,0.9,1.3,1.3,1.6c2.3,1.5,6.1,4.7,6.4,9.2c0,0,0,0,0,0c0,0.2,0,0.4-0.1,0.5c0,0-0.1,0.1-0.2,0.1c-0.1,0-0.2,0-0.2,0
		c-1.3-0.1-2.5-0.7-3.4-1.6c-0.4-0.5-0.9-1.1-1.6-1c-0.1,0-0.1,0-0.2,0c0,0-0.1,0-0.1,0.1c-0.2,0.1-0.4,0.2-0.5,0.5
		c-0.2,0.3-0.2,0.8,0,1.1c0.2,0.5,0.5,0.8,0.9,1.1l0.1,0.1c2.5,2.4,3.4,6.2,2.4,9.6c-0.1,0.1-0.3,0.2-0.4,0.3
		c-0.2,0.2-0.5,0.4-0.7,0.6c0,0,0,0,0,0c-0.1,0.1-0.1,0.1-0.1,0.2c0,0.1,0.1,0.2,0.2,0.2c0.1,0,0.3,0,0.4,0.1c0,0,0,0.1,0,0.1
		c0.1,0.1,0.1,0.1,0.2,0.1c0.1,0,0.2,0,0.3,0c0,0,0,0,0,0c0.5,0,1-0.1,1.5-0.2c0.1,0,0.1,0,0.2,0c0.1,0,0.2-0.1,0.3-0.1
		c3.6-1,6.8-3.6,9.7-6.2c0.2-0.2,0.4-0.4,0.6-0.6c0.5-0.5,1-1,1.4-1.7c0.6-1,0.7-2.2,0.3-3c0,0,0,0,0,0c0-0.1-0.1-0.1-0.2-0.2
		c-0.1,0-0.2,0-0.2,0.1c0,0,0,0,0,0c0,0,0,0,0,0c-0.3,0.3-0.7,0.7-1.2,0.9c0,0-0.1,0-0.1,0c-0.5,0.2-1,0.1-1.3-0.3
		c-0.2-0.3-0.2-0.7-0.1-1.3c0.4-1.6,1.6-2.9,2.9-3.9c0.4-0.3,0.8-0.6,1.1-0.9c0.4-0.3,0.9-0.7,1.5-1.1
		C144.2,114.6,146.2,112.9,146.4,112.6z"/>
	<path class="st2" d="M244.7,197.2c-1.7,0-4,1.4-4.5,2.6c-1.2,3-1.8,6.4-3.3,9.3c-0.9,1.6-1.9,3-3,4.2c-1,0.9-1.8,1.3-2.1,1.3
		c0,0,0,0,0,0c-0.8-0.1-1-1.8-0.9-5c0.2-2.9,1.7-8.6,4.5-17.1l2-6c0.1-0.6,0.3-1.2,0.6-1.8c0.4-1.4,0.4-2.1,0.3-2.6
		c-0.3-1.9-1.6-3.2-4-4c-1.2-0.4-2.4-0.5-3.3-0.5c-0.8,0-1.3,0.1-1.4,0.4l-0.9,3.7c-3.5-2.8-6.4-4.2-8.8-4.2c-0.3,0-0.5,0-0.8,0.1
		c-0.5,0.1-1,0.2-1.5,0.3c-3.4,1-6.4,3.7-8.9,8.3c-2.4,4.2-4,8.8-5,13.6c-0.9,1.1-1.9,2.3-2.9,3.7c-4,5.1-7.9,8.1-9.7,8.6
		c-0.1,0-0.2,0.1-0.3,0.1c-0.1,0-0.1,0-0.2,0c-1.1,0-1.8-1.5-2-4.6c-0.1-1.1-0.1-3.2,0.2-6.2c4-5.4,7-9.9,8.9-13.3
		c4.9-8,8.4-15.4,10.3-22.3c2.5-9,3.3-15.7,2.7-19.9c-0.3-1.2-1-2.5-2.2-4c-1.2-1.5-2.5-2.7-3.6-3.4c-1.7-0.9-3.1-1.4-4.3-1.4
		c-0.5,0-1,0.1-1.4,0.4c-0.9,0.6-2.8,3.5-6.4,13.1c-1.5,4.1-3.1,8.8-4.5,14.1c-0.2,0.8-0.4,1.5-0.6,2.3c-4.3,16.3-6.6,28.9-6.9,37.8
		l-2.8,2.9c-4.9,4.8-10.1,8.2-11.8,8.5c-0.1,0-0.1,0-0.2,0c-1.1,0-1.9-1.7-2.1-5.1c-0.3-3.2,0.2-8.5,1.4-15.8
		c7.6-5,13.6-14.5,17.7-28.4c1.7-5.8,2.9-11.6,3.6-17.4c0.7-5.9,0.7-9.9,0-12.5c-0.6-2.3-2.6-4.5-5.9-6.5c-1.7-0.9-3.1-1.4-4.3-1.4
		c-0.5,0-1,0.1-1.4,0.4c-0.8,0.6-3.1,4.8-6.9,16.2c-1.8,5.7-3.6,12-5.2,18.9c-3.9,17.2-6,30.4-6.4,39.6c-0.8,1.3-1.8,2.7-3,4.4
		c-3.5,4.6-7.7,9.1-9.2,9.3c0,0-0.1,0-0.1,0c-0.4,0-0.7-0.5-0.9-1.5c0-0.1,0-0.3-0.1-0.4c0-0.4-0.1-0.8-0.1-1.2
		c0-3.2,1.1-8.2,3.3-15.1c2.3-6.9,4.3-12.1,4.7-14.1c0.5-2.8,0.2-3.5-2.3-5.1c-1.2-0.9-2.9-1.2-4.3-1.2c-0.9,0-1.7,0.1-2,0.3
		l-2.8,8.5c-3.5,13-4.9,21.9-4.3,26.6c0.4,3.2,2.1,5.6,4.9,6.9c2.2,1.2,4.1,1.7,5.5,1.7c0.2,0,0.4,0,0.6,0c2.6-0.3,5.6-4.1,9.1-11.3
		c0.3-0.6,0.6-1.3,0.9-1.9c0.1,0.8,0.1,1.6,0.2,2.3c0.4,3,1,5,1.8,5.9c0.7,0.9,2.2,1.9,4.3,2.9c1.9,0.9,3.5,1.4,4.8,1.4
		c0.2,0,0.5,0,0.7,0c2-0.3,5.8-3.7,11.6-10.2c0.4-0.4,0.8-0.9,1.2-1.3c0.6,1.8,1.2,3.2,2,4c0.8,0.9,2.3,1.7,4.4,2.6
		c1.8,0.8,3.3,1.2,4.5,1.2c0.3,0,0.5,0,0.8-0.1c2.6-0.3,5.6-3.1,8.9-8.2c0.3-0.4,0.6-0.9,0.9-1.3c-0.1,5.4,0.7,9,2.4,10.8
		c1.9,2.1,5.1,3.5,7.9,3.5c0.3,0,0.7,0,1-0.1c0.5-0.1,1.3-1,2.2-2.6c0.6-1.1,1.3-2.6,2.2-4.5c1.2-2.8,2.7-6.4,4.3-10.8
		c-0.1,1.9-0.1,3.6,0,5.2c0.3,3.2,1.4,5.5,3.4,6.8c2.8,1.9,5.2,2.8,7.2,2.8c0.3,0,0.5,0,0.8,0c1.6-0.2,3.2-1.6,4.9-4
		c0.9-1.2,1.7-2.5,2.4-3.7c3.3-3.9,5.4-8.9,5.2-13.3C246.5,197.7,245.7,197.2,244.7,197.2z M191.3,188.1c3.2-14.3,7.4-28,12.6-40.8
		c1.2,0.5,1.6,6.5-0.3,15c-2.3,10.6-6.6,20.2-13,29.1L191.3,188.1z M166.5,189.2c6.5-30.6,10.9-47.3,13.3-50
		c0.6,1.3,1.1,5.7,0.2,14.8c-0.4,4.5-1.2,8.5-2.2,12.4c-2.6,10.2-6.5,18.3-11.5,24L166.5,189.2z M222.1,199.9
		c-0.3,0.5-0.5,1.1-0.8,1.7c-2,3.9-3.8,7.2-5.6,10c-0.3,0.4-0.5,0.8-0.8,1.1c-1.9,3-3,4.5-3.4,4.5c0,0,0,0-0.1,0
		c-0.7,0-1.1-1.5-1-4.6c0.2-6.7,1.9-13,4.9-18.7c3-5.7,6-8.8,9-9.2c0.2,0,0.4,0,0.5,0c0.8,0,1.8,0.2,2.9,0.6l-1.4,4.5
		C225.4,192.7,223.9,196.1,222.1,199.9z"/>
	<path class="st0" d="M249.7,195.8c-1-1.6-2.8-2.6-4.9-2.6c0,0,0,0,0,0s0,0,0,0c-0.2,0-0.4,0-0.7,0c-0.1,0-0.1,0-0.2,0
		c-0.2,0-0.3,0-0.5,0.1c-0.1,0-0.2,0-0.2,0c-0.2,0-0.4,0.1-0.5,0.1c-0.1,0-0.1,0-0.2,0c-0.2,0.1-0.5,0.1-0.7,0.2c0,0-0.1,0-0.1,0.1
		c-0.2,0.1-0.4,0.2-0.6,0.2c-0.1,0-0.1,0.1-0.2,0.1c-0.2,0.1-0.3,0.2-0.5,0.3c-0.1,0-0.1,0.1-0.2,0.1c-0.2,0.1-0.4,0.3-0.7,0.4
		c0,0,0,0,0,0c-0.2,0.1-0.4,0.3-0.6,0.5c0,0,0,0-0.1,0c0.2-0.5,0.4-1.1,0.5-1.7l2-6c0-0.1,0.1-0.2,0.1-0.3c0.1-0.5,0.2-0.9,0.4-1.2
		c0.1-0.2,0.1-0.4,0.2-0.5c0.4-1.3,0.5-2.3,0.5-3.3c0-0.3,0-0.6-0.1-0.9c-0.3-2-1.3-4.5-4.4-6.3c-0.2-0.1-0.4-0.2-0.6-0.3
		c0,0,0,0-0.1,0c-0.1,0-0.1,0-0.2-0.1c-0.5-0.2-1-0.4-1.6-0.6c0,0-0.1,0-0.1,0c-0.1,0-0.3-0.1-0.4-0.1c-1.4-0.4-2.8-0.6-4-0.6
		c-2.4,0-3.7,0.9-4.5,1.8c-2.4-1.3-4.5-1.9-6.6-1.9c-0.4,0-0.8,0-1.2,0.1c0,0-0.1,0-0.1,0c-0.3,0-0.5,0.1-0.8,0.1
		c-0.1,0-0.2,0-0.2,0c0,0-0.1,0-0.1,0c-1.3,0.3-2.5,0.7-3.7,1.3c-0.2,0.1-0.4,0.2-0.6,0.3c-0.1,0.1-0.2,0.1-0.3,0.2
		c-2.9,1.8-5.5,4.7-7.7,8.6c0,0,0,0,0,0.1c-0.4,0.7-0.7,1.4-1.1,2.1c-0.1,0.2-0.2,0.4-0.3,0.7c-0.3,0.6-0.6,1.3-0.9,1.9
		c-0.1,0.3-0.3,0.7-0.4,1c-0.2,0.4-0.3,0.8-0.5,1.3c-0.2,0.4-0.3,0.8-0.4,1.2c-0.1,0.3-0.2,0.5-0.3,0.8c-0.3,0.8-0.5,1.7-0.7,2.5
		c-0.1,0.2-0.1,0.4-0.2,0.6c-0.1,0.5-0.3,1.1-0.4,1.6c-0.1,0.1-0.1,0.1-0.2,0.2c-0.3,0.3-0.5,0.7-0.8,1c-0.1,0.1-0.2,0.2-0.3,0.3
		c-0.2,0.2-0.3,0.4-0.5,0.6c-0.2,0.3-0.4,0.5-0.6,0.8c0,0,0,0,0,0.1c-2,2.5-3.8,4.3-5.2,5.5c0-0.1,0-0.2,0-0.3c0-0.1,0-0.2,0-0.3
		c0-0.7,0-1.6,0.2-3.1c1.4-1.9,2.7-3.8,3.9-5.5c1.4-2.1,2.7-4.1,3.7-5.9c0.3-0.5,0.5-0.9,0.8-1.3c5.2-8.5,8.7-16.1,10.7-23.3
		c2.6-9.4,3.6-16.7,2.8-21.6c0-0.1,0-0.2,0-0.2c0-0.1-0.1-0.3-0.1-0.4c-0.3-1.1-0.8-2.3-1.7-3.5c-0.4-0.5-0.8-1.1-1.2-1.7
		c0-0.1-0.1-0.1-0.2-0.2c-0.7-0.9-1.8-2-2.9-3c-0.5-0.4-1.1-0.8-1.6-1.1c0,0-0.1-0.1-0.1-0.1c-2.4-1.3-4.4-1.9-6.1-1.9
		c-1.3,0-2.4,0.3-3.4,0.9c0,0-0.1,0-0.1,0.1c-1.2,0.7-2.6,2.1-5.3,8.2c-0.2,0.4-0.4,0.8-0.6,1.3c0.1-2.1,0-3.8-0.1-5.3
		c-0.1-0.9-0.3-1.7-0.4-2.5c-0.8-3-3-5.7-6.3-7.9c-0.5-0.3-1-0.6-1.5-0.9c0,0-0.1-0.1-0.1-0.1c-1.8-1-3.4-1.5-4.8-1.8
		c-0.5-0.1-0.9-0.1-1.4-0.1c-0.1,0-0.2,0-0.3,0c0-0.3,0-0.5,0-0.8c0.1-0.5,0.2-1.1,0.4-1.7c0.8-2.7,1.4-5.5,1.9-8.7
		c0.2-0.6,0.5-1.3,0.7-1.9l0.3-0.9c0.4,0.2,0.7,0.5,1,0.9c0.2,0.3,0.5,0.4,0.9,0.4c0.3,0,0.6-0.3,0.8-0.6c1.6-4.1,1.9-8.7,1.1-13
		c0.6,0.5,1.1,1.1,1.5,1.8c0.2,0.3,0.5,0.4,0.8,0.4c0.5,0,0.8-0.4,0.8-0.8c0.4-5-0.5-9.9-2.8-14.4c-0.2-0.4-0.3-0.6-0.5-0.9
		c0-0.2,0-0.4,0.1-0.5c0.2-0.2,0.4-0.1,0.5,0c0.2,0.1,0.4,0.3,0.6,0.5c0.1,0.1,0.2,0.1,0.3,0.1l0.3-0.1c0.1,0,0.2-0.2,0.2-0.3
		c-0.4-1.8-1.1-3.6-2.1-5.2c-0.8-1.3-1.8-2.5-2.7-3.6c-0.5-0.5-0.9-1.1-1.4-1.6c-0.6-0.6-1.3-1.2-2.1-1.8c-3.4-3.4-9.2-6.2-14.1-6.8
		c-0.2,0-0.4,0-0.6-0.1c-0.2-0.1-0.3-0.2-0.5-0.3c-0.4-0.2-0.9-0.4-1.1-0.8c-0.9-1.2-0.8-2-0.7-3.2c0-0.3,0.1-0.7,0.1-1.1
		c0-0.3,0-0.5,0-0.7c0.2-1.4-0.2-2.7-1.1-3.9c-1.3-1.6-3.6-2.8-6.1-3c-0.7-0.1-2.3-1.1-2.8-2.4c-0.3-0.7-0.1-1.4,0.5-2.1
		c0.6-0.5,1.1-1,1.7-1.6l0.3-0.3c0.4-0.4,0.8-0.9,1.2-1.2c0,0,0.1-0.1,0.1-0.1c1.2-2.3,1.9-5,2.2-7.7c0.3-2.5,0.2-5.1-0.3-7.6
		c0-0.1-0.1-0.2-0.2-0.2c-0.1,0-0.2,0.1-0.3,0.2l-1.1,2.7c-0.5-0.6-0.7-1.4-0.9-2.3c-0.8-3.4-1.6-7-1.6-10.7c0-2.8,0.6-6.8,3.3-10
		c0.1-0.1,0.1-0.2,0-0.3c0-0.1-0.1-0.2-0.2-0.2c-1.8-0.1-3.6,0.1-5.3,0.7c2-2.1,4.9-3.3,7.8-3.4c0.1,0,0.2-0.1,0.3-0.2
		c0-0.1-0.1-0.3-0.2-0.3c-3.6-1-7.4-1.3-11.2-0.9c-2.3,0.2-4.5,0.6-6.7,1.3c0.7-1,0.8-2.4,0.4-3.5c0-0.1-0.1-0.2-0.3-0.2
		c-0.1,0-0.2,0.1-0.2,0.2c-0.2,1.7-2.4,2.2-4.2,2.6c-2.9,0.7-5.6,2.2-7.8,4.2c0.3-1.5,1.2-2.8,2.4-3.7c0.1-0.1,0.1-0.2,0.1-0.3
		c-0.1-0.1-0.2-0.2-0.3-0.1c-5.1,1.2-10.3,2.4-15,5.1c-4.1,2.4-7.1,5.6-8.3,9.2c-0.8-0.8-1.5-1.8-1.5-2.8c0-0.1-0.1-0.3-0.2-0.3
		c-0.1,0-0.3,0.1-0.3,0.2c-0.1,0.6-0.2,1.3-0.3,2c-0.1,1.1-0.3,2.2-0.7,3.1c-0.1,0.3-0.3,0.6-0.4,0.9c-0.2,0.4-0.4,0.8-0.6,1.3
		c-0.9,2.1-1.1,4.4-1.2,6.4c-0.1,2.1-0.1,4.2,0,6.3c0.1,1.6,0.2,3.3,0.5,4.9c0.4,2.9,1.1,5.7,1.9,8.5c-0.2,0.6-0.4,1.1-0.7,1.5
		c-1.6,2.2-3.5,4.5-5.9,6.9c-1.2,1.2-2.5,2.1-3.7,2.5C82.1,64.4,73,71,65.8,80c-0.7,0.9-1.2,2-1.6,3c-0.8,1.4-1.5,2.8-2.1,4.3
		c-0.8,2.1-1.2,4.2-1.3,6.4v0c0,0.1,0.1,0.3,0.3,0.3l0.4,0c0.1,0,0.2-0.1,0.3-0.2c0.1-0.3,0.3-0.6,0.5-0.8c0.2-0.1,0.4-0.3,0.7-0.1
		c0.1,0.1,0.2,0.2,0.2,0.4c0,0.1,0,0.1,0,0.2c-1.3,4.7-1.2,9.6,0.1,14.3c0.1,0.4,0.5,0.7,1,0.7c0.2,0,0.4-0.1,0.6-0.3
		c0.1-0.1,0.2-0.2,0.2-0.3c0.3-0.7,0.7-1.4,1.2-2c0,4.4,1.2,8.8,3.5,12.6c0.2,0.3,0.5,0.5,0.8,0.4c0.3,0,0.6-0.2,0.8-0.6
		c0.3-0.8,1-1.3,1.8-1.5c3.1,3.4,4,8.9,4.7,13.8c0.1,0.5,0.1,1,0,1.5c-0.2,3-0.5,5.3-1.2,8.3c-0.1,0.5-0.2,1-0.4,1.4
		c-0.2,0.9-0.5,1.9-0.7,2.9c-0.3,1.6-0.4,3.2-0.4,5.1c-0.1,3,0,6,0.1,9.1l-0.1,0.7c-0.2,1.7-0.4,3.5-0.3,5.3
		c0.1,2.4,0.6,4.7,1.5,6.9c0,0.1,0.2,0.2,0.3,0.2c0.1,0,0.3-0.1,0.3-0.2c0-0.1,0-0.3,0-0.5c0-0.2,0-0.5,0.1-0.7l0.1-0.4
		c0.1-0.1,0.2-0.2,0.3-0.3c0.1,0.2,0.2,0.4,0.2,0.6c0.1,1.5,0.2,3.1,0.2,4.6c0.1,3.1,0.2,6.3,1.1,9.3c-1.8,0.8-3.4,1.9-5,3.3
		c0.4-0.4,0.7-1,0.8-1.8c0.2-1.1,0.3-2.1,0.5-3.2l0.2-1.6c-0.1-1-0.1-1.9-0.2-2.8c-0.1-1.5-0.2-3.1-0.4-4.6c0-0.4-0.3-0.8-0.5-1
		c-0.1-0.1-0.1-0.1-0.2-0.1c-0.3,0.1-0.6,0.3-0.8,0.6l-0.2,0.5c0,0.1,0,0.2-0.1,0.4c-0.7-1.9-1.2-3.8-1.3-5.9
		c-0.1-1.7,0.1-3.5,0.2-5.2l0.1-0.7c-0.2-3.1-0.3-6.2-0.3-9.1c0-1.5,0-3.3,0.3-5c0.1-0.9,0.4-1.9,0.6-2.8c0.1-0.5,0.2-1,0.3-1.5
		c0.8-3.9,1.3-7.2,1.5-9.9c0-0.6,0-1.3-0.1-1.9c-0.1-0.5-0.2-1-0.3-1.6c-0.7-4.2-1.4-8.2-4.4-11.2c-0.1-0.1-0.2-0.1-0.2-0.1
		c-0.9,0.1-1.4,1.4-1.8,2.3c-0.1,0.2-0.1,0.3-0.2,0.4c-0.1,0.1-0.2,0.2-0.3,0.2c-0.1,0-0.2,0-0.3-0.2c-1-1.6-2.5-4-3.6-6.5
		c0-0.1-0.1-0.2-0.2-0.2c-0.1,0-0.2,0-0.3,0.1l-0.6,0.9c-0.8,1.3-1.6,2.7-2.5,4.1c-0.1,0.1-0.2,0.3-0.3,0.4
		c-0.4,0.6-0.8,1.3-1.3,1.6c-7.1,3.4-11.6,9.2-13.4,17.2c0,0,0,0.1,0,0.1l0.5,4c0,0,0,0,0,0.1l1.4,3.3c1.8,4.4,3.8,8.9,5.6,13.4
		c0.1,0.3,0.1,0.9-0.1,1.1c-1.5,1.8-1.3,3.6-0.7,5.2c-1.3-0.3-2.5-0.5-3.6-0.5c-0.4,0-0.9,0-1.3,0.1c-2.7,0.4-5.4,1.2-8,2.5
		c0.5-0.6,0.8-1.3,0.9-2.1c0-0.1,0-0.2,0-0.2v0c0,0,0,0,0,0c0.1-0.8-0.1-1.5-0.3-2.1c0,0-0.1-0.1-0.1-0.1c-0.1-0.1-0.1-0.3-0.2-0.4
		c-0.1-0.1-0.2-0.2-0.2-0.3c-0.1-0.1-0.1-0.1-0.2-0.2c-1.4-1.6-3.9-2.1-5.5-2.4c-0.2,0-0.4-0.1-0.5-0.1c-1.4-0.3-2.7-0.4-3.9-0.5
		c-0.4,0-0.8,0-1.1,0c-0.7,0-1.3,0-1.8,0.1c-0.5,0.1-0.9,0.1-1.4,0.3c-0.1,0-0.2,0.1-0.4,0.1c0.3-0.3,0.7-0.6,1-0.8
		c1-0.8,2-1.7,3-2.6c1.5-1.5,2.2-3.9,2.2-6.2c0-1.4-0.2-2.7-0.6-3.8c-0.9-2.3-2.9-3.7-5.3-3.7c-0.7,0-1.4,0.1-2.1,0.4
		c-3.9,1.4-7.4,4.3-10.1,8c-3.1,4.2-5,9.4-5,14.2c0,0.7,0,1.3,0.1,2c0.2,2.1,1.5,3.9,3.3,4.7c-3.9,6.1-6,12.5-6.2,19.1
		c-0.1,2,0,4.1,0.3,6.2c0.1,0.5,0.2,1.1,0.3,1.6c0.9,3.6,3,6.9,6.3,9.8c-1.6,7.4-1.9,14.8-1,22c0.5,3.8,2,6.9,4.1,9.4
		c3.5,4.2,8.5,6.8,13.1,8.7c0.6,0.2,1.1,0.4,1.7,0.6c2.9,1.1,5.5,1.6,7.7,1.6c0.6,0,1.2,0,1.8-0.1c1.5-0.2,3-0.6,4.5-1.2
		c2.5-1,5.1-2.5,7.6-4.5c0.5-0.3,0.9-0.7,1.3-1.1c2-1.7,3.7-3.5,5-5.5c0.1-0.2,0.3-0.4,0.4-0.6c0.8-1.3,1.5-2.6,2.1-4.1
		c0.5-1.1,0.6-2.5,0.3-4.5c-0.1-0.7-0.2-1.4-0.4-2.2c0.8-0.3,1.7-0.6,2.5-1.1c0.6,1.7,1.3,3.1,2.4,4.3c0.9,1.1,2,2,3.5,3
		c0.9,0.6,1.9,1.1,3.1,1.7c0,0,0.1,0,0.1,0c1.9,0.9,3.5,1.4,4.8,1.7c-3.4,1.1-6.8,2.4-10.3,3.8c0,0-0.1,0-0.1,0.1l0,0
		c-0.3,0.1-0.6,0.2-0.9,0.4c0,0-0.1,0-0.1,0l-0.4,0.2l-0.5,0.2c-0.2,0.1-0.5,0.2-0.7,0.3c-3.1,1.2-6.2,2.5-9.1,4.2
		c-0.1,0-0.2,0.1-0.3,0.2c0,0,0,0,0,0c0,0,0,0,0,0c-0.6,0.3-1.2,0.7-1.8,1.1c-0.1,0.1-0.3,0.2-0.4,0.2c-0.5,0.3-0.9,0.6-1.4,0.9
		c-0.3,0.2-0.5,0.4-0.8,0.6c-0.3,0.2-0.6,0.5-0.9,0.7c-0.6,0.5-1.2,1-1.7,1.5c0,0,0,0,0,0c-1.2,1.2-1.7,2.8-1.6,4.4
		c0,0.7,0.1,1.4,0.4,1.9c0.4,0.9,0.9,1.6,1.7,2.1c0.7,0.5,1.6,0.8,2.5,0.8h0h0c0.1,0,0.2,0,0.3,0c0.8,0,1.5-0.3,2.3-0.7
		c0.6-0.4,1.3-0.7,1.9-1.1c0.2-0.1,0.4-0.2,0.7-0.4c0.4-0.2,0.8-0.5,1.3-0.7c0.3-0.2,0.6-0.3,0.9-0.4c0.4-0.2,0.7-0.4,1.1-0.5
		c0.3-0.2,0.7-0.3,1-0.5c0.4-0.2,0.7-0.3,1.1-0.5c0.3-0.1,0.7-0.3,1-0.4c0.4-0.2,0.8-0.3,1.1-0.5c0.3-0.1,0.6-0.3,0.9-0.4
		c0.5-0.2,1-0.4,1.5-0.6c0.2-0.1,0.4-0.2,0.6-0.2c1.5-0.5,3-1.1,4.6-1.5c0.1,0,0.1,0,0.2-0.1c0.7-0.2,1.5-0.5,2.2-0.7
		c0.1,0,0.1,0,0.2,0c1.6-0.5,3.2-0.9,4.8-1.3c0.7-0.2,1.5-0.4,2.2-0.6c0.2,0,0.3-0.1,0.5-0.1c0.5-0.1,0.9-0.2,1.4-0.3
		c11.5-2.6,27.3-5.5,46-7.1c0.7-0.1,1.3-0.1,2-0.2c1.2-0.1,2.3-0.2,3.4-0.3c0,0,0,0,0.1,0c1.8-0.1,3.6-0.3,5.5-0.4
		c0.4,0,0.8,0,1.3-0.1c1.5-0.1,3-0.2,4.5-0.3c0.3,0,0.6,0,0.8,0c0,0,0,0,0.1,0c5-0.2,10.1-0.3,15.1-0.3c10.5,0,20.9,0.5,31.1,1.4
		c4,0.4,7.9,0.8,11.8,1.3c4.7,0.6,9.4,1.3,14,2c0.7,0.2,3,0.7,5.5,0.9c0.4,0,0.7,0,1.1,0c3.1,0,5.5-0.8,7.1-2.4c1-1,1.6-2.2,1.8-3.5
		c0-0.2,0.1-0.4,0.1-0.6c0.5-1.5,0.6-3.4-0.4-5.4c-2.2-4.2-8.3-6.6-19.3-7.4l-0.1,0l0,0c-0.1,0-0.2,0-0.4-0.1
		c-0.6-0.1-1.5-0.2-2.8-0.3c-5.7-0.6-18.2-1.7-35.2-1.7c-1,0-1.9,0-2.9,0c2.1-1,4.9-3.2,9.4-8c0.7,0.8,1.6,1.4,2.8,2.1
		c0.8,0.5,1.8,0.9,2.9,1.3c2.2,1,4.2,1.5,6.1,1.5c0.5,0,0.9,0,1.3-0.1c0.1,0,0.1,0,0.2,0c0.2,0,0.4-0.1,0.6-0.1
		c0.1,0,0.2-0.1,0.3-0.1c0.2,0,0.3-0.1,0.5-0.1c0.1,0,0.2-0.1,0.3-0.1c0.1-0.1,0.3-0.1,0.4-0.2c0.1,0,0.2-0.1,0.3-0.2
		c0.1-0.1,0.3-0.1,0.4-0.2c0.1-0.1,0.2-0.1,0.3-0.2c0.1-0.1,0.3-0.2,0.4-0.3c0.1-0.1,0.2-0.1,0.3-0.2c0.2-0.1,0.3-0.2,0.5-0.3
		c0.1-0.1,0.2-0.1,0.3-0.2c0.2-0.1,0.4-0.3,0.6-0.4c0.1-0.1,0.1-0.1,0.2-0.2c0.3-0.2,0.5-0.5,0.8-0.7c0,0,0,0,0,0
		c0.1,0.1,0.1,0.3,0.2,0.4c0.1,0.2,0.1,0.3,0.2,0.4c0.1,0.1,0.1,0.3,0.2,0.4c0.1,0.1,0.2,0.3,0.2,0.4c0.1,0.1,0.1,0.2,0.2,0.4
		c0.1,0.2,0.2,0.3,0.3,0.5c0.1,0.1,0.1,0.2,0.2,0.3c0.2,0.2,0.3,0.4,0.5,0.6c0,0,0,0,0,0c0,0,0,0,0.1,0.1c1.9,2.1,4.6,3.6,7.4,4.4
		c1.1,0.3,2.3,0.5,3.4,0.5c0.5,0,1,0,1.5-0.1c1-0.1,1.8-0.4,2.8-1.3c1.2-1.1,2.5-3.2,4.4-7.3c0.4,0.5,0.9,0.9,1.3,1.3
		c0.3,0.2,0.6,0.5,0.9,0.7c3.5,2.4,6.6,3.5,9.4,3.5c0,0,0,0,0,0c0.4,0,0.9,0,1.3-0.1c1.4-0.2,2.8-0.8,4.1-1.8
		c1.2-0.9,2.4-2.2,3.6-3.9c0.4-0.6,0.9-1.2,1.3-1.9c0.1-0.2,0.2-0.4,0.3-0.5c0.3-0.4,0.5-0.8,0.8-1.3c0.7-0.8,1.4-1.7,1.9-2.7
		c0.1-0.1,0.1-0.2,0.2-0.3c0.2-0.3,0.4-0.7,0.6-1c0.2-0.3,0.3-0.6,0.5-0.9c0.1-0.2,0.2-0.4,0.3-0.7c0.2-0.4,0.4-0.8,0.6-1.2
		c0.1-0.2,0.1-0.3,0.2-0.5c0.2-0.4,0.3-0.8,0.4-1.2c0-0.1,0.1-0.3,0.1-0.4c0.2-0.5,0.3-1,0.4-1.5c0-0.1,0.1-0.3,0.1-0.4
		c0.1-0.5,0.2-1,0.3-1.5c0-0.1,0-0.2,0-0.3c0.1-0.5,0.1-1,0.1-1.6c0-0.1,0-0.1,0-0.2c0-0.6,0-1.1,0-1.6
		C250.5,197.6,250.2,196.6,249.7,195.8z M164.2,90.6C164.2,90.6,164.2,90.6,164.2,90.6c0.1,0.1,0.1,0.1,0.2,0.2
		c0.1,0.2,0.2,0.4,0.3,0.6c0.9,2.5,1.4,5,1.7,7.4l0,0.4c-0.3,2.8-0.5,5.5-0.6,8.3c-0.9,3.5-2.7,6.9-5.2,10.1
		c-4.2,5.4-9.6,9.7-16.7,13.2c-3.3,1.7-7.1,3.2-11.3,4.7c-3.5,1.2-7.1,2.1-10.8,3c-0.4,0.1-0.7,0.2-1.1,0.3c-0.2,0-0.4,0.1-0.5,0.1
		c-1,0.2-2,0.5-3,0.7c-0.7,0.2-1.4,0.3-2,0.5c0,0,0,0,0,0c0,0,0,0,0,0c-0.2,0-0.4,0-0.3,0c-0.3,0-0.5,0.1-0.7,0.1
		c0-0.3-0.1-0.6-0.1-1c-0.2-4.6-0.3-9.2-0.4-13.7c-0.1-4.9-0.2-10-0.5-15c-0.2-3.6-0.9-7.3-1.6-10.8c-0.2-1.2-0.5-2.5-0.7-3.7
		c0,0,0,0,0,0c0.9,1.3,1.8,2.7,2.4,4.3c0.9,2.4,2.6,4.1,5.3,5.3c4,1.7,8.9,3.9,13.5,6.2c0,0,0.1,0,0.1,0.1c0.2,0.1,0.3,0.1,0.5,0.2
		c0.1,0,0.2,0,0.2,0.1c0.1,0,0.3,0.1,0.4,0.1c0.1,0,0.2,0,0.2,0c0.1,0,0.2,0,0.4,0.1c0.1,0,0.2,0,0.2,0c0.2,0,0.3,0,0.5,0
		c0.6-0.1,1.2-0.2,1.9-0.6c0,0,0.1,0,0.1,0c0,0,0,0,0,0c0.2-0.1,0.5-0.3,0.8-0.4c0.9-0.6,1.8-1.1,2.7-1.7c0.2-0.1,0.5-0.3,0.7-0.4
		c0.6-0.4,1.2-0.7,1.8-1.1c4.6-2.9,9.3-5.8,14.1-8.3c0.8-0.4,1.6-0.8,2.4-1.2C162.8,96.8,164.3,94.5,164.2,90.6z M153.3,192.3
		c0.1-0.2,0.2-0.4,0.2-0.7c0,0,0,0,0,0c0.1-0.4,0.3-0.7,0.4-1.1c0,0,0-0.1,0-0.1c-0.1,0.6-0.2,1.2-0.2,1.8
		C153.6,192.3,153.4,192.3,153.3,192.3z M153.4,194.5c-0.3,2.5-0.5,4.8-0.6,6.9c0,0.2,0,0.4,0,0.6c0,0.2,0,0.4,0,0.6
		c0,0.1-0.1,0.1-0.1,0.2c-0.1,0.2-0.2,0.4-0.4,0.6c0,0,0,0.1-0.1,0.1c-0.3,0.4-0.6,0.8-0.9,1.3c-0.3,0.4-0.6,0.8-0.8,1.2
		c-0.4,0.5-0.7,0.9-1.1,1.4c-0.1,0.1-0.1,0.1-0.2,0.2c-0.4,0.4-0.7,0.9-1,1.3c0.2-0.8,0.4-1.7,0.7-2.7c0.4-1.6,1-3.5,1.7-5.7
		c0.7-2.1,1.4-4.1,2-5.9c0,0,0.1,0,0.1,0C152.9,194.6,153.2,194.6,153.4,194.5z M153.4,168.9c-1.6,1.4-3.2,2.1-4.7,2.1
		c-0.3,0-0.6,0-0.9-0.1c-0.8-0.1-0.3-2.4-0.5-4.2c0-0.1,0-0.2,0-0.4c-0.6-4.9-0.8-7.7-0.3-8.6c0.6-1.1,1.9-1.7,3.8-1.8
		c0.1,0,0.3,0,0.4,0c2.5,0,4.8,0.9,5.9,2.2c0.4,0.4,0.6,0.9,0.7,1.4c0.3,1.4-0.2,3.1-1.3,5C155.6,166.6,154.5,168,153.4,168.9z
		 M118.1,152c1,3.4,2,6.6,2.6,10c0.6,2.9,0.9,5.9,1.2,8.8c0,0.4,0.1,0.8,0.1,1.2c0,1.1-0.1,2.2,0,3.3c0,0.7,0.2,1.2,0.5,1.7
		c0,0.2,0.1,0.3,0.2,0.5c0.5,0.9,0.6,1.4,0.6,2.4c0,0.1,0,0.1,0,0.2c-1.2,1.2-2.5,2.7-3.7,4.4c0.8-12.6-1.3-24.8-3.6-35.2
		c-0.2-0.9-0.5-1.9-0.7-2.8c0.7-0.1,1.4-0.3,2.1-0.5c1-0.2,2-0.3,2.8-0.8c0.1,0,0.2,0,0.3-0.1c8.9-2.6,16.9-5.2,24.4-9.8
		c-0.1,0.3-0.1,0.5-0.2,0.6c-3.8,9.8-4.4,19.4-1.8,29.3c0.1,0.5,0.2,0.9,0.4,1.4c0,0.1,0,0.3,0.1,0.4c0,0.2,0,0.5,0,0.7
		c0,0.3,0,0.6,0,0.9c0,0.4,0,0.9,0,1.5c0.1,1.3,0.4,2.8,1.6,3.9c0,0.3,0.1,0.7,0.1,1c-0.1,0-0.2,0-0.3,0c-1.1,0-2.6,0.1-3.8,0.7
		c-0.4,0.2-0.8,0.5-1.1,0.8c-1-2.4-2.9-3.9-5.2-4.6c-0.1-0.1-0.3-0.3-0.5-0.4c-0.1-0.1-0.2-0.1-0.3-0.1c-2.4-1-2.6-3-2.9-5.5l0-0.2
		c-0.5-4.9-1.3-9.8-2.1-14.6c-0.2-1.3-0.4-2.6-0.6-3.8c-0.3-1.6-1-2.3-2.4-2.2c-0.4,0-0.8,0.1-1.2,0.3c-1.7,0.6-3.6,1-5.4,1.4
		c-0.8,0.2-1.6,0.3-2.4,0.5c-0.1,0-0.1,0.1-0.2,0.1c0,0.1,0,0.1,0,0.2C117.2,149,117.7,150.5,118.1,152z M151,55.6
		c0.2-0.1,0.5-0.2,0.7-0.2c0.1,0,0.1,0,0.2,0c0.2,0,0.3-0.1,0.5-0.1c0.1,0,0.1,0,0.2,0c0.1,0,0.3,0,0.4,0c0.1,0,0.1,0,0.2,0
		c0.1,0,0.2,0,0.4,0c0.1,0,0.2,0,0.3,0c0.1,0,0.2,0,0.3,0c0.1,0,0.2,0,0.3,0.1c0.1,0,0.2,0,0.2,0.1c0.1,0,0.2,0.1,0.3,0.1
		c0.1,0,0.1,0.1,0.2,0.1c0.1,0.1,0.3,0.2,0.4,0.3c0,0,0,0,0.1,0c0.7,0.5,1.1,1.2,1.3,2.2c0.1,0.6-0.1,1.1-0.3,1.6
		c-0.1,0.2-0.2,0.4-0.3,0.6c-0.2,0.5-0.6,0.8-1,1c-0.2,0.1-0.4,0.2-0.6,0.2c0,0,0,0,0,0c0,0,0,0,0,0c-0.1,0-0.2,0-0.2,0
		c0,0,0,0-0.1,0c0,0,0,0,0,0c-0.4,0.1-1,0.2-1.7,0.2c-0.3,0-0.6,0-0.8,0.1l-0.3,0c-2.4,0.3-5,1-8.2,2.4c-0.7,0.3-1.3,0.6-2,0.9
		c-0.4,0.2-0.8,0.4-1.2,0.6c-0.3,0.1-0.5,0.3-0.8,0.4c-0.3,0.2-0.3,0.5-0.3,0.6c0,0.1,0.1,0.1,0.1,0.2c0,0,0,0,0,0
		c0.1,0,0.1,0,0.2,0.1c0,0,0,0,0,0c0.1,0,0.2,0,0.2,0c0.4-0.2,0.9-0.4,1.3-0.6c0,0,0,0,0,0c0.4-0.2,0.9-0.3,1.3-0.5l0.2-0.1
		c0.3-0.1,0.6-0.2,1-0.4c0.2-0.1,0.3-0.1,0.5-0.2c1.2-0.4,2.2-0.8,3.1-1c0,0,0.1,0,0.1,0c0,0,0.1,0,0.1,0c0.9-0.3,1.5-0.4,2.3-0.6
		c0.2,0,0.3-0.1,0.5-0.1c0.5-0.1,0.9-0.1,1.3-0.2c0.1,0,0.3,0,0.4,0c0.3,0,0.6,0,0.9,0c0.2,0,0.4,0,0.5,0c0.1,0,0.2,0,0.3,0
		c0.3,0,0.6,0,0.9,0.1c0,0,0.1,0,0.1,0c0,0,0.1,0,0.1,0c0,0,0.1,0,0.1,0c0,0,0,0,0,0l0-0.3l0,0.1l0,0.2c0.2,0,0.4,0,0.7,0
		c0.1,0,0.2,0,0.3,0c0.2,0,0.3,0.1,0.5,0.1c0.1,0,0.2,0,0.3,0.1c0.2,0.1,0.3,0.1,0.4,0.2c0.1,0,0.1,0.1,0.2,0.1
		c0.2,0.1,0.4,0.3,0.5,0.5c1,1.1,1.3,3.2,0.9,5.2c-0.3,3.6-1.6,7-4.5,11.1c-1.9,2.6-3.6,4.5-5.5,6.1c-0.2,0.1-0.3,0.3-0.5,0.4
		c-0.2,0.2-0.4,0.4-0.5,0.5c0,0,0,0,0,0c-0.1,0.1-0.1,0.1-0.2,0.2c-0.3,0.2-0.7,0.4-1.1,0.6c-0.2,0.1-0.3,0.2-0.5,0.2
		c-0.2,0.1-0.4,0.2-0.6,0.3c-0.1,0.1-0.2,0.1-0.3,0.2c-0.1,0.1-0.2,0.1-0.3,0.2c-0.1,0.1-0.2,0.1-0.3,0.2c-2.7,1.3-5.9,2.1-9.7,2.5
		c0,0,0,0,0,0c-0.3,0.1-0.7,0.2-1,0.3c-0.1,0-0.2,0-0.2,0c-0.3,0.1-0.7,0.1-1,0.1c-0.1,0-0.1,0-0.2,0c-0.3,0-0.6,0-0.9,0
		c-0.1,0-0.2,0-0.4,0c-0.3,0-0.7-0.1-1.1-0.1c0,0-0.1,0-0.1,0c-8.4-0.2-13.5-7.6-16.2-13.7c-2.1-4.6-2.5-9.1-1.5-13.8
		c0.5-2.3,1.3-4.4,2.2-6.1c0.4-0.7,0.8-1.3,1.2-1.9c0.5-0.7,1.1-1.3,1.7-1.9c0,0,0.1-0.1,0.1-0.1c0,0,0,0,0,0c0,0,0.1,0,0.1-0.1
		c0.2-0.1,0.4-0.3,0.6-0.3c0,0,0.1,0,0.1,0c0.1,0,0.1,0,0.2-0.1c0.1,0,0.1,0,0.2,0c0.1,0,0.1,0,0.2,0c0.1,0,0.1,0,0.2,0
		c0.1,0,0.4,0,0.6,0.1c0.1,0.1,0.3,0.2,0.4,0.3c0,0,0,0.1,0.1,0.1c0.1,0.1,0.2,0.2,0.3,0.4c0,0,0,0,0.1,0.1c0.7,2.2-0.2,5.9-0.4,7.4
		c-0.1,1.9,0.2,3.8,0.8,5.7c0.8,2.9,3,5.4,5.9,6.4c0,0,0,0,0,0l0,0c0,0,0.1,0,0.1,0c0.1,0.1,0.2,0.1,0.4,0.1c0,0,0.1,0,0.1,0
		c0.1,0,0.2,0,0.3,0c0.1,0,0.1,0,0.2,0c0,0,0.1,0,0.1,0c0.1,0,0.2-0.1,0.3-0.1c0.4-0.2,0.5-0.8,0.3-1.2c-0.4-0.6-1.1-0.9-1.5-1.5
		c-0.4-0.6-0.3-1.4-0.3-2.1c0.5-1.7,2-3.5,2.9-4.5c0.1-0.1,0.2-0.2,0.3-0.3v0c0.1-0.1,0.2-0.2,0.3-0.3c0.8-0.8,1.6-1.5,2.4-2.2
		c0.9-0.7,1.8-1.4,2.6-1.9c0.2-0.1,0.4-0.3,0.7-0.4c0.3-0.2,0.6-0.4,0.9-0.5c0,0,0.1,0,0.1-0.1c0,0,0.1,0,0.1,0
		c2.5-1.2,5.2-2,7.9-2.6c0.6-0.1,1.1-0.3,1.7-0.4c0,0,0.1,0,0.1,0c0,0,0,0,0,0c0.1,0,0.1-0.1,0.2-0.1c0.1,0,0.2,0,0.3,0
		c0,0,0,0,0.1,0c0,0,0.1,0,0.1,0l0.5-0.1l0.1,0c0.1,0,0.2,0,0.2,0c0,0,0.1,0,0.1,0l0.4-0.1C149.3,55.9,150.2,55.7,151,55.6z
		 M142.5,54.9C142.5,54.9,142.5,54.9,142.5,54.9c-0.3,0.1-0.6,0.1-0.7,0.2c-2,0.3-4.1,1.1-6.1,2.2c0,0,0,0,0,0
		c-1.6,0.9-3,1.8-4.2,2.7c-0.5,0.4-1,0.7-1.4,1.1c0,0,0,0-0.1,0c-0.5,0.4-0.9,0.8-1.3,1.2c-1.1,1-2.1,2.1-2.9,3.3
		c0,0.1-0.2,0.4-0.4,0.7c-0.2,0.4-0.5,1-0.8,1.5c0,0,0,0,0,0l-0.4-0.4c-0.1-0.1-0.1-0.3-0.3-0.4c-0.3-0.9-0.4-1.2-0.4-1.3
		c-0.1-0.8-0.1-1.6-0.2-2.3c0-0.4,0-0.9-0.1-1.3l0-0.2c-0.1-0.9-0.1-1.7-0.2-2.6c-0.1-1.4-0.1-2.5,0-3.6c0.2,0.1,0.6,0.3,1.2,0.7
		c0,0,0.1,0,0.1,0.1c0.1,0,0.2,0.1,0.2,0.1c0.1,0,0.1,0,0.2,0c0.2-0.1,0.4-0.1,0.6-0.3c0.1-0.1,0.2-0.3,0.2-0.4
		c0-0.1-0.1-0.2-0.2-0.3c-1.6-0.5-2.6-1.7-2.8-3.3c-0.1-1.1,0.1-2.1,0.8-2.9c0.4-0.5,0.8-0.8,1.4-1.1c0.5-0.3,1.2-0.5,1.8-0.5
		c0.2,0,0.5,0,0.7,0c0.1,0,0.2,0,0.3,0c0.2,0,0.3,0,0.5,0.1c0.1,0,0.2,0,0.3,0.1c0.2,0,0.3,0.1,0.5,0.2c0.1,0,0.2,0.1,0.2,0.1
		c0.2,0.1,0.5,0.2,0.7,0.4c0,0,0,0,0,0c0,0,0.1,0,0.1,0c0.1,0,0.1,0,0.2-0.1c0,0,0,0,0,0c0.7-0.7,1.3-1.2,2.1-1.5
		c0.3-0.1,0.6-0.2,0.9-0.2c0.2,0,0.4,0,0.7,0c0.1,0,0.1,0,0.2,0c0.3,0,0.5,0,0.8,0.1c1.9,0.3,3.3,2.2,3.5,3.8c0.1,0.7,0,1.3-0.4,1.8
		c0,0.1-0.1,0.2,0,0.3c0,0.1,0.1,0.1,0.2,0.2c0.4,0.1,0.9,0.2,1.2,0.3c0,0,0.1,0,0.1,0c0.4,0,0.7,0,1.1-0.1c0.2,0,0.4-0.1,0.6-0.1
		c0.4-0.1,0.7-0.2,1-0.2l0.1,0c0.1,0,0.2,0,0.4,0c0.1,0,0.1,0,0.2,0c0.2,0,0.3,0,0.5,0c0,0,0.1,0,0.1,0c0.2,0,0.3,0,0.4,0
		c0,0,0.1,0,0.1,0c0.2,0,0.3,0,0.5,0c1,0.1,1.8,0.3,2.5,0.6c0.2,0.1,0.4,0.2,0.4,0.4c0,0,0,0,0,0c0,0.1-0.1,0.2-0.2,0.2
		c-0.1,0-0.2,0-0.3,0c0,0-0.1,0-0.1,0c0,0-0.1,0-0.1,0l-0.1,0c-0.2,0-0.5,0-0.8,0c-0.4,0-0.8,0.1-1.2,0.2l-0.8,0.1
		c-0.2,0-0.3,0.1-0.5,0.1C143,54.8,142.7,54.8,142.5,54.9z M126.4,46.7c0-0.2-0.1-0.3-0.1-0.5c0,0,0,0,0,0c-0.1-0.1-0.2-0.3-0.3-0.4
		c0,0,0,0,0,0c-0.1-0.1-0.2-0.2-0.4-0.2c0,0,0,0-0.1,0c-0.1-0.1-0.3-0.1-0.4-0.1c-0.1,0-0.1,0-0.2,0h0c0,0,0,0,0,0
		c-0.1,0-0.1,0-0.2,0h0c0,0.1,0,0.1,0.1,0.2c0,0.2,0,0.4-0.2,0.6c-0.1,0.1-0.2,0.1-0.3,0.2c0,0,0,0-0.1,0c-0.1,0-0.2,0.1-0.3,0.1
		c-0.1,0-0.2,0-0.3,0h0c0,0.1,0,0.3,0,0.4c0,0.2,0.1,0.4,0.2,0.6c0,0,0,0,0,0c0,0.1,0,0.1,0,0.2c0,0,0,0,0,0
		c-0.5,0.3-0.9,0.7-1.3,1.2c0,0,0,0-0.1,0c0,0,0,0,0,0c0,0-0.1,0-0.1,0c-0.6-0.5-1-1.2-1.1-2c-0.1-1.6,1-3,2.6-3.1c0,0,0,0,0,0
		c0.1,0,0.3,0,0.4,0c0.1,0,0.2,0,0.2,0c0.1,0,0.2,0,0.3,0.1c0.1,0,0.1,0,0.2,0.1c0.1,0,0.2,0.1,0.3,0.1c0.1,0,0.1,0.1,0.2,0.1
		c0.1,0.1,0.2,0.1,0.3,0.2c0.1,0,0.1,0.1,0.2,0.1c0.1,0.1,0.2,0.2,0.2,0.2c0,0,0.1,0.1,0.1,0.1c0.1,0.1,0.1,0.2,0.2,0.3
		c0,0,0.1,0.1,0.1,0.1c0.1,0.1,0.1,0.2,0.2,0.4c0,0,0,0.1,0,0.1c0.1,0.2,0.1,0.4,0.1,0.6c0,0.1,0,0.2,0,0.2l0,0.1c0,0,0,0.1,0,0.1
		c0,0-0.1,0-0.1,0c0,0-0.1,0-0.1,0C126.5,46.9,126.4,46.9,126.4,46.7L126.4,46.7C126.4,46.7,126.4,46.7,126.4,46.7z M138.7,46.1
		c0-0.2-0.1-0.3-0.1-0.5c0,0,0,0,0,0c-0.1-0.1-0.2-0.3-0.3-0.4c0,0,0,0,0,0c-0.1-0.1-0.2-0.2-0.4-0.2c0,0,0,0-0.1,0
		c-0.1-0.1-0.3-0.1-0.5-0.1c-0.1,0-0.1,0-0.2,0c0,0,0,0-0.1,0c0,0,0,0,0,0c0,0.1,0,0.1,0.1,0.2c0,0.2,0,0.4-0.2,0.6v0
		c-0.1,0.1-0.2,0.2-0.3,0.2c0,0-0.1,0-0.1,0c-0.1,0-0.2,0-0.2,0c0,0-0.1,0-0.1,0c-0.1,0-0.2,0-0.3-0.1h0c0,0.1-0.1,0.3-0.1,0.4
		c0,0,0,0.1-0.1,0.1v0c0,0-0.1,0-0.1,0c-0.6-0.2-1.1-0.3-1.7-0.3c-0.1,0-0.1-0.1-0.1-0.1l0-0.2c0-0.4,0-0.8,0.1-1.1
		c0,0,0.1-0.1,0.1-0.1c0,0,0,0,0,0c0.1,0,0.7-0.1,1-0.2c0.2,0,0.3-0.1,0.5-0.2c0.1,0,0.2-0.1,0.3-0.1c0.3-0.1,0.6-0.2,0.9-0.3
		c0,0,0,0,0,0c0.1,0,0.2,0,0.2,0h0c0.1,0,0.3,0,0.4,0c0.1,0,0.1,0,0.2,0c0.1,0,0.2,0,0.3,0c0.1,0,0.1,0,0.2,0c0.1,0,0.2,0.1,0.3,0.1
		c0,0,0.1,0,0.1,0.1c0.1,0.1,0.3,0.2,0.4,0.3c0.4,0.4,0.7,0.9,0.8,1.4c0,0.1,0,0.2,0,0.2c0,0.6,0,1-1.1,2c-0.1,0-0.1,0.1-0.2,0.1
		l-0.1,0c0,0,0,0-0.1,0l0,0c0,0-0.1,0-0.1-0.1c-0.1-0.1-0.2-0.3-0.4-0.4c0,0,0-0.1,0-0.1c0,0,0,0,0,0c0,0,0-0.1,0.1-0.1
		C138.4,47.3,138.8,46.7,138.7,46.1C138.7,46.1,138.7,46.1,138.7,46.1z M144,48C144,48,144,48,144,48c-0.1,0.1-0.2,0.1-0.3,0.1
		c-0.1,0-0.1,0-0.2,0c0,0,0,0,0,0c-0.1,0-0.1-0.1-0.1-0.1c0,0,0,0,0-0.1c0-0.1-0.1-0.1-0.1-0.2c0,0,0,0,0,0c-0.3-2.4-1-3.9-3.8-4.4
		c0,0,0,0,0,0c-0.3-0.1-0.7-0.1-1-0.1c-0.2,0-0.5,0-0.7,0c0,0,0,0,0,0c-0.9,0.1-1.8,0.3-2.7,0.6c-0.5,0.2-1.1,0.3-1.7,0.4
		c-0.3,0.1-0.6,0.1-0.9,0.1c-0.2,0-0.5,0-0.7,0c-0.1,0-0.2,0-0.4,0c-0.1,0-0.3,0-0.4,0c-0.1,0-0.2,0-0.3-0.1c-0.1,0-0.2,0-0.4-0.1
		c-0.1,0-0.2-0.1-0.3-0.1c-0.1,0-0.2-0.1-0.4-0.1c-0.1,0-0.2-0.1-0.3-0.1c-0.1,0-0.2-0.1-0.4-0.2c-0.1,0-0.2-0.1-0.3-0.1
		c-0.1-0.1-0.3-0.1-0.4-0.2c-0.1,0-0.2-0.1-0.3-0.1c-0.1-0.1-0.3-0.2-0.4-0.2c-0.1,0-0.2-0.1-0.2-0.1c-0.1,0-0.1-0.1-0.2-0.1
		c-0.1-0.1-0.3-0.2-0.4-0.3c-0.5-0.3-1.1-0.6-1.7-1c-0.3-0.2-0.7-0.3-1.1-0.5c-0.1,0-0.2-0.1-0.3-0.1c-0.3-0.1-0.6-0.2-0.8-0.2
		c-0.1,0-0.3-0.1-0.4-0.1c-0.3,0-0.5-0.1-0.8-0.1c-0.1,0-0.3,0-0.4,0c-0.3,0-0.7,0-1,0c-0.8,0.1-1.5,0.3-2.1,0.6
		c-1.3,0.7-2,2-1.9,3.8c0.1,2.1,1.6,2.7,2.9,3.2c1.1,0.4,2,0.8,2.2,1.7c0,0.2,0,0.4-0.1,0.5c0,0-0.1,0.1-0.1,0.1c0,0,0,0,0,0
		c0,0-0.1,0-0.1,0c-0.2,0-0.4,0-0.6,0c-0.1,0-0.3,0-0.4,0c-0.1,0-0.3,0-0.4-0.1c-0.1,0-0.3,0-0.4-0.1c-0.1,0-0.3-0.1-0.4-0.1
		c-0.1,0-0.3-0.1-0.4-0.1c-0.1,0-0.3-0.1-0.4-0.2c-0.1-0.1-0.3-0.1-0.4-0.2c-0.1-0.1-0.2-0.1-0.4-0.2c-0.1-0.1-0.2-0.1-0.4-0.2
		c-0.1-0.1-0.2-0.2-0.3-0.2c-0.1-0.1-0.2-0.2-0.3-0.3c-0.1-0.1-0.2-0.2-0.3-0.3c-0.1-0.1-0.2-0.2-0.3-0.3c-0.1-0.1-0.2-0.2-0.3-0.3
		c-0.1-0.1-0.2-0.2-0.3-0.3c-0.1-0.1-0.2-0.2-0.2-0.3c-0.1-0.1-0.2-0.2-0.3-0.4c-0.1-0.1-0.1-0.2-0.2-0.3c-0.1-0.1-0.2-0.3-0.3-0.4
		c-0.1-0.1-0.1-0.2-0.2-0.3c-0.1-0.2-0.2-0.3-0.2-0.5c0-0.1-0.1-0.2-0.1-0.3c-0.1-0.2-0.2-0.3-0.2-0.5c0-0.1,0-0.1-0.1-0.2
		c-0.1-0.2-0.1-0.4-0.2-0.6c0,0,0-0.1,0-0.1c-0.2-0.8-0.4-1.6-0.4-2.4c-0.2-3.1,1.1-6.5,5.4-6.9c0,0,0,0,0,0c0.5,0,1,0,1.6,0
		c1.9,0.2,3.7,1.1,5.5,2c0.8,0.4,1.6,0.8,2.5,1.2c0,0,0,0,0,0c0.2,0.1,0.5,0.2,0.7,0.3c0.1,0,0.2,0,0.3,0.1c0.2,0,0.4,0.1,0.5,0.1
		c0.1,0,0.2,0,0.3,0c0.2,0,0.4,0,0.6,0c0.1,0,0.2,0,0.3,0c0.3,0,0.5,0,0.8,0c0,0,0.1,0,0.1,0l0.1,0c0.1,0,0.2-0.1,0.2-0.1
		c0-0.1,0.1-0.1,0.2-0.2c0,0,0.1,0,0.1-0.1c0.7-0.1,1.4-0.3,2.1-0.5c0.3-0.1,0.6-0.2,0.9-0.3c0.7-0.2,1.4-0.4,2.1-0.6
		c0.5-0.1,1-0.2,1.5-0.3c0.1,0,0.1,0,0.2,0c0.2,0,0.4,0,0.6,0c0.2,0,0.4,0,0.7,0c1.6,0.1,2.9,1.1,3.6,1.9c1.1,0.9,1.8,2.2,2,3.6
		C145.8,43.1,146.4,46.3,144,48z M23.7,147.9c0.3-0.1,0.5-0.1,0.8-0.1c2.4,0,2.3,5,0.9,6.3c-2.3,2.3-5.2,4.1-7.2,6.7
		c-1.8,2.3-3,4.6-4,7.3c-0.3,0.7-0.8,1.1-1.2,1.1c-0.7,0-1.4-0.7-1.5-1.7C10.6,160.1,16.6,150.4,23.7,147.9z M61.2,223.2
		c-0.8,0.6-2,1.1-3.6,1.7c-1.3,0.5-2.3,0.8-2.9,1c1.2,4.2,1.7,6.8,1.3,7.8c-0.5,1.4-1.2,2.7-2.1,3.9c-1.4,2.1-3.2,3.9-5.5,5.7
		c-3.6,2.9-7,4.4-10.2,4.9c-0.4,0.1-0.8,0.1-1.2,0.1c-2.1,0-4.8-0.6-7.8-1.9c-0.9-0.4-1.8-0.8-2.7-1.2c-6.1-2.9-11.2-6.8-12.1-13.7
		c-1-7.6-0.5-15.2,1.5-23c-4.3-3.1-6.6-6.5-7.1-10.4c-0.5-3.7-0.4-7.3,0.4-10.9c1.2-5.9,4.2-11.6,8.9-17c2.1-2.4,4.2-4,6.3-4.9
		c0.7-0.3,1.4-0.5,2.1-0.5c0.4,0,0.8-0.1,1.3-0.1c1.1,0,2.6,0.1,4.3,0.5c2.5,0.5,3.9,1,3.8,1.5c-3.8,2.6-7.3,5.4-10.4,8.4
		c-2.4,2.4-4.3,5-5.9,7.6c-3.4,5.8-4.9,11.7-4.2,16.6c0.3,1.9,0.8,3.6,1.8,5c1.4-4.2,3.1-8.1,5.1-11.8c1.2-2.2,2.6-4.3,4-6.3
		c0.4-0.6,0.9-1.1,1.3-1.7c6.4-8.2,13-12.8,19.9-13.7c0.2,0,0.5,0,0.7,0c1.6,0,3.9,0.6,6.9,1.9c3.5,1.5,6.4,3.2,8.9,5.5
		c2,1.9,2.6,4.6,1.6,8c-0.1,0.3-0.2,0.7-0.3,1c-0.6,1.8-1.6,3.7-2.9,5.9c-6.2,10-15.7,17.2-27.4,19.5c-0.8,0.2-1.6,0.3-2.4,0.4
		c-1.1,0.1-2.1,0.2-3.2,0.2c-1.7,0-3.4-0.2-5.1-0.6c-1.3,5.2-1.9,10.2-1.7,15c0.1,1.6,0.2,3.1,0.4,4.7c0.7,4.5,2,7.6,3.9,9.1
		c0.4,0.3,2.4,1.1,5.1,1.1c1.7,0,3.7-0.3,5.9-1.2c0.3-0.1,0.6-0.3,0.9-0.4c5-2.5,8-6.3,12.1-13.6c-1.8,0.5-3.4,0.8-5.1,1
		c-2.7,0.4-5,0.6-6.7,0.6c-1.7,0-2.9-0.2-3.6-0.6c-1.5-0.9-5.3-5.6-4.9-5.9c0,0,0.6,0.1,1.7,0.1c2.7,0,8.8-0.5,18.8-3.6
		c5.6-1.6,8.8-3.8,9.7-3.9c0,0,0,0,0,0c0.1,0,0.2,0.3,0.5,0.8C61,218.3,61,220.9,61.2,223.2z M62,210.8c-0.4-0.1-0.8-0.2-1.2-0.2
		c0,0,0,0,0,0c-0.2,0-0.4,0-0.5,0c-0.9,0.1-1.7,0.5-3,1.1c-1.4,0.7-3.4,1.6-6.1,2.5c-0.4,0.1-0.8,0.2-1.2,0.4c0,0,0,0-0.1,0
		c-0.6,0.2-1.2,0.4-1.8,0.6c-5.4,1.6-9.3,2.3-12.1,2.6c-1.8,0.2-3,0.3-3.7,0.3c-0.2,0-0.3,0-0.5,0c0,0-0.1,0-0.1,0
		c-0.1,0-0.2,0-0.2,0c-0.2,0-0.4-0.1-0.7-0.1c-0.1,0-0.1,0-0.2,0c-0.1,0-0.2,0-0.2,0c0,0-0.1,0-0.1,0c-0.1,0-0.1,0-0.2,0
		c-0.1,0-0.3,0.1-0.4,0.1c-0.1,0-0.2,0-0.3,0.1c-0.2,0.1-0.5,0.2-0.7,0.3c0,0-0.1,0-0.1,0c0,0,0,0,0,0c-0.1,0.1-0.3,0.2-0.4,0.3
		c-0.1,0.1-0.2,0.1-0.2,0.2c-0.2,0.2-0.4,0.4-0.5,0.6c-0.2,0.2-0.3,0.4-0.4,0.6c-0.4,0.7-0.5,1.4-0.5,2.2v0c0.1,1.5,1.3,3.4,2.8,5.1
		c1.6,1.9,3.4,3.5,4,3.9c0,0,0,0,0,0c0.2,0.1,0.3,0.2,0.5,0.3c1.3,0.6,2.9,0.9,5.2,0.9h0h0c0.6,0,1.2,0,1.8-0.1
		c0.5,0,1.1-0.1,1.6-0.1c-1.3,1.6-2.6,2.8-4.1,3.7c-0.5,0.3-1,0.6-1.5,0.8c-1.7,0.9-3.4,1.3-5.1,1.3c-1.4,0-2.4-0.3-2.8-0.4
		c0,0-0.1-0.1-0.1-0.1c-0.4-0.4-1-1.4-1.6-3.7c-0.2-0.7-0.4-1.6-0.5-2.7c-0.4-2.9-0.5-5.9-0.3-8.9c0.1-1.8,0.4-3.7,0.7-5.6
		c0.7,0.1,1.3,0.1,2,0.1c1.2,0,2.5-0.1,3.7-0.3c0.6-0.1,1.3-0.2,1.9-0.3c8.5-1.5,16.2-5.4,22.5-11.3c0.6-0.6,1.2-1.2,1.8-1.8
		c1.2-1.2,2.3-2.5,3.4-3.9c1.1-1.4,2.1-2.8,3-4.4c1.3-2.1,2.2-4,2.9-5.9c1.2-0.2,2.4-0.3,3.7-0.5c0.6-0.1,1.1-0.2,1.5-0.5
		c-1.5,1.3-2.9,2.9-4.2,4.7c0,0,0,0,0,0.1C65.9,198,63.4,204,62,210.8z M72.8,232.7c-2.4-1.2-4.1-2.3-5.2-3.6
		c-2-2.4-2.8-6.3-2.4-11.6c0.1-0.8,0.1-1.5,0.2-2.4c1-7.8,3.5-14.5,7.4-20.1c3.5-4.9,7.8-7.7,12.8-8.4c0.3,0,0.6-0.1,1-0.1
		c0.3,0,0.6,0,0.8,0c1.9,0.2,3.9,1.2,5.8,3c1.5,1.3,2.5,2.4,2.8,3.2c0.1,0.3,0.1,0.5,0.1,0.7c-0.1,0.2-0.2,0.3-0.5,0.3
		c-0.1,0-0.1,0-0.2,0c-0.8-0.1-1.6-0.2-2.4-0.2c-1.2,0-2.4,0.2-3.5,0.5c-1.9,0.5-3.7,1.5-5.5,2.9c-3,2.4-5.4,5.6-7.3,9.3
		c-0.6,1.3-1.2,2.6-1.7,4c-2,5.6-2.7,10.3-2.2,14.3c0.3,2.2,0.8,3.6,1.4,4.1c0.2,0.2,0.5,0.3,0.8,0.3c0.1,0,0.2,0,0.4,0
		c1.9-0.3,5-3.3,7.9-9.8c2.3-5.4,3.5-9.7,3.4-13c0-1-0.3-2.2-0.9-3.4c-0.2-0.2-0.1-0.5,0.2-0.9c1.1-1.7,5.4-4.4,7.2-4.4
		c0.3,0,0.5,0.1,0.7,0.2l2,3c1.3,2,2.6,3.1,3.8,3.2c0.3,0,0.6,0,0.9,0c0.6,0,1.2-0.1,1.8-0.2c0.4-2,0.8-4.1,1.2-6.2
		c1.4-7.1,2.3-11.4,2.8-12.9c0.1-0.2,1.1-0.5,2.5-0.5c1.3,0,2.9,0.3,4.3,1.1c1.5,0.9,2.3,2,2.4,3c0.1,0.8,0,1.8-0.5,3.6
		c-0.6,2-1.6,5.9-2.7,9.4l-1.5,5.2c2.2-4,5.1-9,9-15.1c2.7-4.3,5.3-7.6,7.9-9.8c0.8-0.7,2.6-1.2,4.2-1.2c0.6,0,1.1,0.1,1.6,0.2
		c1.8,0.8,2.8,1.7,3,2.9c0.6,1.2-3.4,7.8-5.6,14.8c-1.3,4.5-2,7.7-2.1,9.9c-3.3,0-5.5-0.6-6.7-1.7c-0.9-0.8-1.1-2.7-0.8-5.7
		c0.2-1.9,0.7-4.1,1.5-6.2c-2.3,2.5-6,7.6-11.2,15.4c-1,1.4-1.7,3.3-2.4,5.5c-0.7,2.2-1.3,4.5-1.9,6.9c-0.5,2.4-0.8,4-1.1,4.6
		c-0.1,0.3-0.3,0.5-0.6,0.5c-0.1,0-0.2,0-0.4,0c-1,0-2.6-0.6-4.8-1.7c-1.1-0.5-1.4-1.4-1.2-2.6c0.7-4.7,1.4-9.6,2.3-14.8
		c-1.6,0.9-3.3,1.3-5.2,1.3c-0.3,0-0.6,0-0.9,0c-0.5,3.8-2.1,8.2-4.8,13.2c-3.9,7.1-7.9,10.9-12.3,11.5c-0.1,0-0.3,0-0.5,0
		C76.7,234.2,75,233.7,72.8,232.7z M82.8,206.6c0,1.9-0.6,5.3-3,11c-0.9,2.1-1.8,3.7-2.6,4.8c-0.1,0.2-0.2,0.3-0.3,0.5
		c-0.1-2,0.2-4.3,0.8-6.9c0.3-1.4,0.8-2.8,1.3-4.3c0.9-2.6,2.1-4.9,3.5-6.9c0,0,0,0,0,0c0.3,0.7,0.4,1.3,0.4,1.5
		C82.8,206.4,82.8,206.5,82.8,206.6z M131.7,214.8c0.6,4.5,3.1,8.1,7,10c0.3,0.2,0.7,0.3,1,0.5c1.4,0.6,2.6,1.1,3.8,1.4
		c-0.2,0-0.4,0-0.6,0c-0.5,0-1,0.1-1.5,0.1c-2,0.2-3.9,0.3-5.9,0.5c0,0-0.1,0-0.1,0c-2.5,0.3-5,0.5-7.5,0.8c-0.2,0-0.3,0-0.4,0
		c-1.7,0.2-3.4,0.3-5.1,0.5c-0.3,0-0.7,0.1-1,0.1c-1.5,0.2-3,0.3-4.5,0.5c-0.5,0.1-0.9,0.1-1.4,0.2c-1.4,0.2-2.7,0.4-4,0.5
		c-0.6,0.1-1.2,0.2-1.8,0.3c-0.6,0.1-1.2,0.2-1.7,0.3c0.9-0.5,1.6-1.4,2-2.4c0.1-0.2,0.1-0.4,0.2-0.6c0,0,0,0,0,0c0,0,0,0,0-0.1
		c0.2-0.8,0.6-2.1,1-4.4c0.3-1.5,0.7-2.8,1.1-4.2c0,0,0-0.1,0-0.1c0,0,1.2-4.6,2.6-6.8c0,0,0,0,0-0.1c1.1-1.6,2.1-3.1,3-4.5
		c0.3,0.5,0.6,1,1.1,1.5c0.1,0.1,0.2,0.2,0.3,0.3c0.7,0.7,1.6,1.2,2.7,1.7c1.8,0.7,4,1.1,6.7,1.1h0c0,0,0,0,0,0c1.1,0,2-0.4,2.7-1.1
		C131.5,212.4,131.6,213.7,131.7,214.8z M95.2,224.1c0,0.2,0,0.3,0,0.5c0,0.2,0.1,0.3,0.1,0.5c0,0.2,0.1,0.3,0.1,0.5
		c0,0.1,0.1,0.3,0.2,0.4c0.1,0.2,0.1,0.3,0.2,0.5c0.1,0.1,0.2,0.3,0.3,0.4c0.1,0.1,0.2,0.3,0.3,0.4c0.1,0.2,0.3,0.3,0.4,0.4
		c0.1,0.1,0.2,0.2,0.3,0.3c0.2,0.2,0.4,0.4,0.7,0.6c0,0,0.1,0.1,0.1,0.1c0.3,0.2,0.6,0.4,0.9,0.5c1.5,0.7,2.7,1.3,3.8,1.6
		c0.6,0.2,1.1,0.3,1.7,0.4c-1,0.2-2,0.3-3,0.5c-0.8,0.2-1.7,0.3-2.5,0.5c-0.8,0.2-1.7,0.3-2.5,0.5c-1,0.2-2,0.4-3,0.6
		c-0.6,0.1-1.3,0.3-1.9,0.4c-1.5,0.4-3.1,0.7-4.6,1.1c-0.1,0-0.1,0-0.2,0.1c-0.1,0-0.1,0-0.2,0.1c-0.1,0-0.2,0-0.2,0.1
		c2.9-2.3,5.6-5.7,8.2-10.4c0.4-0.6,0.7-1.3,1-1.9c0-0.1,0.1-0.1,0.1-0.2c0,0.2,0,0.4,0,0.5c0,0.2,0,0.3,0,0.5
		C95.2,223.8,95.2,223.9,95.2,224.1z M174.1,229.5c22.4,0,37,1.9,38,2.1c0.1,0,0.2,0,0.2,0c20,1.5,16,7.9,16,7.9
		c0,2.6-2.2,3.3-4.6,3.4c-0.2,0-0.3,0-0.5,0c-0.2,0-0.4,0-0.5,0c-2.6-0.1-5.2-0.8-5.2-0.8c-20.4-3.5-39.9-4.8-57.8-4.8
		c-5.3,0-10.5,0.1-15.5,0.3c-4,0.2-8,0.5-12,0.7c-2.3,0.2-4.6,0.4-7,0.5c-17.5,1.6-32.4,4.3-43.6,6.8c-10.9,2.6-22.5,6-31.7,11.7
		c-0.2,0.1-0.3,0.1-0.4,0.1c-0.8,0-0.7-1.8-0.2-2.3c2-1.9,4.1-3.4,6.5-4.6l0,0l0.1-0.1c3.2-1.8,6.7-3.2,10.2-4.6
		c0.3-0.1,0.6-0.2,0.9-0.4l0.3-0.1c0.1,0,0.1,0,0.2-0.1c6.6-2.6,13.2-4.9,20.1-6.6c13.5-3.4,27.2-5.4,41.1-6.7
		C145.5,230.1,161.1,229.5,174.1,229.5z M149.3,226.2C149.3,226.2,149.3,226.2,149.3,226.2c0.3-0.2,0.6-0.3,1-0.5
		c0.1,0,0.1-0.1,0.2-0.1c0.3-0.2,0.5-0.3,0.8-0.5c0.1-0.1,0.2-0.1,0.3-0.2c0.3-0.2,0.5-0.5,0.8-0.7c0,0,0.1-0.1,0.1-0.1
		c0.3-0.3,0.6-0.6,0.9-1c0.1-0.1,0.2-0.2,0.2-0.3c0.2-0.3,0.5-0.6,0.7-0.9c0.1-0.1,0.2-0.2,0.2-0.3c0.3-0.4,0.6-0.8,0.9-1.3
		c0,0,0,0,0,0c0,0,0.1,0.1,0.1,0.1c0,0,0,0,0,0c1.1,1.4,2.8,2.6,5.7,4c0,0,0.1,0,0.1,0c1,0.5,1.9,0.8,2.8,1.1c-0.5,0-1,0-1.5,0
		c-0.2,0-0.4,0-0.6,0c-1.6,0-3.2,0.1-4.9,0.2c-0.5,0-0.9,0-1.3,0.1c-1.4,0.1-2.8,0.1-4.3,0.2c-0.7,0-1.4,0.1-2,0.1
		C149.5,226.2,149.4,226.2,149.3,226.2z M241.4,212.3c-0.7,1.2-1.5,2.4-2.4,3.7c-1.7,2.5-3.3,3.8-4.9,4c-0.3,0-0.5,0-0.8,0
		c-2,0-4.3-0.9-7.2-2.8c-2-1.3-3.1-3.5-3.4-6.8c-0.1-1.6-0.1-3.3,0-5.2c-1.7,4.4-3.1,8-4.3,10.8c-0.8,1.9-1.5,3.3-2.2,4.5
		c-0.9,1.7-1.7,2.6-2.2,2.6c-0.3,0-0.6,0.1-1,0.1c-2.8,0-6-1.5-7.9-3.5c-1.6-1.9-2.5-5.4-2.4-10.8c-0.3,0.4-0.6,0.9-0.9,1.3
		c-3.3,5.1-6.3,7.9-8.9,8.2c-0.3,0-0.5,0.1-0.8,0.1c-1.3,0-2.8-0.4-4.5-1.2c-2.1-0.8-3.6-1.7-4.4-2.6c-0.8-0.8-1.4-2.2-2-4
		c-0.4,0.5-0.8,0.9-1.2,1.3c-5.8,6.5-9.7,9.9-11.6,10.2c-0.2,0-0.4,0-0.7,0c-1.3,0-2.9-0.5-4.8-1.4c-2.2-1.1-3.7-2-4.3-2.9
		c-0.8-0.9-1.4-2.9-1.8-5.9c-0.1-0.7-0.2-1.5-0.2-2.3c-0.3,0.6-0.6,1.3-0.9,1.9c-3.6,7.1-6.6,10.9-9.1,11.3c-0.2,0-0.4,0-0.6,0
		c-1.4,0-3.3-0.5-5.5-1.7c-2.8-1.3-4.4-3.7-4.9-6.9c-0.6-4.7,0.8-13.6,4.3-26.6l2.8-8.5c0.4-0.2,1.1-0.3,2-0.3
		c1.4,0,3.1,0.3,4.3,1.2c2.5,1.6,2.8,2.3,2.3,5.1c-0.4,2-2.4,7.2-4.7,14.1c-2.3,6.9-3.4,12-3.3,15.1c0,0.5,0,0.9,0.1,1.2
		c0,0.2,0,0.3,0.1,0.4c0.2,1,0.5,1.5,0.9,1.5c0,0,0.1,0,0.1,0c1.4-0.2,5.7-4.6,9.2-9.3c1.2-1.6,2.2-3.1,3-4.4
		c0.4-9.2,2.5-22.4,6.4-39.6c1.6-6.9,3.3-13.2,5.2-18.9c3.8-11.4,6.1-15.6,6.9-16.2c0.4-0.2,0.9-0.4,1.4-0.4c1.1,0,2.5,0.5,4.3,1.4
		c3.3,1.9,5.3,4.2,5.9,6.5c0.7,2.5,0.6,6.6,0,12.5c-0.7,5.9-1.8,11.7-3.6,17.4c-4.2,13.9-10.1,23.4-17.7,28.4
		c-1.2,7.3-1.7,12.6-1.4,15.8c0.2,3.4,1,5.1,2.1,5.1c0.1,0,0.1,0,0.2,0c1.7-0.2,6.9-3.6,11.8-8.5l2.8-2.9c0.3-8.9,2.6-21.5,6.9-37.8
		c0.2-0.8,0.4-1.5,0.6-2.3c1.4-5.3,2.9-10,4.5-14.1c3.6-9.5,5.5-12.5,6.4-13.1c0.4-0.2,0.9-0.4,1.4-0.4c1.1,0,2.5,0.5,4.3,1.4
		c1.1,0.6,2.4,1.8,3.6,3.4c1.2,1.5,2,2.8,2.2,4c0.7,4.2-0.1,10.9-2.7,19.9c-1.9,6.9-5.3,14.3-10.3,22.3c-1.9,3.4-4.8,7.9-8.9,13.3
		c-0.3,3.1-0.3,5.1-0.2,6.2c0.2,3.1,0.9,4.6,2,4.6c0.1,0,0.1,0,0.2,0c0.1,0,0.2,0,0.3-0.1c1.8-0.5,5.7-3.5,9.7-8.6
		c1.1-1.3,2.1-2.6,2.9-3.7c1-4.8,2.6-9.4,5-13.6c2.6-4.6,5.5-7.3,8.9-8.3c0.5-0.1,1-0.2,1.5-0.3c0.3,0,0.5-0.1,0.8-0.1
		c2.4,0,5.3,1.4,8.8,4.2l0.9-3.7c0.1-0.2,0.6-0.4,1.4-0.4c0.9,0,2,0.2,3.3,0.5c2.5,0.8,3.8,2.1,4,4c0.1,0.6,0,1.2-0.3,2.6
		c-0.3,0.6-0.4,1.2-0.6,1.8l-2,6c-2.8,8.5-4.3,14.3-4.5,17.1c-0.1,3.2,0.1,4.9,0.9,5c0,0,0,0,0,0c0.3,0,1-0.5,2.1-1.3
		c1.1-1.3,2.1-2.6,3-4.2c1.5-2.9,2.2-6.2,3.3-9.3c0.5-1.2,2.8-2.6,4.5-2.6c1,0,1.8,0.5,1.9,1.7C246.9,203.3,244.7,208.4,241.4,212.3
		z M179.1,185.9c-0.5,2.6-0.9,5.1-1.3,7.4c-0.3,1.8-0.5,3.6-0.7,5.2c-0.2,1.5-0.3,3-0.4,4.3l-1.7,1.7l0,0c-0.1,0.1-0.1,0.1-0.2,0.2
		c-0.7,0.7-1.4,1.3-2,1.9c-1.6,1.4-3,2.5-4.2,3.4c0,0,0,0,0,0c0,0,0,0,0,0c-0.2,0.2-0.5,0.3-0.7,0.5c0,0,0,0,0-0.1c0,0,0-0.1,0-0.1
		c-0.2-2.4,0.1-6.7,1.1-13.1c1.7-1.2,3.2-2.7,4.7-4.3C175.7,190.9,177.5,188.6,179.1,185.9z"/>
	<path class="st0" d="M203.9,147.3c-5.2,12.8-9.4,26.5-12.6,40.8l-0.7,3.3c6.4-8.9,10.7-18.5,13-29.1
		C205.5,153.8,205.1,147.8,203.9,147.3z"/>
	<path class="st0" d="M180,154c0.9-9.1,0.5-13.5-0.2-14.8c-2.4,2.7-6.8,19.3-13.3,50l-0.3,1.3c5-5.8,8.9-13.9,11.5-24
		C178.7,162.5,179.5,158.5,180,154z"/>
	<path class="st0" d="M227.8,185.2c-1.1-0.4-2.1-0.6-2.9-0.6c-0.2,0-0.4,0-0.5,0c-3,0.4-6,3.5-9,9.2c-3,5.7-4.6,12-4.9,18.7
		c-0.1,3.1,0.3,4.6,1,4.6c0,0,0,0,0.1,0c0.3,0,1.5-1.6,3.4-4.5c0.2-0.4,0.5-0.8,0.8-1.1c1.8-2.8,3.6-6.1,5.6-10
		c0.3-0.6,0.6-1.1,0.8-1.7c1.8-3.8,3.3-7.2,4.3-10.2L227.8,185.2z M220.7,193.5c-0.8,1.9-1.8,4-2.9,6.3c-0.6,1.1-1.1,2.2-1.7,3.2
		c0.5-1.9,1.2-3.7,2-5.5c0.3-0.6,0.6-1.2,0.9-1.8c0.9-1.8,1.7-3.1,2.5-4.1C221.2,192.2,220.9,192.8,220.7,193.5z"/>
	<path class="st2" d="M60.8,214.6C60.8,214.6,60.8,214.6,60.8,214.6c-0.9,0.1-4.1,2.2-9.7,3.9c-10,3.1-16.1,3.6-18.8,3.6
		c-1.1,0-1.6-0.1-1.7-0.1c-0.5,0.4,3.4,5,4.9,5.9c0.7,0.4,1.9,0.6,3.6,0.6c1.7,0,4-0.2,6.7-0.6c1.7-0.2,3.3-0.6,5.1-1
		c-4.1,7.3-7.1,11.1-12.1,13.6c-0.3,0.2-0.6,0.3-0.9,0.4c-2.2,0.9-4.2,1.2-5.9,1.2c-2.7,0-4.6-0.8-5.1-1.1c-1.9-1.4-3.2-4.6-3.9-9.1
		c-0.2-1.5-0.4-3.1-0.4-4.7c-0.2-4.8,0.3-9.8,1.7-15c1.7,0.4,3.4,0.6,5.1,0.6c1.1,0,2.1-0.1,3.2-0.2c0.8-0.1,1.6-0.2,2.4-0.4
		c11.7-2.3,21.2-9.5,27.4-19.5c1.3-2.2,2.3-4.1,2.9-5.9c0.1-0.4,0.2-0.7,0.3-1c0.9-3.4,0.4-6.1-1.6-8c-2.5-2.3-5.4-4-8.9-5.5
		c-3-1.3-5.2-1.9-6.9-1.9c-0.3,0-0.5,0-0.7,0c-6.9,0.9-13.5,5.5-19.9,13.7c-0.4,0.5-0.9,1.1-1.3,1.7c-1.5,2-2.8,4.1-4,6.3
		c-2,3.6-3.7,7.6-5.1,11.8c-1-1.3-1.5-3.1-1.8-5c-0.6-4.9,0.8-10.8,4.2-16.6c1.6-2.6,3.5-5.2,5.9-7.6c3.1-3,6.6-5.8,10.4-8.4
		c0-0.6-1.3-1.1-3.8-1.5c-1.7-0.3-3.1-0.5-4.3-0.5c-0.5,0-0.9,0-1.3,0.1c-0.7,0.1-1.4,0.3-2.1,0.5c-2.1,0.8-4.1,2.4-6.3,4.9
		c-4.7,5.4-7.7,11.1-8.9,17c-0.7,3.6-0.9,7.2-0.4,10.9c0.5,3.9,2.9,7.3,7.1,10.4c-2,7.8-2.5,15.5-1.5,23c0.9,6.9,6,10.8,12.1,13.7
		c0.9,0.4,1.8,0.8,2.7,1.2c3.1,1.3,5.7,1.9,7.8,1.9c0.4,0,0.8,0,1.2-0.1c3.2-0.4,6.6-2,10.2-4.9c2.2-1.7,4.1-3.6,5.5-5.7
		c0.8-1.2,1.5-2.6,2.1-3.9c0.4-1,0-3.5-1.3-7.8c0.6-0.2,1.6-0.4,2.9-1c1.6-0.6,2.7-1.1,3.6-1.7c-0.3-2.3-0.2-4.9,0.1-7.8
		C61.1,214.9,60.9,214.6,60.8,214.6z M28.4,201.7c5-9.6,11-16.6,18.2-21.1c3.4-2.2,6.2-3.2,8.1-3.2c0.5,0,0.9,0.1,1.3,0.2
		c2.4,3.3,1,10.7-4.6,17.7c-6.2,7.7-13.8,12.1-22.7,13.3c-0.8,0.1-1.6,0.2-2.4,0.2c-0.4,0-0.8,0-1.1,0
		C26.2,206.3,27.2,204,28.4,201.7z"/>
	<path class="st0" d="M26.5,208.7c0.8,0,1.5-0.1,2.4-0.2c8.9-1.2,16.5-5.6,22.7-13.3c5.5-7,6.9-14.4,4.6-17.7
		c-0.4-0.1-0.8-0.2-1.3-0.2c-2,0-4.7,1.1-8.1,3.2c-7.2,4.5-13.3,11.5-18.2,21.1c-1.2,2.3-2.1,4.6-3,7
		C25.7,208.7,26.1,208.7,26.5,208.7z M31.9,203.5c2.6-5,5.5-9.3,8.7-12.7c0.7-0.8,1.4-1.5,2.2-2.2c0.7-0.7,1.5-1.4,2.3-2
		c1.2-0.9,2.4-1.8,3.6-2.5c2-1.3,3.5-2,4.5-2.3c0,0.3,0,0.6-0.1,1c-0.3,2.5-1.7,6.2-4.7,10c-1.8,2.2-3.7,4.1-5.6,5.7
		c-3.3,2.7-7,4.5-11,5.5C31.8,203.8,31.9,203.6,31.9,203.5z"/>
	<path class="st2" d="M78.4,234.2c4.3-0.6,8.4-4.4,12.3-11.5c2.7-5,4.3-9.4,4.8-13.2c0.3,0,0.6,0,0.9,0c1.9,0,3.6-0.4,5.2-1.3
		c-0.9,5.2-1.7,10.2-2.3,14.8c-0.2,1.2,0.2,2,1.2,2.6c2.2,1.1,3.9,1.7,4.8,1.7c0.1,0,0.3,0,0.4,0c0.3-0.1,0.5-0.3,0.6-0.5
		c0.3-0.6,0.6-2.1,1.1-4.6c0.6-2.4,1.2-4.7,1.9-6.9c0.7-2.2,1.5-4.2,2.4-5.5c5.2-7.8,8.9-12.9,11.2-15.4c-0.8,2.1-1.4,4.3-1.5,6.2
		c-0.4,3-0.1,4.9,0.8,5.7c1.2,1.1,3.4,1.7,6.7,1.7c0-2.2,0.8-5.4,2.1-9.9c2.2-7,6.2-13.6,5.6-14.8c-0.2-1.2-1.2-2.1-3-2.9
		c-0.5-0.1-1-0.2-1.6-0.2c-1.6,0-3.4,0.5-4.2,1.2c-2.5,2.1-5.2,5.4-7.9,9.8c-3.8,6.1-6.8,11.1-9,15.1l1.5-5.2
		c1.1-3.5,2.1-7.4,2.7-9.4c0.6-1.8,0.6-2.8,0.5-3.6c-0.1-1-1-2-2.4-3c-1.3-0.8-3-1.1-4.3-1.1c-1.4,0-2.4,0.3-2.5,0.5
		c-0.5,1.5-1.4,5.8-2.8,12.9c-0.4,2.1-0.8,4.2-1.2,6.2c-0.6,0.1-1.2,0.2-1.8,0.2c-0.3,0-0.6,0-0.9,0c-1.3-0.2-2.5-1.2-3.8-3.2l-2-3
		c-0.1-0.2-0.4-0.2-0.7-0.2c-1.8,0-6.1,2.8-7.2,4.4c-0.3,0.4-0.3,0.7-0.2,0.9c0.6,1.2,0.9,2.4,0.9,3.4c0.1,3.3-1,7.6-3.4,13
		c-2.9,6.4-6,9.4-7.9,9.8c-0.1,0-0.2,0-0.4,0c-0.3,0-0.6-0.1-0.8-0.3c-0.6-0.5-1.2-1.9-1.4-4.1c-0.5-4,0.2-8.7,2.2-14.3
		c0.5-1.4,1.1-2.7,1.7-4c1.9-3.8,4.3-6.9,7.3-9.3c1.7-1.4,3.6-2.4,5.5-2.9c1.1-0.3,2.3-0.5,3.5-0.5c0.8,0,1.6,0.1,2.4,0.2
		c0.1,0,0.1,0,0.2,0c0.3,0,0.4-0.1,0.5-0.3c0-0.2,0-0.4-0.1-0.7c-0.3-0.8-1.2-1.9-2.8-3.2c-2-1.7-3.9-2.7-5.8-3c-0.3,0-0.6,0-0.8,0
		c-0.3,0-0.6,0-1,0.1c-5,0.7-9.3,3.5-12.8,8.4c-3.9,5.6-6.4,12.3-7.4,20.1c-0.1,0.8-0.2,1.6-0.2,2.4c-0.4,5.3,0.4,9.2,2.4,11.6
		c1.1,1.3,2.8,2.5,5.2,3.6c2.2,1,4,1.5,5.2,1.5C78.1,234.2,78.3,234.2,78.4,234.2z"/>
	<path class="st2" d="M156.6,164.7c1.1-2,1.6-3.6,1.3-5c-0.1-0.5-0.3-1-0.7-1.4c-1.1-1.3-3.4-2.2-5.9-2.2c-0.1,0-0.3,0-0.4,0
		c-1.9,0-3.2,0.6-3.8,1.8c-0.5,0.9-0.3,3.7,0.3,8.6c0,0.1,0,0.2,0,0.4c0.1,1.8-0.3,4.1,0.5,4.2c0.3,0.1,0.6,0.1,0.9,0.1
		c1.5,0,3.1-0.7,4.7-2.1C154.5,168,155.6,166.6,156.6,164.7z"/>
	<path class="st2" d="M87.4,238.9c-6.8,1.7-13.5,4-20.1,6.6c-0.1,0-0.1,0-0.2,0.1l-0.3,0.1c-0.3,0.1-0.6,0.2-0.9,0.4
		c-3.5,1.4-6.9,2.8-10.2,4.6l-0.1,0.1l0,0c-2.3,1.3-4.5,2.8-6.5,4.6c-0.5,0.5-0.6,2.3,0.2,2.3c0.1,0,0.3,0,0.4-0.1
		c9.3-5.7,20.9-9.1,31.7-11.7c11.2-2.5,26.1-5.1,43.6-6.8c2.3-0.2,4.6-0.4,7-0.5c4-0.3,8-0.5,12-0.7c5-0.2,10.2-0.3,15.5-0.3
		c17.9,0,37.4,1.3,57.8,4.8c0,0,2.6,0.7,5.2,0.8c0.2,0,0.4,0,0.5,0c0.2,0,0.3,0,0.5,0c2.4-0.1,4.6-0.9,4.6-3.4c0,0,3.9-6.4-16-7.9
		c-0.1,0-0.2,0-0.2,0c-1-0.1-15.6-2.1-38-2.1c-13,0-28.6,0.7-45.6,2.7C114.6,233.4,100.9,235.4,87.4,238.9z"/>
	<path class="st0" d="M6.2,154.8c-0.1-2.4-0.2-4.9-0.2-7.3c0-54,36.3-101.8,88.2-116.2c1.1-0.3,1.7-1.4,1.4-2.5
		c-0.3-1.1-1.4-1.7-2.5-1.4C39.5,42.3,2,91.7,2,147.5c0,2.5,0.1,5,0.2,7.5c0.1,1.1,0.9,1.9,2,1.9c0,0,0.1,0,0.1,0
		C5.4,156.8,6.3,155.9,6.2,154.8z"/>
	<path class="st0" d="M163,32.4c50.4,15.9,84.2,62.1,84.2,115c0,8.2-0.8,16.4-2.5,24.3c-0.2,1.1,0.5,2.1,1.6,2.4c0.1,0,0.3,0,0.4,0
		c0.9,0,1.8-0.7,2-1.6c1.7-8.2,2.5-16.7,2.5-25.1c0-27-8.5-52.7-24.6-74.4c-15.6-20.9-37.7-36.7-62.4-44.5c-1-0.3-2.2,0.3-2.5,1.3
		C161.4,31,161.9,32.1,163,32.4z"/>
</g>
</svg>
